<svg xmlns="http://www.w3.org/2000/svg" width="1000" height="410" viewBox="0 0 1000 410" version="1.1"><path d="" stroke="none" fill="#140c14" fill-rule="evenodd"/><path d="M 142.330 87.481 C 102.485 94.711, 78.810 120.916, 70.489 167 C 68.248 179.410, 67.333 215.214, 68.913 228.666 C 74.793 278.726, 97.710 306.329, 141.178 315.705 C 147.762 317.125, 154.094 317.500, 171.500 317.500 C 192.367 317.500, 194.053 317.356, 204.227 314.703 C 215.751 311.698, 226.838 307.457, 233.729 303.419 L 238.016 300.906 237.758 243.203 L 237.500 185.500 199.117 185.238 C 171.617 185.050, 160.346 185.298, 159.367 186.110 C 158.297 186.998, 158 191.451, 158 206.587 C 158 224.687, 158.124 225.996, 159.934 226.965 C 161.005 227.538, 168.151 228, 175.934 228 L 190 228 190 249.375 L 190 270.750 187.159 271.318 C 179.975 272.755, 164.019 273.167, 157.129 272.093 C 134.460 268.560, 121.858 252.295, 118.009 221.602 C 116.563 210.070, 116.774 192.074, 118.489 180.699 C 122.553 153.737, 133.831 138.926, 154.372 133.575 C 168.281 129.953, 193.478 130.885, 209.847 135.629 C 216.791 137.641, 218.572 137.853, 219.617 136.795 C 220.959 135.435, 229 103.437, 229 99.455 C 229 97.648, 227.857 96.609, 223.750 94.682 C 217.261 91.638, 204.241 88.395, 193.026 87.031 C 181.448 85.622, 151.090 85.892, 142.330 87.481 M 450.200 95.200 C 448.459 96.941, 448.459 311.059, 450.200 312.800 C 451.061 313.661, 457.681 314, 473.665 314 C 494.654 314, 495.989 313.889, 496.965 312.066 C 497.634 310.814, 498 294.218, 498 265.066 L 498 220 529.263 220 L 560.526 220 560.150 264.855 C 559.878 297.341, 560.091 310.302, 560.923 311.855 C 562.043 313.950, 562.594 314, 584.335 314 C 600.319 314, 606.939 313.661, 607.800 312.800 C 609.697 310.903, 609.524 96.680, 607.624 95.103 C 606.661 94.304, 599.537 94.042, 583.874 94.231 L 561.500 94.500 561.239 135.250 L 560.978 176 529.489 176 L 498 176 498 136.934 C 498 111.918, 497.628 97.173, 496.965 95.934 C 495.989 94.111, 494.654 94, 473.665 94 C 457.681 94, 451.061 94.339, 450.200 95.200 M 789.200 95.200 C 787.459 96.941, 787.459 311.059, 789.200 312.800 C 790.966 314.566, 821.360 314.476, 822.834 312.700 C 823.427 311.986, 824.213 309.520, 824.581 307.221 L 825.249 303.041 828.045 305.032 C 832.493 308.199, 844.961 313.792, 851.500 315.553 C 859.782 317.783, 878.791 318.553, 887.846 317.026 C 898.205 315.279, 907.565 310.318, 914.369 302.968 C 927.527 288.755, 932.697 266.953, 931.743 229.696 C 931.192 208.155, 929.644 200.149, 923.543 187.270 C 910.214 159.137, 876.336 151.221, 838.750 167.458 C 837.102 168.170, 837 166.160, 837 133.041 C 837 110.708, 836.622 97.162, 835.965 95.934 C 834.989 94.111, 833.654 94, 812.665 94 C 796.681 94, 790.061 94.339, 789.200 95.200 M 274.479 101.358 C 264.380 106.061, 258.781 114.603, 258.701 125.432 C 258.564 143.923, 275.747 156.389, 293.852 150.934 C 296.245 150.212, 300.383 147.663, 303.046 145.269 C 314.431 135.032, 314.924 117.828, 304.140 107.044 C 296.080 98.985, 284.388 96.743, 274.479 101.358 M 348.685 121.649 C 348.308 122.025, 348 131.916, 348 143.628 L 348 164.923 344.250 165.912 C 342.188 166.457, 337.232 167.636, 333.239 168.534 C 329.245 169.431, 325.307 170.835, 324.489 171.654 C 322.255 173.888, 322.326 200.183, 324.571 202.429 C 325.808 203.665, 328.470 204, 337.071 204 L 348 204 348 238.412 C 348 283.462, 349.454 291.282, 360.076 303.349 C 370.388 315.064, 394.496 320.661, 417 316.565 C 430.604 314.089, 429.580 315.497, 430.360 298.197 C 430.763 289.284, 430.648 282.205, 430.077 280.703 C 429.130 278.211, 428.993 278.183, 418.309 278.305 C 406.577 278.440, 403.744 277.591, 399 272.516 L 396.500 269.841 396.211 236.921 L 395.922 204 411.761 204 C 422.747 204, 427.968 203.632, 428.800 202.800 C 430.066 201.534, 430.589 168.700, 429.393 165.582 C 428.874 164.229, 426.421 164, 412.413 164 L 396.040 164 395.770 142.750 L 395.500 121.500 372.435 121.232 C 359.749 121.085, 349.061 121.272, 348.685 121.649 M 261.685 164.649 C 261.308 165.025, 261 198.318, 261 238.631 C 261 310.076, 261.049 311.956, 262.934 312.965 C 265.857 314.529, 305.157 314.339, 307.318 312.750 C 308.897 311.590, 309.001 306.211, 308.760 238 L 308.500 164.500 285.435 164.232 C 272.749 164.085, 262.061 164.272, 261.685 164.649 M 629.062 165.425 C 628.172 166.497, 627.969 180.827, 628.242 223.175 C 628.563 272.923, 628.807 280.192, 630.336 285.425 C 635.391 302.739, 646.469 312.661, 665.172 316.630 C 670.625 317.787, 676.081 318.060, 686.500 317.697 C 702.767 317.131, 710.735 315.210, 724.173 308.618 L 732.845 304.363 733.512 307.931 C 733.879 309.894, 734.644 312.063, 735.212 312.750 C 736.638 314.475, 765.080 314.520, 766.800 312.800 C 768.692 310.908, 768.520 166.676, 766.624 165.103 C 765.661 164.304, 758.537 164.042, 742.874 164.231 L 720.500 164.500 720.241 218.117 L 719.983 271.735 714.186 274.336 C 698.816 281.234, 683.849 280.118, 679.267 271.733 C 677.654 268.783, 677.475 264.046, 677.215 217.560 C 677.020 182.744, 676.585 166.205, 675.842 165.310 C 674.185 163.313, 630.726 163.420, 629.062 165.425 M 848 200.446 C 845.525 201.142, 841.813 202.429, 839.750 203.305 L 836 204.898 836 238.877 L 836 272.856 841.750 275.025 C 854.253 279.740, 867.663 280.012, 874.200 275.683 C 881.352 270.946, 883.985 260.806, 883.994 237.960 C 884.003 215.728, 880.599 206.092, 871.025 201.250 C 865.894 198.655, 855.635 198.296, 848 200.446" stroke="none" fill="#141414" fill-rule="evenodd"/></svg>