<svg xmlns="http://www.w3.org/2000/svg" xmlns:xlink="http://www.w3.org/1999/xlink" viewBox="0 0 1758 506" style="background: #f8fafc;" class="bg-slate-50 dark:bg-slate-500">

  <style>
    :root { --color: #00FF00; }
    @media (prefers-color-scheme: light) { :root { --color: #e5e7eb; } }
    @media (prefers-color-scheme: dark) { :root { --color: ##6b7280; } }
    path {
      fill: none;
      stroke: var(--color);
      stroke-width: 1;
      stroke-linecap: round;
      stroke-linejoin: round;
    }
  </style>

<g>
	<path stroke-miter-limit="10" d="M0,601.2c6-4.9,12.1-9.7,18.3-13.9c6.8-4.6,13.8-8.6,20.9-11.3
		c3.6-1.4,7.2-2.4,10.8-3.1c1.8-0.3,3.7-0.5,5.5-0.7c1.8-0.1,3.7-0.1,5.5,0c1.8,0.1,3.6,0.4,5.4,0.8c1.8,0.4,3.6,0.9,5.4,1.5
		c3.6,1.2,7.1,2.8,10.6,4.7c6.9,3.8,13.7,8.9,20.2,14.5c6.4,5.6,12.8,11.9,19,18.3c6.2,6.5,12.4,13.1,18.6,19.7
		c3.1,3.3,6.2,6.6,9.3,9.8c3.1,3.2,6.2,6.4,9.4,9.5c6.3,6.2,12.8,12.1,19.4,17.3c6.6,5.2,13.5,9.7,20.5,13c3.5,1.7,7.1,3,10.7,4
		c1.8,0.5,3.6,0.9,5.4,1.2c1.8,0.3,3.6,0.5,5.4,0.6c2.1,0.1,4.2,0.1,6.2,0c2.1-0.1,4.1-0.4,6.2-0.7c4.1-0.7,8.2-1.8,12.3-3.2
		c8.1-2.8,16.1-6.9,23.9-11.6c7.8-4.7,15.5-10.1,23.1-15.7c3.8-2.8,7.6-5.7,11.3-8.7c3.8-2.9,7.5-5.9,11.3-8.9
		c7.5-6,15-12,22.5-17.8c7.5-5.8,15.1-11.4,22.8-16.5c7.6-5,15.5-9.7,23.4-13.3c4-1.8,8.1-3.4,12.2-4.7c4.1-1.3,8.2-2.2,12.4-2.7
		c3.5-0.4,7.1-0.5,10.7-0.3c3.6,0.2,7.1,0.7,10.6,1.5c3.5,0.8,7,1.8,10.5,3c3.5,1.2,6.9,2.7,10.4,4.3c6.8,3.3,13.5,7.3,20.2,11.6
		c6.6,4.4,13.2,9.1,19.7,14c6.5,4.9,13,9.8,19.5,14.6c6.5,4.8,13.1,9.4,19.8,13.5c3.3,2,6.7,3.9,10.2,5.6c3.4,1.7,6.9,3.2,10.3,4.3
		c3.5,1.2,7,2.1,10.5,2.7c3.5,0.5,7.1,0.7,10.7,0.5c1.7-0.1,3.3-0.3,4.9-0.6c1.6-0.3,3.3-0.7,4.9-1.2c3.2-1,6.5-2.2,9.7-3.7
		c6.3-3,12.6-7,18.6-11.5c6-4.5,12-9.7,17.7-15c2.9-2.7,5.8-5.5,8.7-8.3s5.7-5.6,8.6-8.5c5.7-5.7,11.3-11.5,17-17.1
		c2.9-2.8,5.7-5.6,8.6-8.3c2.9-2.7,5.8-5.4,8.7-7.9c5.9-5.1,12-9.8,18.2-13.5c3.1-1.8,6.3-3.5,9.5-4.7c1.6-0.6,3.2-1.2,4.9-1.6
		c1.6-0.4,3.3-0.8,4.9-1c2.9-0.3,5.8-0.3,8.8,0.1c2.9,0.4,5.8,1.1,8.7,2.2c2.9,1,5.7,2.3,8.5,3.9c2.8,1.5,5.6,3.3,8.3,5.2
		c5.4,3.7,10.7,8.1,15.9,12.6c5.2,4.5,10.4,9.2,15.5,13.9c2.6,2.3,5.2,4.6,7.8,6.9c2.6,2.2,5.2,4.4,7.9,6.5
		c5.3,4.2,10.8,8,16.3,11.1c2.8,1.5,5.6,2.9,8.5,4.1c2.9,1.2,5.7,2.1,8.6,2.8c1.5,0.3,2.9,0.6,4.4,0.8c1.5,0.2,2.9,0.3,4.4,0.4
		c2.9,0.1,5.8,0,8.8-0.5c2.1-0.3,4.2-0.8,6.2-1.3c2-0.6,4.1-1.3,6.1-2c4.1-1.6,8.1-3.5,12.1-5.8c7.8-4.4,15.8-9.9,23.4-15.5
		c3.8-2.8,7.6-5.8,11.4-8.8c3.8-3,7.6-6,11.3-9c7.6-6.1,15-12,22.7-17.9c7.7-5.8,15.4-11.4,23.2-16.4c7.8-5.1,15.8-9.6,23.8-13.4
		c4-1.9,8.1-3.6,12.2-5c4.1-1.5,8.2-2.7,12.4-3.6c4.1-0.9,8.3-1.6,12.5-2c4.2-0.4,8.3-0.4,12.5-0.1c2.5,0.2,5,0.5,7.5,0.8
		c2.5,0.4,5,0.9,7.5,1.5c5,1.2,9.9,2.7,14.8,4.6c9.8,3.7,19.5,8.6,29,14.1c9.5,5.5,18.9,11.6,28.2,18c4.7,3.2,9.3,6.5,13.9,9.8
		c4.6,3.3,9.3,6.7,13.9,10s9.2,6.7,13.9,10c4.6,3.3,9.3,6.6,13.9,9.8c9.3,6.4,18.7,12.6,28.2,18.2c9.5,5.5,19.2,10.6,28.9,14.4
		c4.9,1.9,9.8,3.5,14.8,4.8c2.5,0.6,5,1.2,7.5,1.6c2.5,0.4,5,0.8,7.5,1c4.6,0.4,9.2,0.3,13.7,0c4.6-0.4,9.1-1.1,13.7-2.2
		s9.1-2.5,13.5-4.1c4.5-1.6,8.9-3.5,13.3-5.6c8.8-4.2,17.5-9.1,26.1-14.4c4.3-2.6,8.6-5.4,12.9-8.1c4.3-2.8,8.6-5.6,12.8-8.4
		c4.3-2.8,8.5-5.6,12.8-8.3c4.3-2.7,8.6-5.4,12.9-8c8.6-5.2,17.3-9.9,26.2-13.9c4.4-2,8.9-3.8,13.4-5.4c4.5-1.6,9-2.9,13.5-3.9
		c4.5-1,9.1-1.8,13.7-2.2c4.6-0.4,9.2-0.5,13.7-0.3c0.5,0,1.1,0,1.6,0.1c4.9,0.2,9.8,0.7,14.7,1.4c4.9,0.7,9.8,1.5,14.6,2.5
		c9.7,2,19.5,4.5,29.1,7.4c9.6,2.9,19.3,6.1,28.9,9.5c9.6,3.4,19.2,7,28.8,10.6c19.1,7.2,38.3,14.6,57.4,21.5
		c19.3,6.9,38.3,13.2,57.8,18.7c14.8,4.2,29.5,7.8,44.4,10.8"/>
	<path fill="none" stroke="#e5e7eb" stroke-miter-limit="10" d="M0,502.6c5.3-3.4,10.8-6.3,16.2-8.5c3.5-1.4,7.1-2.5,10.7-3.1
		c1.8-0.3,3.6-0.5,5.4-0.7c1.8-0.1,3.6-0.1,5.4,0c1.8,0.1,3.6,0.4,5.4,0.8c1.8,0.4,3.6,0.9,5.3,1.5c3.5,1.2,7,2.8,10.4,4.7
		c6.8,3.8,13.5,8.9,19.8,14.5c6.3,5.6,12.6,11.9,18.7,18.2c6.1,6.4,12.2,13.1,18.2,19.7c3,3.3,6.1,6.6,9.1,9.8
		c3,3.2,6.1,6.4,9.2,9.5c6.2,6.2,12.5,12.1,19,17.3c6.5,5.2,13.2,9.7,20.2,13c3.5,1.7,7,3,10.5,4c1.8,0.5,3.6,0.9,5.3,1.2
		c1.8,0.3,3.6,0.5,5.4,0.7c2.1,0.1,4.1,0.1,6.1,0c2-0.1,4.1-0.4,6.1-0.7c4-0.7,8.1-1.8,12.1-3.2c7.9-2.8,15.8-6.9,23.4-11.6
		c7.6-4.7,15.2-10.1,22.6-15.7c3.7-2.8,7.4-5.7,11.1-8.6c3.7-2.9,7.4-5.9,11-8.9c7.3-6,14.7-12,22-17.8c7.3-5.8,14.8-11.4,22.3-16.5
		c7.5-5.1,15.1-9.7,22.9-13.3c3.9-1.8,7.9-3.4,11.9-4.7c4-1.3,8.1-2.2,12.1-2.7c3.5-0.4,6.9-0.5,10.4-0.3c3.5,0.2,6.9,0.7,10.4,1.5
		c3.5,0.8,6.9,1.8,10.3,3c3.4,1.2,6.8,2.7,10.1,4.3c6.7,3.3,13.2,7.2,19.6,11.6c6.5,4.4,12.8,9.1,19.2,14c6.3,4.8,12.6,9.8,19,14.6
		c6.3,4.7,12.8,9.4,19.2,13.4c6.5,4.1,13.2,7.6,20,10c3.4,1.2,6.8,2.1,10.3,2.7c3.5,0.5,6.9,0.7,10.4,0.5c1.6-0.1,3.2-0.3,4.8-0.7
		s3.2-0.7,4.8-1.2c3.2-0.9,6.3-2.2,9.4-3.7c6.2-3,12.2-7,18.1-11.5c5.8-4.5,11.6-9.6,17.2-15c2.8-2.7,5.6-5.4,8.4-8.2
		c2.8-2.8,5.5-5.6,8.3-8.5c5.5-5.7,11-11.5,16.5-17.1c2.7-2.8,5.5-5.6,8.3-8.3c2.8-2.7,5.6-5.4,8.5-7.9c5.7-5.1,11.6-9.8,17.6-13.5
		c3-1.9,6.1-3.5,9.2-4.8c1.6-0.6,3.1-1.2,4.7-1.6c1.6-0.4,3.2-0.8,4.8-1c2.8-0.3,5.7-0.3,8.5,0.1c2.8,0.4,5.7,1.1,8.4,2.2
		c2.8,1,5.5,2.3,8.2,3.9c2.7,1.5,5.4,3.3,8,5.1c5.2,3.7,10.3,8.1,15.3,12.6c5,4.5,10,9.2,15,13.8c2.5,2.3,5,4.6,7.5,6.8
		c2.5,2.2,5,4.4,7.6,6.5c5.1,4.2,10.3,8,15.7,11.1c2.7,1.6,5.4,3,8.2,4.1c2.8,1.2,5.5,2.1,8.3,2.8c1.4,0.3,2.8,0.6,4.2,0.8
		c1.4,0.2,2.8,0.3,4.2,0.4c2.8,0.1,5.7,0,8.5-0.5c2-0.3,4-0.8,6-1.3c2-0.6,3.9-1.3,5.9-2c3.9-1.6,7.8-3.5,11.6-5.8
		c7.5-4.3,15.1-9.8,22.4-15.5c3.7-2.8,7.3-5.8,10.9-8.7c3.6-3,7.2-6,10.8-9c7.3-6,14.4-12,21.8-17.8c7.3-5.8,14.7-11.4,22.2-16.4
		c7.5-5.1,15.1-9.6,22.9-13.4c3.9-1.9,7.8-3.6,11.8-5.1c3.9-1.5,7.9-2.7,11.9-3.6c4-1,8-1.6,12-2c4-0.4,8.1-0.4,12.1-0.1
		c2.4,0.2,4.8,0.5,7.2,0.8c2.4,0.4,4.8,0.9,7.2,1.5c4.8,1.2,9.5,2.7,14.2,4.6c9.4,3.7,18.7,8.6,27.7,14c9,5.4,18.1,11.6,26.9,18
		c4.4,3.2,8.9,6.5,13.3,9.8c4.4,3.3,8.8,6.6,13.2,10c8.8,6.7,17.6,13.4,26.5,19.8c8.8,6.4,17.8,12.7,26.8,18.2
		c9,5.6,18.3,10.6,27.6,14.5c4.7,1.9,9.4,3.6,14.2,4.8c2.4,0.6,4.8,1.2,7.2,1.6c2.4,0.4,4.8,0.8,7.2,1c4.4,0.4,8.8,0.3,13.2,0
		c4.4-0.4,8.7-1.2,13.1-2.2c4.3-1.1,8.7-2.5,12.9-4.1c4.3-1.7,8.5-3.6,12.7-5.7c8.4-4.2,16.7-9.2,24.9-14.5
		c4.1-2.6,8.2-5.4,12.2-8.2c4.1-2.8,8.2-5.6,12.2-8.4c4.1-2.8,8.1-5.6,12.2-8.3c4.1-2.7,8.2-5.4,12.3-8c8.2-5.2,16.5-9.9,25-13.9
		c4.2-2,8.5-3.8,12.8-5.3c4.3-1.5,8.6-2.8,12.9-3.8c4.3-1,8.7-1.7,13.1-2.1c4.4-0.4,8.8-0.4,13.1-0.1c3.5,0.2,7,0.7,10.5,1.4
		c3.5,0.7,7,1.5,10.5,2.5c6.9,2,13.8,4.6,20.7,7.5s13.6,6.3,20.3,9.8c3.4,1.8,6.7,3.6,10.1,5.4s6.7,3.8,10,5.7
		c13.3,7.6,26.6,15.6,39.9,23.1c13.4,7.5,26.8,14.6,40.4,20.7c11.8,3.8,23.7,7.1,35.7,9.8c11.9,2.7,23.9,4.8,35.9,6.1
		c24.1,2.8,48,2.6,72.1-0.5c11.6-1.5,23.3-3.7,34.9-6.2c2.4-0.5,4.7-1,7.1-1.6"/>
	<path fill="none" stroke="#e5e7eb" stroke-miter-limit="10" d="M0,484c4-2.4,8.1-4.4,12.2-6c3.5-1.4,7.1-2.5,10.7-3.1c1.8-0.3,3.6-0.5,5.4-0.7
		c1.8-0.1,3.6-0.1,5.4,0c1.8,0.1,3.6,0.4,5.4,0.8c1.8,0.4,3.5,0.9,5.3,1.5c3.5,1.2,7,2.8,10.4,4.7c6.8,3.8,13.4,8.9,19.8,14.5
		c6.3,5.6,12.6,11.9,18.6,18.2c6.1,6.4,12.1,13.1,18.2,19.7c3,3.3,6.1,6.6,9.1,9.8c3,3.2,6.1,6.4,9.2,9.5
		c6.2,6.2,12.5,12.1,18.9,17.3c6.5,5.2,13.2,9.7,20.1,13.1c3.4,1.7,6.9,3,10.5,4c1.8,0.5,3.5,0.9,5.3,1.2c1.8,0.3,3.6,0.5,5.4,0.7
		c2,0.1,4.1,0.1,6.1,0c2-0.1,4-0.4,6.1-0.7c4-0.7,8-1.8,12-3.2c7.9-2.8,15.8-6.9,23.4-11.6c7.6-4.7,15.1-10.1,22.5-15.7
		c3.7-2.8,7.4-5.7,11-8.6c3.7-2.9,7.3-5.9,11-8.9c7.3-6,14.6-12,21.9-17.8c7.3-5.8,14.7-11.4,22.2-16.5c7.4-5.1,15.1-9.7,22.8-13.3
		c3.9-1.8,7.9-3.4,11.9-4.7s8-2.2,12.1-2.7c3.5-0.4,6.9-0.5,10.4-0.3c3.5,0.2,6.9,0.7,10.3,1.5c3.4,0.8,6.8,1.8,10.2,3
		c3.4,1.2,6.7,2.7,10,4.4c6.6,3.3,13.1,7.2,19.6,11.6c6.4,4.4,12.8,9.1,19.1,14c6.3,4.8,12.5,9.8,18.9,14.6
		c6.3,4.7,12.7,9.4,19.1,13.4c6.5,4.1,13.2,7.6,19.9,10c3.4,1.2,6.8,2.1,10.2,2.7c3.5,0.5,6.9,0.7,10.4,0.5c1.6-0.1,3.2-0.3,4.8-0.7
		c1.6-0.3,3.2-0.7,4.8-1.2c3.2-0.9,6.3-2.2,9.4-3.7c6.1-3,12.2-7,18-11.6c5.8-4.5,11.5-9.6,17.1-15c2.8-2.7,5.5-5.4,8.3-8.2
		c2.8-2.8,5.5-5.6,8.2-8.5c5.5-5.7,10.9-11.4,16.4-17.1c2.7-2.8,5.5-5.6,8.3-8.3c2.8-2.7,5.6-5.4,8.4-7.9c5.6-5,11.5-9.8,17.5-13.5
		c3-1.9,6.1-3.5,9.2-4.8c1.5-0.6,3.1-1.2,4.7-1.6c1.6-0.4,3.2-0.8,4.8-1c2.8-0.3,5.7-0.3,8.5,0.1c2.8,0.4,5.6,1.1,8.4,2.2
		c2.8,1,5.5,2.3,8.2,3.9c2.7,1.5,5.3,3.3,7.9,5.2c5.2,3.7,10.2,8.1,15.2,12.5c5,4.5,9.9,9.2,14.8,13.8c2.5,2.3,5,4.6,7.5,6.8
		c2.5,2.2,5,4.4,7.6,6.5c5.1,4.2,10.3,8,15.6,11.1c2.7,1.6,5.4,3,8.1,4.1c2.7,1.2,5.5,2.1,8.3,2.8c1.4,0.3,2.8,0.6,4.2,0.8
		c1.4,0.2,2.8,0.3,4.2,0.4c2.8,0.1,5.7,0,8.5-0.5c2-0.3,4-0.8,5.9-1.3c2-0.6,3.9-1.3,5.9-2c3.9-1.6,7.7-3.5,11.5-5.8
		c7.5-4.3,15-9.8,22.2-15.5c3.6-2.8,7.2-5.8,10.8-8.7c3.6-3,7.2-6,10.8-9c7.2-6,14.3-12,21.6-17.8c7.2-5.8,14.6-11.4,22-16.4
		c7.5-5.1,15-9.6,22.7-13.4c3.9-1.9,7.7-3.6,11.7-5.1c3.9-1.5,7.9-2.7,11.8-3.7c4-1,7.9-1.6,12-2c4-0.4,8-0.4,12-0.1
		c2.4,0.2,4.8,0.5,7.1,0.8c2.4,0.4,4.8,0.9,7.1,1.5c4.7,1.2,9.4,2.7,14.1,4.6c9.3,3.7,18.5,8.6,27.5,14c8.9,5.4,17.9,11.6,26.6,18
		c4.4,3.2,8.8,6.5,13.1,9.8c4.4,3.3,8.7,6.6,13.1,10c8.7,6.7,17.4,13.4,26.2,19.8c8.7,6.4,17.6,12.6,26.6,18.2
		c8.9,5.6,18.1,10.6,27.4,14.5c4.7,1.9,9.3,3.6,14.1,4.8c2.3,0.7,4.7,1.2,7.1,1.6c2.4,0.4,4.8,0.8,7.1,1c4.3,0.4,8.7,0.3,13-0.1
		c4.3-0.4,8.7-1.2,13-2.2c4.3-1.1,8.6-2.5,12.8-4.1s8.4-3.6,12.6-5.7c8.3-4.2,16.5-9.2,24.6-14.5c4.1-2.6,8.1-5.4,12.1-8.2
		c4-2.8,8-5.6,12.1-8.4c4-2.8,8.1-5.6,12.1-8.3c4-2.7,8.1-5.4,12.2-8c8.1-5.2,16.3-9.9,24.7-13.9c4.2-2,8.4-3.8,12.7-5.3
		c4.2-1.5,8.5-2.8,12.8-3.8c4.3-1,8.6-1.7,13-2.1c4.3-0.4,8.7-0.4,13-0.1c4.2,0.3,8.4,0.9,12.5,1.8c4.2,0.9,8.3,2,12.4,3.4
		c8.2,2.7,16.4,6.2,24.5,10c8,3.9,16.1,8.2,24,12.7c8,4.5,15.9,9.2,23.8,13.9c15.9,9.4,31.6,18.6,47.7,26.8
		c8,4.1,16.1,7.8,24.2,11.2c8.2,3.3,16.3,6.2,24.6,8.5c7.7,1.5,15.4,2.8,23.2,3.7c7.7,1,15.5,1.6,23.2,1.8
		c7.8,0.3,15.5,0.3,23.2-0.1c7.8-0.4,15.5-1.1,23.2-2.2c6.2-0.8,12.5-1.9,18.7-3.2c6.2-1.2,12.4-2.6,18.6-4.1
		c12.2-2.9,24.9-6.3,37.1-9.6c0.1,0,0.2,0,0.2-0.1"/>
	<path fill="none" stroke="#e5e7eb" stroke-miter-limit="10" d="M0,560.1c2.9-2.2,5.8-4.3,8.7-6.3c6.7-4.6,13.7-8.6,20.8-11.3
		c3.5-1.4,7.1-2.5,10.8-3.1c1.8-0.3,3.6-0.5,5.4-0.7c1.8-0.1,3.6-0.1,5.5,0c1.8,0.1,3.6,0.4,5.4,0.8c1.8,0.4,3.6,0.9,5.4,1.5
		c3.5,1.2,7.1,2.8,10.5,4.7c6.9,3.8,13.6,8.9,20,14.5c6.4,5.6,12.7,11.9,18.9,18.3c6.2,6.5,12.3,13.1,18.4,19.7
		c3.1,3.3,6.1,6.6,9.2,9.8c3.1,3.2,6.2,6.4,9.3,9.5c6.2,6.2,12.7,12.1,19.2,17.3c6.6,5.2,13.4,9.7,20.4,13c3.5,1.7,7,3,10.6,4
		c1.8,0.5,3.6,0.9,5.4,1.2c1.8,0.3,3.6,0.5,5.4,0.6c2.1,0.1,4.1,0.1,6.2,0c2.1-0.1,4.1-0.4,6.1-0.7c4.1-0.7,8.2-1.8,12.2-3.2
		c8-2.8,16-6.9,23.7-11.6c7.7-4.7,15.4-10.1,22.9-15.7c3.8-2.8,7.5-5.7,11.2-8.7c3.7-2.9,7.5-5.9,11.2-8.9c7.4-6,14.9-12,22.3-17.8
		c7.4-5.8,15-11.4,22.6-16.5c7.6-5,15.4-9.7,23.2-13.3c4-1.8,8-3.4,12.1-4.7c4.1-1.2,8.2-2.2,12.3-2.7c3.5-0.4,7-0.5,10.5-0.3
		c3.5,0.2,7,0.7,10.5,1.5c3.5,0.8,7,1.8,10.4,3c3.5,1.2,6.9,2.7,10.2,4.3c6.8,3.3,13.4,7.2,20,11.6s13,9.1,19.5,14
		c6.4,4.8,12.8,9.8,19.3,14.6c6.4,4.8,13,9.4,19.5,13.5c3.3,2,6.7,4,10,5.6c3.4,1.7,6.8,3.2,10.2,4.4c3.5,1.2,6.9,2.1,10.5,2.7
		s7,0.7,10.5,0.5c1.6-0.1,3.3-0.3,4.9-0.6c1.6-0.3,3.2-0.7,4.8-1.2c3.2-1,6.4-2.2,9.6-3.7c6.3-3,12.4-7,18.4-11.5
		c5.9-4.5,11.8-9.6,17.5-15c2.9-2.7,5.7-5.4,8.5-8.2c2.8-2.8,5.6-5.6,8.4-8.5c5.6-5.7,11.2-11.5,16.8-17.1c2.8-2.8,5.6-5.6,8.5-8.3
		c2.8-2.7,5.7-5.4,8.6-7.9c5.8-5.1,11.8-9.8,17.9-13.5c3.1-1.9,6.2-3.5,9.4-4.7c1.6-0.6,3.2-1.2,4.8-1.6c1.6-0.4,3.2-0.8,4.9-1
		c2.9-0.3,5.8-0.3,8.7,0.1c2.9,0.4,5.8,1.1,8.6,2.2c2.8,1,5.6,2.3,8.4,3.9c2.8,1.5,5.5,3.3,8.2,5.2c5.3,3.7,10.5,8.1,15.7,12.6
		c5.1,4.5,10.2,9.2,15.3,13.8c2.5,2.3,5.1,4.6,7.7,6.9c2.6,2.2,5.2,4.4,7.8,6.5c5.2,4.2,10.6,8,16.1,11.1c2.7,1.6,5.5,3,8.3,4.1
		s5.7,2.1,8.5,2.8c1.4,0.3,2.9,0.6,4.3,0.8c1.5,0.2,2.9,0.3,4.3,0.4c2.9,0.1,5.8,0,8.7-0.5c2-0.3,4.1-0.8,6.1-1.3c2-0.6,4-1.3,6-2
		c4-1.6,8-3.5,11.9-5.8c7.7-4.4,15.5-9.9,23-15.5c3.8-2.8,7.5-5.8,11.2-8.8c3.7-3,7.4-6,11.1-9c7.5-6.1,14.8-12,22.3-17.8
		c7.5-5.8,15.1-11.4,22.8-16.4s15.5-9.6,23.4-13.4c4-1.9,8-3.6,12-5c4-1.5,8.1-2.7,12.2-3.6c4.1-0.9,8.2-1.6,12.3-2
		c4.1-0.4,8.2-0.4,12.4-0.1c2.5,0.2,4.9,0.5,7.4,0.8c2.5,0.4,4.9,0.9,7.4,1.5c4.9,1.2,9.8,2.7,14.6,4.6c9.6,3.7,19.2,8.6,28.5,14.1
		c9.3,5.5,18.6,11.6,27.7,18c4.6,3.2,9.1,6.5,13.7,9.8c4.6,3.3,9.1,6.7,13.6,10c4.5,3.3,9.1,6.7,13.6,10c4.5,3.3,9.1,6.6,13.6,9.8
		c9.1,6.4,18.4,12.7,27.6,18.2c9.3,5.6,18.8,10.6,28.4,14.4c4.8,1.9,9.7,3.6,14.5,4.8c2.4,0.6,4.9,1.2,7.4,1.6
		c2.4,0.4,4.9,0.8,7.4,1c4.5,0.4,9,0.3,13.5-0.1c4.5-0.4,9-1.2,13.5-2.2c4.5-1.1,8.9-2.5,13.3-4.1c4.4-1.7,8.8-3.6,13.2-5.7
		c8.7-4.2,17.2-9.2,25.7-14.5c4.2-2.7,8.4-5.4,12.6-8.2c4.2-2.8,8.4-5.6,12.6-8.4c4.2-2.8,8.4-5.6,12.6-8.3c4.2-2.7,8.4-5.4,12.7-8
		c8.5-5.2,17.1-9.9,25.8-13.9c4.4-2,8.8-3.8,13.2-5.3c4.4-1.5,8.9-2.8,13.3-3.8c4.5-1,9-1.7,13.5-2.1c4.5-0.4,9-0.4,13.5-0.1
		c2.8,0.2,5.6,0.5,8.3,1c2.8,0.4,5.5,1,8.3,1.6c5.5,1.3,11,3,16.4,5c10.8,3.9,21.7,9,32.3,14.5c6.5,2.5,13,5.1,19.5,7.7
		c6.5,2.6,12.9,5.3,19.4,7.9c12.9,5.3,25.9,10.6,38.9,15.7c13,5.1,25.9,9.9,39,14.3c13.1,4.4,26.1,8.4,39.3,11.8
		c13.2,3.5,26.4,6.3,39.7,8.6c13.2,2.2,26.5,3.9,39.8,4.9c1.7,0.1,3.5,0.2,5.2,0.3"/>
	<path fill="none" stroke="#e5e7eb" stroke-miter-limit="10" d="M0,579.8c4.4-3.5,8.9-6.9,13.4-9.9c6.8-4.6,13.8-8.6,20.8-11.3
		c3.6-1.4,7.2-2.4,10.8-3.1c1.8-0.3,3.7-0.5,5.5-0.7c1.8-0.1,3.7-0.1,5.5,0c1.8,0.1,3.6,0.4,5.4,0.8c1.8,0.4,3.6,0.9,5.4,1.5
		c3.6,1.2,7.1,2.8,10.6,4.7c6.9,3.8,13.7,8.9,20.1,14.5c6.4,5.6,12.8,11.9,19,18.3c6.2,6.4,12.3,13.1,18.5,19.7
		c3.1,3.3,6.2,6.6,9.3,9.8c3.1,3.2,6.2,6.4,9.4,9.5c6.3,6.2,12.7,12.1,19.3,17.3c6.6,5.2,13.4,9.7,20.4,13c3.5,1.7,7.1,3,10.6,4
		c1.8,0.5,3.6,0.9,5.4,1.2s3.6,0.5,5.4,0.6c2.1,0.1,4.1,0.1,6.2,0c2.1-0.1,4.1-0.4,6.2-0.7c4.1-0.7,8.2-1.8,12.2-3.2
		c8-2.8,16.1-6.9,23.8-11.6c7.7-4.7,15.4-10.1,23-15.7c3.8-2.8,7.5-5.7,11.3-8.7c3.8-2.9,7.5-5.9,11.2-8.9c7.5-6,14.9-12,22.4-17.8
		c7.5-5.8,15.1-11.4,22.7-16.5c7.6-5,15.4-9.7,23.3-13.3c4-1.8,8-3.4,12.1-4.7s8.2-2.2,12.3-2.7c3.5-0.4,7.1-0.5,10.6-0.3
		c3.5,0.2,7.1,0.7,10.6,1.5c3.5,0.8,7,1.8,10.5,3c3.5,1.2,6.9,2.7,10.3,4.3c6.8,3.3,13.5,7.2,20.1,11.6s13.1,9.1,19.6,14
		c6.5,4.8,12.9,9.8,19.4,14.6c6.4,4.8,13,9.4,19.7,13.4c3.3,2,6.7,3.9,10.1,5.6c3.4,1.7,6.8,3.2,10.3,4.4c3.5,1.2,7,2.1,10.5,2.7
		c3.5,0.5,7.1,0.7,10.6,0.5c1.6-0.1,3.3-0.3,4.9-0.6c1.6-0.3,3.2-0.7,4.9-1.2c3.2-1,6.4-2.2,9.6-3.7c6.3-3,12.5-7,18.5-11.5
		c6-4.5,11.9-9.6,17.6-15c2.9-2.7,5.7-5.4,8.6-8.2c2.8-2.8,5.7-5.6,8.5-8.5c5.6-5.7,11.3-11.5,16.9-17.1c2.8-2.8,5.7-5.6,8.5-8.3
		c2.9-2.7,5.8-5.4,8.7-7.9c5.8-5,11.9-9.8,18.1-13.5c3.1-1.8,6.3-3.5,9.5-4.7c1.6-0.6,3.2-1.2,4.8-1.6c1.6-0.4,3.3-0.8,4.9-1
		c2.9-0.4,5.8-0.3,8.7,0c2.9,0.4,5.8,1.1,8.7,2.2c2.8,1,5.7,2.3,8.4,3.9c2.8,1.5,5.5,3.3,8.2,5.2c5.3,3.7,10.6,8.1,15.8,12.6
		c5.2,4.5,10.3,9.2,15.4,13.9c2.6,2.3,5.2,4.6,7.8,6.9c2.6,2.2,5.2,4.4,7.8,6.5c5.3,4.2,10.7,8,16.2,11.1c2.8,1.5,5.6,2.9,8.4,4.1
		c2.8,1.2,5.7,2.1,8.6,2.8c1.4,0.3,2.9,0.6,4.3,0.8c1.5,0.2,2.9,0.3,4.4,0.4c2.9,0.1,5.8,0,8.7-0.5c2.1-0.3,4.1-0.8,6.2-1.3
		c2-0.6,4.1-1.3,6.1-2c4-1.6,8-3.5,12-5.8c7.8-4.4,15.7-9.9,23.2-15.5c3.8-2.8,7.6-5.8,11.3-8.8c3.8-3,7.5-6,11.2-9
		c7.5-6.1,14.9-12,22.5-17.8c7.6-5.8,15.2-11.4,23-16.4c7.8-5,15.6-9.6,23.6-13.4c4-1.9,8-3.6,12.1-5c4.1-1.5,8.2-2.7,12.3-3.6
		c4.1-1,8.3-1.6,12.4-2c4.2-0.4,8.3-0.4,12.4-0.1c2.5,0.2,5,0.5,7.4,0.8c2.5,0.4,5,0.9,7.4,1.5c4.9,1.2,9.8,2.7,14.7,4.6
		c9.7,3.7,19.3,8.6,28.7,14.1c9.4,5.5,18.8,11.6,27.9,18c4.6,3.2,9.2,6.5,13.8,9.8c4.6,3.3,9.2,6.7,13.7,10c4.6,3.3,9.2,6.7,13.8,10
		c4.6,3.3,9.2,6.6,13.8,9.8c9.2,6.4,18.5,12.6,27.9,18.2c9.4,5.6,19,10.6,28.7,14.4c4.8,1.9,9.8,3.5,14.7,4.8
		c2.5,0.6,4.9,1.2,7.4,1.6c2.5,0.4,5,0.8,7.4,1c4.6,0.4,9.1,0.3,13.7-0.1c4.6-0.4,9.1-1.2,13.6-2.2c4.5-1.1,9-2.5,13.5-4.1
		c4.4-1.7,8.9-3.6,13.3-5.7c8.8-4.2,17.4-9.2,26-14.5c4.3-2.7,8.5-5.4,12.8-8.2c4.2-2.8,8.5-5.6,12.7-8.4c4.3-2.8,8.5-5.6,12.8-8.3
		c4.2-2.7,8.5-5.4,12.8-8c8.6-5.2,17.3-9.9,26.1-13.9c4.4-2,8.8-3.8,13.3-5.3c4.5-1.5,8.9-2.8,13.5-3.8c4.5-1,9.1-1.7,13.6-2.1
		c4.6-0.4,9.1-0.4,13.7-0.1c2.7,0.2,5.4,0.5,8.1,0.9c2.7,0.4,5.4,0.9,8.1,1.5c5.4,1.2,10.7,2.8,16,4.7c8,2.1,16,4.5,23.9,7.2
		c7.9,2.6,15.9,5.5,23.8,8.5c7.9,3,15.8,6,23.7,9.1c7.9,3.1,15.8,6.2,23.7,9.3c16,6.3,31.4,12.3,47.4,18
		c15.9,5.7,31.7,10.8,47.8,15.3c16.1,4.5,32.1,8.3,48.3,11.3c6.8,1.3,13.6,2.4,20.5,3.3"/>
	<path fill="none" stroke="#e5e7eb" stroke-miter-limit="10" d="M0,540.6c1.4-1,2.8-2,4.2-2.9c6.7-4.6,13.7-8.6,20.7-11.3c3.5-1.4,7.1-2.5,10.7-3.1
		c1.8-0.3,3.6-0.5,5.4-0.7c1.8-0.1,3.6-0.1,5.4,0c1.8,0.1,3.6,0.4,5.4,0.8c1.8,0.4,3.6,0.9,5.3,1.5c3.5,1.2,7,2.8,10.5,4.7
		c6.8,3.8,13.5,8.9,20,14.5c6.4,5.6,12.7,11.9,18.8,18.3c6.2,6.4,12.2,13.1,18.3,19.7c3,3.3,6.1,6.6,9.2,9.8s6.2,6.4,9.3,9.5
		c6.2,6.2,12.6,12.1,19.2,17.3c6.6,5.2,13.3,9.7,20.3,13c3.5,1.7,7,3,10.6,4c1.8,0.5,3.6,0.9,5.4,1.2c1.8,0.3,3.6,0.5,5.4,0.6
		c2.1,0.1,4.1,0.1,6.2,0c2-0.1,4.1-0.4,6.1-0.7c4.1-0.7,8.1-1.8,12.1-3.2c8-2.8,15.9-6.9,23.6-11.6c7.7-4.7,15.3-10.1,22.8-15.7
		c3.8-2.8,7.5-5.7,11.2-8.7c3.7-2.9,7.4-5.9,11.1-8.9c7.4-6,14.8-12,22.2-17.8c7.4-5.8,14.9-11.4,22.5-16.5
		c7.5-5,15.3-9.7,23.1-13.3c4-1.8,8-3.4,12-4.7c4-1.3,8.1-2.2,12.2-2.7c3.5-0.4,7-0.5,10.5-0.3c3.5,0.2,7,0.7,10.5,1.5
		c3.5,0.8,6.9,1.8,10.4,3c3.4,1.2,6.8,2.7,10.2,4.4c6.7,3.3,13.3,7.2,19.9,11.6c6.5,4.3,13,9.1,19.4,14c6.4,4.8,12.8,9.8,19.2,14.6
		c6.4,4.8,12.9,9.4,19.4,13.5c3.3,2,6.6,3.9,10,5.6c3.4,1.7,6.8,3.2,10.2,4.4c3.4,1.2,6.9,2.1,10.4,2.7c3.5,0.5,7,0.7,10.5,0.5
		c1.6-0.1,3.2-0.3,4.9-0.6c1.6-0.3,3.2-0.7,4.8-1.2c3.2-1,6.4-2.2,9.5-3.7c6.2-3,12.4-7,18.3-11.5c5.9-4.5,11.7-9.7,17.4-15
		c2.9-2.7,5.7-5.4,8.5-8.2c2.8-2.8,5.6-5.6,8.4-8.5c5.6-5.7,11.1-11.5,16.7-17.1c2.8-2.8,5.6-5.6,8.4-8.3c2.8-2.7,5.7-5.4,8.6-7.9
		c5.7-5,11.8-9.8,17.8-13.5c3.1-1.9,6.2-3.5,9.3-4.8c1.6-0.6,3.2-1.2,4.8-1.6c1.6-0.4,3.2-0.8,4.8-1c2.9-0.3,5.8-0.3,8.6,0.1
		c2.9,0.4,5.7,1.1,8.5,2.2c2.8,1,5.6,2.3,8.3,3.9c2.7,1.5,5.4,3.3,8.1,5.1c5.3,3.7,10.5,8.1,15.5,12.6c5.1,4.5,10.1,9.2,15.2,13.8
		c2.5,2.3,5.1,4.6,7.6,6.9c2.6,2.2,5.1,4.4,7.7,6.5c5.2,4.2,10.5,8,15.9,11.1c2.7,1.6,5.5,3,8.3,4.1s5.6,2.1,8.5,2.8
		c1.4,0.4,2.9,0.6,4.3,0.8c1.4,0.2,2.9,0.3,4.3,0.4c2.9,0.1,5.8,0,8.6-0.5c2-0.3,4.1-0.8,6.1-1.3c2-0.6,4-1.3,6-2
		c4-1.6,7.9-3.5,11.8-5.8c7.7-4.4,15.4-9.9,22.8-15.5c3.7-2.8,7.4-5.8,11.1-8.7c3.7-3,7.4-6,11-9c7.4-6.1,14.7-12,22.1-17.8
		c7.5-5.8,15-11.4,22.6-16.4c7.6-5.1,15.4-9.6,23.2-13.4c3.9-1.9,7.9-3.6,11.9-5c4-1.5,8-2.7,12.1-3.6s8.1-1.6,12.2-2
		c4.1-0.4,8.2-0.4,12.3-0.1c2.4,0.2,4.9,0.5,7.3,0.8c2.5,0.4,4.9,0.9,7.3,1.5c4.9,1.2,9.7,2.7,14.4,4.6c9.5,3.7,19,8.6,28.2,14.1
		c9.2,5.5,18.4,11.6,27.4,18c4.5,3.2,9,6.5,13.5,9.8c4.5,3.3,9,6.7,13.5,10c4.5,3.3,9,6.7,13.5,10c4.5,3.3,9,6.6,13.5,9.8
		c9,6.4,18.2,12.7,27.3,18.2c9.2,5.5,18.7,10.6,28.2,14.4c4.8,1.9,9.6,3.6,14.4,4.8c2.4,0.6,4.8,1.2,7.3,1.6s4.9,0.8,7.3,1
		c4.5,0.4,8.9,0.3,13.4-0.1c4.5-0.4,8.9-1.2,13.3-2.2c4.4-1.1,8.8-2.5,13.2-4.1s8.7-3.6,13-5.7c8.6-4.2,17-9.2,25.4-14.5
		c4.2-2.7,8.3-5.4,12.5-8.2c4.2-2.8,8.3-5.6,12.5-8.4c4.1-2.8,8.3-5.6,12.5-8.3c4.2-2.7,8.4-5.4,12.6-8c8.4-5.2,16.9-9.9,25.5-13.9
		c4.3-2,8.7-3.8,13-5.3c4.4-1.5,8.8-2.8,13.2-3.8c4.4-1,8.9-1.7,13.3-2.1c4.5-0.4,8.9-0.4,13.4-0.1c4.2,0.3,8.4,0.9,12.6,1.7
		c4.2,0.8,8.4,2,12.5,3.2c8.3,2.6,16.6,5.9,24.7,9.7c8.1,3.7,16.3,8,24.3,12.3c4,2.2,8,4.4,12,6.7c4,2.3,8,4.5,12,6.8
		c21.1,9,41.2,17.4,62.5,25.1c10.5,3.8,20.9,7.3,31.5,10.5c10.6,3.2,21.1,6,31.7,8.4c10.6,2.4,21.3,4.4,31.9,5.9
		c10.7,1.5,21.3,2.6,32,3.2c10.7,0.6,21.4,0.7,32.1,0.4c0.2,0,0.4,0,0.6,0"/>
	<path fill="none" stroke="#e5e7eb" stroke-miter-limit="10" d="M0,521.4c6.6-4.5,13.5-8.5,20.5-11.2c3.5-1.4,7.1-2.5,10.7-3.1
		c1.8-0.3,3.6-0.5,5.4-0.7c1.8-0.1,3.6-0.1,5.4,0c1.8,0.1,3.6,0.4,5.4,0.8c1.8,0.4,3.6,0.9,5.3,1.5c3.5,1.2,7,2.8,10.5,4.7
		c6.8,3.8,13.5,8.9,19.9,14.5c6.4,5.6,12.7,11.9,18.8,18.3c6.1,6.4,12.2,13.1,18.3,19.7c3,3.3,6.1,6.6,9.2,9.8
		c3.1,3.2,6.1,6.4,9.3,9.5c6.2,6.2,12.6,12.1,19.1,17.3c6.5,5.2,13.3,9.7,20.2,13c3.5,1.7,7,3,10.6,4c1.8,0.5,3.6,0.9,5.4,1.2
		c1.8,0.3,3.6,0.5,5.4,0.7c2.1,0.1,4.1,0.1,6.1,0c2-0.1,4.1-0.4,6.1-0.7c4.1-0.7,8.1-1.8,12.1-3.2c8-2.8,15.9-6.9,23.5-11.6
		c7.6-4.7,15.2-10.1,22.6-15.7c3.7-2.8,7.4-5.7,11.1-8.7c3.7-2.9,7.4-5.9,11.1-8.9c7.4-6,14.7-12,22.1-17.8
		c7.4-5.8,14.9-11.4,22.4-16.5c7.5-5,15.2-9.7,23-13.3c3.9-1.8,7.9-3.4,12-4.7c4-1.3,8.1-2.2,12.2-2.7c3.5-0.4,7-0.5,10.5-0.3
		c3.5,0.2,7,0.7,10.4,1.5c3.5,0.8,6.9,1.8,10.3,3s6.8,2.7,10.1,4.3c6.7,3.3,13.3,7.2,19.8,11.6c6.5,4.3,12.9,9.1,19.2,14
		c6.4,4.8,12.7,9.8,19.1,14.6c6.3,4.8,12.8,9.4,19.3,13.5c3.3,2,6.6,3.9,10,5.6c3.3,1.7,6.7,3.2,10.1,4.4c3.4,1.2,6.9,2.1,10.3,2.7
		s7,0.7,10.5,0.5c1.6-0.1,3.2-0.3,4.8-0.7c1.6-0.3,3.2-0.7,4.8-1.2c3.2-0.9,6.3-2.2,9.5-3.7c6.2-3,12.3-7,18.2-11.5
		c5.8-4.5,11.7-9.6,17.3-15c2.8-2.7,5.6-5.4,8.4-8.2s5.6-5.6,8.3-8.5c5.5-5.7,11-11.5,16.6-17.1c2.8-2.8,5.6-5.6,8.4-8.3
		c2.8-2.7,5.7-5.4,8.5-7.9c5.7-5,11.7-9.8,17.7-13.5c3-1.9,6.2-3.5,9.3-4.8c1.6-0.6,3.2-1.2,4.8-1.6c1.6-0.4,3.2-0.8,4.8-1
		c2.9-0.3,5.7-0.3,8.6,0.1c2.9,0.4,5.7,1.1,8.5,2.2c2.8,1,5.6,2.3,8.3,3.9c2.7,1.5,5.4,3.3,8,5.2c5.2,3.7,10.4,8.1,15.4,12.6
		c5,4.5,10,9.2,15.1,13.8c2.5,2.3,5,4.6,7.6,6.8c2.5,2.2,5.1,4.4,7.7,6.5c5.2,4.2,10.4,8,15.8,11.1c2.7,1.6,5.5,3,8.2,4.1
		c2.8,1.2,5.6,2.1,8.4,2.8c1.4,0.3,2.8,0.6,4.3,0.8s2.9,0.3,4.3,0.4c2.9,0.1,5.7,0,8.6-0.5c2-0.3,4-0.8,6-1.3c2-0.6,4-1.3,6-2
		c3.9-1.6,7.8-3.5,11.7-5.8c7.6-4.4,15.3-9.8,22.6-15.5c3.7-2.8,7.4-5.8,11-8.7c3.7-3,7.3-6,11-9c7.3-6.1,14.5-12,21.9-17.8
		c7.4-5.8,14.8-11.4,22.4-16.4c7.6-5.1,15.3-9.6,23.1-13.4c3.9-1.9,7.8-3.6,11.8-5c4-1.5,8-2.7,12-3.6c4-1,8.1-1.6,12.1-2
		c4.1-0.4,8.1-0.4,12.2-0.1c2.4,0.2,4.8,0.5,7.3,0.8c2.4,0.4,4.8,0.9,7.2,1.5c4.8,1.2,9.6,2.7,14.3,4.6c9.4,3.7,18.8,8.6,28,14
		c9.1,5.5,18.2,11.6,27.1,18c4.5,3.2,8.9,6.5,13.4,9.8c4.4,3.3,8.9,6.6,13.3,10c8.9,6.7,17.8,13.4,26.7,19.8
		c8.9,6.4,18,12.7,27.1,18.2c9.1,5.6,18.5,10.6,27.9,14.5c4.7,1.9,9.5,3.6,14.3,4.8c2.4,0.6,4.8,1.2,7.2,1.6c2.4,0.4,4.8,0.8,7.3,1
		c4.4,0.4,8.8,0.3,13.3-0.1c4.4-0.4,8.8-1.2,13.2-2.2c4.4-1.1,8.7-2.5,13.1-4.1c4.3-1.7,8.6-3.6,12.9-5.7
		c8.5-4.2,16.8-9.2,25.1-14.5c4.2-2.7,8.3-5.4,12.4-8.2c4.1-2.8,8.2-5.6,12.3-8.4c4.1-2.8,8.2-5.6,12.3-8.3c4.1-2.7,8.3-5.4,12.4-8
		c8.3-5.2,16.7-9.9,25.2-13.9c4.3-2,8.6-3.8,12.9-5.3c4.3-1.5,8.7-2.8,13.1-3.8c4.4-1,8.8-1.7,13.2-2.1c4.4-0.4,8.8-0.4,13.3-0.1
		c2.8,0.2,5.6,0.5,8.4,1c2.8,0.5,5.6,1,8.4,1.7c5.6,1.4,11.2,3.2,16.7,5.2c10.9,4.1,22,9.5,32.7,15.2c5.4,2.9,10.8,5.8,16.1,8.9
		c5.3,3,10.7,6.1,16,9.2c5.3,3.1,10.7,6.2,16.1,9.2c5.3,3,10.7,6.1,16.1,9c16.2,6.5,32.3,12.4,48.7,17.4c16.4,5,32.7,9.1,49.2,12
		c8.2,1.5,16.5,2.6,24.8,3.5c8.3,0.9,16.5,1.4,24.8,1.6c8.3,0.2,16.6,0.2,24.8-0.2c8.3-0.4,16.6-1.1,24.8-2.1
		c2.3-0.3,4.6-0.6,6.9-0.9"/>
	<path fill="none" stroke="#e5e7eb" stroke-miter-limit="10" d="M0,465.8c2.8-1.5,5.6-2.8,8.4-3.9c3.5-1.4,7.1-2.5,10.6-3.1c1.8-0.3,3.6-0.5,5.4-0.7
		c1.8-0.1,3.6-0.1,5.4,0c1.8,0.1,3.6,0.4,5.3,0.8c1.8,0.4,3.5,0.9,5.3,1.5c3.5,1.2,7,2.8,10.4,4.7c6.8,3.8,13.4,8.9,19.7,14.5
		c6.3,5.6,12.5,11.9,18.6,18.2c6.1,6.4,12.1,13.1,18.1,19.7c3,3.3,6,6.6,9.1,9.8c3,3.2,6.1,6.4,9.2,9.5c6.1,6.2,12.5,12.1,18.9,17.3
		c6.5,5.2,13.2,9.7,20.1,13.1c3.4,1.7,6.9,3,10.5,4c1.8,0.5,3.5,0.9,5.3,1.2c1.8,0.3,3.6,0.5,5.4,0.7c2,0.1,4.1,0.1,6.1,0
		s4-0.4,6-0.7c4-0.7,8-1.8,12-3.2c7.9-2.8,15.7-6.9,23.3-11.6c7.5-4.7,15.1-10.1,22.4-15.7c3.7-2.8,7.4-5.7,11-8.6s7.3-5.9,10.9-8.9
		c7.3-6,14.5-12,21.9-17.8c7.3-5.8,14.7-11.4,22.1-16.5c7.4-5.1,15-9.7,22.7-13.3c3.9-1.8,7.9-3.4,11.8-4.7c4-1.3,8-2.2,12-2.7
		c3.4-0.4,6.9-0.5,10.3-0.3c3.5,0.2,6.9,0.7,10.3,1.5c3.4,0.8,6.8,1.8,10.2,3c3.4,1.2,6.7,2.7,10,4.4c6.6,3.3,13.1,7.2,19.5,11.6
		c6.4,4.3,12.7,9.1,19,14c6.3,4.8,12.5,9.8,18.8,14.6c6.2,4.7,12.6,9.4,19,13.4c6.5,4.1,13.1,7.6,19.8,10c3.4,1.2,6.8,2.1,10.2,2.7
		c3.4,0.5,6.9,0.7,10.3,0.5c1.6-0.1,3.2-0.3,4.8-0.7c1.6-0.3,3.2-0.7,4.7-1.2c3.1-0.9,6.2-2.2,9.3-3.7c6.1-3,12.1-7,17.9-11.6
		c5.8-4.5,11.4-9.6,17-15c2.8-2.7,5.5-5.4,8.3-8.2c2.7-2.8,5.5-5.6,8.2-8.5c5.4-5.7,10.8-11.4,16.3-17.1c2.7-2.8,5.5-5.6,8.2-8.3
		c2.8-2.7,5.5-5.4,8.3-7.9c5.6-5.1,11.5-9.8,17.4-13.5c3-1.9,6.1-3.5,9.2-4.8c1.5-0.6,3.1-1.2,4.7-1.6c1.6-0.4,3.2-0.8,4.8-1
		c2.8-0.3,5.6-0.3,8.4,0.1c2.8,0.4,5.6,1.1,8.3,2.2c2.7,1,5.5,2.3,8.1,3.9c2.7,1.5,5.3,3.3,7.9,5.1c5.1,3.7,10.2,8.1,15.1,12.5
		c5,4.5,9.8,9.2,14.8,13.8c2.5,2.3,4.9,4.6,7.4,6.8c2.5,2.2,5,4.4,7.5,6.5c5,4.2,10.2,8,15.5,11.1c2.7,1.6,5.4,3,8.1,4.1
		c2.7,1.2,5.5,2.1,8.3,2.8c1.4,0.3,2.8,0.6,4.2,0.8c1.4,0.2,2.8,0.4,4.2,0.4c2.8,0.1,5.6,0,8.4-0.5c2-0.3,3.9-0.8,5.9-1.3
		c2-0.6,3.9-1.3,5.8-2c3.8-1.6,7.7-3.5,11.4-5.8c7.4-4.3,14.9-9.8,22-15.4c3.6-2.8,7.2-5.8,10.7-8.7c3.6-3,7.1-6,10.7-9
		c7.2-6,14.2-12,21.4-17.8c7.2-5.8,14.5-11.4,21.9-16.4c7.4-5.1,14.9-9.7,22.5-13.4c3.8-1.9,7.7-3.6,11.6-5.1
		c3.9-1.5,7.8-2.7,11.7-3.7c4-1,7.9-1.6,11.9-2s8-0.4,11.9-0.1c2.4,0.2,4.7,0.4,7.1,0.8c2.4,0.4,4.7,0.9,7.1,1.5
		c4.7,1.2,9.3,2.8,14,4.6c9.2,3.7,18.3,8.6,27.2,14c8.9,5.4,17.7,11.6,26.4,17.9c4.3,3.2,8.7,6.5,13,9.8c4.3,3.3,8.6,6.6,12.9,10
		c8.6,6.7,17.3,13.4,25.9,19.8c8.7,6.4,17.5,12.7,26.3,18.2c8.9,5.6,18,10.6,27.1,14.5c4.6,1.9,9.2,3.6,13.9,4.9
		c2.3,0.6,4.7,1.2,7,1.6c2.3,0.4,4.7,0.8,7.1,1c4.3,0.4,8.6,0.3,12.9-0.1c4.3-0.4,8.6-1.2,12.8-2.2c4.2-1.1,8.5-2.5,12.7-4.1
		c4.2-1.7,8.4-3.6,12.5-5.7c8.2-4.2,16.3-9.2,24.3-14.5c4-2.7,8-5.4,12-8.2c4-2.8,8-5.6,11.9-8.4c4-2.8,7.9-5.6,11.9-8.3
		c4-2.7,8-5.4,12-8c8.1-5.2,16.2-9.9,24.4-13.9c4.1-2,8.3-3.8,12.5-5.3c4.2-1.5,8.4-2.9,12.7-3.9c4.3-1,8.5-1.7,12.8-2.1
		c4.3-0.4,8.6-0.4,12.9-0.1c2.4,0.2,4.8,0.5,7.2,0.8c2.4,0.4,4.8,0.9,7.2,1.4c4.8,1.1,9.6,2.6,14.3,4.3c9.4,3.4,18.9,7.8,28.1,12.7
		c9.2,4.8,18.5,10.2,27.6,15.5c9.1,5.4,18.3,10.9,27.4,16.3c9.2,5.4,18.3,10.6,27.6,15.5c9.2,4.9,18.6,9.4,28,13.2
		c9.4,3.9,18.9,7.2,28.5,9.6c4.8,1.2,9.6,2.2,14.4,3c4.8,0.8,9.6,1.3,14.5,1.5c7.4,0.3,14.7,0.2,22.1-0.2c7.4-0.4,14.7-1.1,22.1-2.2
		c6.6-0.9,13.2-2.2,19.8-3.6c6.6-1.4,13.2-3,19.7-4.7c12.9-3.3,26.5-7.3,39.3-11c8.8-2.5,17.5-5.1,26.3-7.5"/>
	<path fill="none" stroke="#e5e7eb" stroke-miter-limit="10" d="M0,310.3c1.1,0,2.2,0,3.2,0.1c1.8,0.1,3.5,0.4,5.2,0.8s3.5,0.9,5.2,1.5
		c3.4,1.2,6.8,2.8,10.2,4.7c6.6,3.8,13.1,8.9,19.3,14.5c6.2,5.6,12.2,11.8,18.1,18.2c5.9,6.4,11.8,13,17.6,19.6
		c2.9,3.3,5.9,6.6,8.8,9.8c3,3.2,5.9,6.4,8.9,9.5c6,6.2,12.2,12.1,18.4,17.3c6.3,5.2,12.9,9.8,19.6,13.1c3.4,1.7,6.8,3,10.3,4.1
		c1.7,0.5,3.5,0.9,5.2,1.2c1.7,0.3,3.5,0.5,5.2,0.6c2,0.1,3.9,0.1,5.9,0c2-0.1,3.9-0.4,5.9-0.7c3.9-0.7,7.8-1.8,11.7-3.2
		c7.7-2.8,15.3-6.9,22.7-11.6c7.3-4.7,14.6-10.1,21.8-15.7c3.6-2.8,7.1-5.7,10.7-8.6c3.5-2.9,7.1-5.9,10.6-8.9
		c7.1-5.9,14.1-11.9,21.2-17.7c7-5.7,14.2-11.4,21.5-16.5c7.2-5.1,14.6-9.7,22.1-13.4c3.8-1.9,7.7-3.5,11.5-4.7
		c3.9-1.3,7.8-2.2,11.8-2.7c3.3-0.4,6.7-0.5,10-0.3s6.7,0.7,10,1.5s6.6,1.8,9.9,3c3.2,1.2,6.5,2.7,9.7,4.4
		c6.4,3.3,12.6,7.2,18.8,11.6c6.1,4.3,12.2,9.1,18.3,13.9c6,4.8,12,9.8,18,14.5c6,4.7,12.2,9.4,18.3,13.5
		c6.2,4.1,12.6,7.7,19.1,10.1c3.3,1.2,6.6,2.2,9.9,2.7c1.6,0.3,3.3,0.5,5,0.5c1.7,0.1,3.3,0.1,5-0.1c1.5-0.1,3.1-0.3,4.6-0.7
		c1.5-0.3,3-0.7,4.6-1.2c3-1,6-2.2,9-3.7c5.9-3,11.6-7,17.2-11.6c5.5-4.5,11-9.6,16.2-14.9s10.5-11,15.7-16.6
		c5.2-5.7,10.3-11.4,15.5-17c2.6-2.8,5.2-5.6,7.8-8.3c2.6-2.7,5.3-5.3,8-7.9c5.3-5,11-9.9,16.7-13.6c2.9-1.9,5.8-3.5,8.8-4.8
		c1.5-0.6,3-1.2,4.5-1.6c1.5-0.4,3-0.8,4.6-1c2.7-0.4,5.4-0.3,8.1,0.1c2.7,0.4,5.3,1.1,8,2.2c2.6,1,5.2,2.4,7.7,3.9
		c2.5,1.5,5,3.3,7.5,5.1c4.8,3.7,9.6,8,14.3,12.5c4.7,4.5,9.3,9.1,13.9,13.7c2.3,2.3,4.7,4.6,7,6.8c2.3,2.2,4.7,4.4,7.1,6.5
		c4.8,4.2,9.7,8,14.7,11.2c2.5,1.6,5.1,3,7.7,4.2c2.6,1.2,5.2,2.2,7.9,2.9c1.3,0.4,2.7,0.7,4,0.9c1.3,0.2,2.7,0.4,4,0.4
		c2.7,0.2,5.4,0,8.1-0.4c1.9-0.3,3.7-0.8,5.6-1.3c1.8-0.6,3.7-1.3,5.5-2.1c3.7-1.6,7.3-3.6,10.8-5.8c7-4.3,13.9-9.7,20.6-15.2
		c3.3-2.8,6.7-5.7,10.1-8.6c3.3-2.9,6.7-5.9,10-8.9c6.7-6,13.2-11.9,20-17.7c6.7-5.8,13.6-11.4,20.5-16.4c6.9-5.1,14-9.7,21.2-13.6
		c3.6-1.9,7.2-3.7,10.9-5.2c3.7-1.5,7.4-2.8,11.1-3.7c3.7-1,7.5-1.7,11.2-2.1s7.5-0.5,11.3-0.2c2.2,0.2,4.4,0.5,6.6,0.9
		c2.2,0.4,4.4,0.9,6.6,1.5c4.4,1.2,8.7,2.7,13,4.6c8.5,3.7,17,8.6,25.3,14c8.2,5.4,16.4,11.5,24.4,17.9c4,3.2,8,6.4,12,9.7
		c4,3.3,8,6.6,12,9.9c8,6.6,15.9,13.3,23.9,19.7c8,6.4,16.1,12.7,24.3,18.2c8.2,5.6,16.7,10.7,25.2,14.6c4.3,2,8.6,3.7,12.9,5
		c2.2,0.7,4.4,1.2,6.6,1.7c2.2,0.5,4.4,0.8,6.6,1c4,0.4,7.9,0.3,11.9-0.1c4-0.4,7.9-1.2,11.8-2.3c3.9-1.1,7.8-2.5,11.6-4.1
		c3.8-1.7,7.7-3.6,11.4-5.7c7.5-4.2,14.9-9.1,22.2-14.4c3.7-2.6,7.3-5.3,10.9-8.1c3.6-2.8,7.2-5.5,10.8-8.3
		c3.6-2.8,7.2-5.5,10.8-8.3c3.6-2.7,7.2-5.4,10.9-8c7.3-5.1,14.7-9.9,22.3-14c3.8-2,7.6-3.8,11.4-5.4c3.9-1.6,7.8-2.9,11.7-3.9
		c3.9-1,7.8-1.8,11.8-2.1c4-0.4,7.9-0.4,11.9-0.1c2.5,0.2,5,0.5,7.5,1c2.5,0.5,5,1.1,7.5,1.8c4.9,1.4,9.9,3.2,14.8,5.3
		c9.6,4.1,19.2,9.4,28.6,15.1c4.7,2.8,9.4,5.8,14.1,8.8c4.7,3,9.3,6.1,14,9.1c4.7,3.1,9.3,6.1,14,9.2c4.7,3,9.3,6,14,8.9
		c9.4,5.9,19,11.4,28.6,16.3c9.6,4.9,19.4,9.1,29.2,12.3c4.9,1.6,9.9,2.9,14.9,4c5,1,10,1.7,15,2.1c5,0.4,10,0.4,15,0
		c5.1-0.3,10.1-1.1,15.1-2.2c5.3-1.2,10.5-2.9,15.7-4.8c5.2-1.9,10.4-4.1,15.5-6.5c5.1-2.4,10.3-4.9,15.3-7.4
		c5.1-2.6,10.2-5.2,15.3-7.7c10.3-5.2,20.3-9.9,30.8-14.1c5.2-2.1,10.4-4,15.6-5.7c5.2-1.7,10.5-3.1,15.7-4.3
		c5.3-1.2,10.6-2.1,16-2.8c5.3-0.7,10.7-1,16-1.1c5.3-0.1,10.7,0.1,16,0.6c5.4,0.5,10.7,1.2,16,2.3c10.6,2.1,21.2,5.2,31.6,9.3
		c6.1,2.4,12.1,5.1,18.1,8.1"/>
	<path fill="none" stroke="#e5e7eb" stroke-miter-limit="10" d="M0,197.5c1.1,0.3,2.3,0.6,3.4,1c3.4,1.2,6.8,2.8,10.1,4.7c6.6,3.8,13,8.9,19.1,14.5
		c6.1,5.6,12.1,11.8,17.9,18.2c5.9,6.4,11.7,13,17.4,19.6c2.9,3.3,5.8,6.6,8.7,9.8s5.9,6.4,8.8,9.5c5.9,6.2,12,12.1,18.2,17.3
		c6.3,5.2,12.8,9.8,19.4,13.2c3.3,1.7,6.7,3.1,10.2,4.1c1.7,0.5,3.4,0.9,5.2,1.2c1.7,0.3,3.5,0.5,5.2,0.6c1.9,0.1,3.9,0.1,5.9,0
		c1.9-0.1,3.9-0.4,5.8-0.7c3.9-0.7,7.7-1.8,11.6-3.2c7.6-2.8,15.1-6.9,22.4-11.6c7.2-4.6,14.4-10,21.4-15.6c3.5-2.8,7-5.7,10.5-8.6
		c3.5-2.9,7-5.9,10.5-8.9c7-5.9,13.9-11.9,20.9-17.7c6.9-5.8,14-11.4,21.1-16.5c7.1-5.1,14.4-9.7,21.8-13.4
		c3.8-1.9,7.5-3.5,11.4-4.8c3.8-1.3,7.7-2.2,11.6-2.7c3.3-0.4,6.5-0.5,9.8-0.3c3.3,0.2,6.6,0.7,9.8,1.5c3.2,0.8,6.5,1.8,9.7,3
		c3.2,1.2,6.4,2.7,9.5,4.4c6.3,3.3,12.4,7.2,18.4,11.6c6,4.3,12,9.1,17.9,13.9c5.9,4.8,11.8,9.7,17.7,14.5c5.9,4.7,11.9,9.4,18,13.5
		c6.1,4.1,12.4,7.7,18.8,10.1c3.2,1.2,6.5,2.2,9.7,2.7c1.6,0.3,3.3,0.5,4.9,0.6c1.6,0.1,3.3,0.1,4.9-0.1c1.5-0.1,3-0.4,4.5-0.6
		c1.5-0.3,3-0.7,4.5-1.2c3-1,5.9-2.2,8.8-3.7c5.8-3,11.4-7,16.8-11.6c5.4-4.5,10.7-9.6,15.9-14.9c5.2-5.3,10.3-10.9,15.3-16.6
		c5-5.6,10-11.4,15.1-16.9c2.5-2.8,5.1-5.6,7.6-8.3c2.6-2.7,5.2-5.4,7.8-7.9c5.2-5.1,10.7-9.9,16.3-13.6c2.8-1.9,5.7-3.6,8.6-4.9
		c1.5-0.6,2.9-1.2,4.4-1.6c1.5-0.5,3-0.8,4.5-1c2.6-0.4,5.2-0.3,7.8,0c2.6,0.4,5.2,1.1,7.8,2.2c2.5,1,5.1,2.3,7.5,3.9
		s4.9,3.3,7.3,5.1c4.7,3.7,9.3,8,13.8,12.4c4.5,4.5,9,9.1,13.5,13.6c2.2,2.3,4.5,4.5,6.8,6.8c2.3,2.2,4.5,4.4,6.9,6.5
		c4.6,4.2,9.4,8,14.2,11.2c2.5,1.6,5,3,7.5,4.2c2.5,1.2,5.1,2.2,7.7,2.9c1.3,0.4,2.6,0.6,3.9,0.9c1.3,0.2,2.6,0.4,3.9,0.4
		c2.6,0.1,5.2,0,7.8-0.4c1.8-0.3,3.6-0.8,5.4-1.4s3.6-1.3,5.3-2.1c3.5-1.6,7-3.6,10.5-5.8c6.7-4.3,13.4-9.7,19.8-15.2
		c3.2-2.8,6.5-5.7,9.7-8.6c3.2-2.9,6.4-5.9,9.6-8.9c6.4-5.9,12.7-11.9,19.2-17.6c6.5-5.8,13-11.4,19.7-16.5
		c6.7-5.1,13.5-9.8,20.3-13.6c3.5-2,7-3.7,10.5-5.2c3.5-1.5,7.1-2.8,10.7-3.8c3.6-1,7.2-1.7,10.9-2.1c3.7-0.4,7.3-0.5,10.9-0.2
		c2.1,0.2,4.2,0.5,6.3,0.9c2.1,0.4,4.2,0.9,6.3,1.5c4.2,1.2,8.3,2.8,12.4,4.6c8.2,3.7,16.2,8.5,24.1,14c7.8,5.4,15.6,11.5,23.2,17.8
		c3.8,3.2,7.6,6.4,11.4,9.6c3.8,3.2,7.6,6.6,11.3,9.9c7.5,6.6,15.1,13.3,22.7,19.7c7.5,6.4,15.3,12.6,23,18.3
		c7.8,5.6,15.8,10.8,23.9,14.8c4.1,2,8.2,3.7,12.4,5c2.1,0.7,4.2,1.2,6.3,1.7c2.1,0.5,4.2,0.8,6.3,1c3.8,0.4,7.5,0.4,11.2-0.1
		c3.7-0.4,7.5-1.2,11.2-2.2c3.7-1.1,7.3-2.5,10.9-4.1c3.6-1.6,7.2-3.6,10.7-5.6c7-4.1,13.9-9.1,20.8-14.3c3.4-2.6,6.8-5.3,10.2-8
		c3.4-2.7,6.7-5.5,10.1-8.3c3.4-2.8,6.7-5.5,10.1-8.2s6.8-5.4,10.2-8c6.8-5.2,13.8-10,20.8-14c3.6-2,7.1-3.9,10.8-5.5
		c3.6-1.6,7.3-3,11-4c3.7-1.1,7.4-1.8,11.1-2.2c3.7-0.4,7.5-0.5,11.2-0.1c2.3,0.2,4.7,0.5,7,1c2.3,0.5,4.6,1,6.9,1.7
		c4.6,1.4,9.2,3.2,13.7,5.3c8.9,4.1,17.8,9.4,26.4,15c4.3,2.8,8.7,5.8,13,8.7c4.3,3,8.6,6,12.9,9.1c8.6,6.1,17.1,12.2,25.8,18
		c8.7,5.8,17.5,11.4,26.4,16.3c8.9,4.9,17.9,9.2,27.1,12.4c4.6,1.6,9.2,3,13.9,4.1c4.6,1,9.3,1.8,13.9,2.2c4.7,0.4,9.3,0.4,14,0.1
		c4.7-0.4,9.4-1.1,14-2.2c4.2-1,8.4-2.4,12.6-4c4.1-1.6,8.3-3.5,12.4-5.4c8.1-3.9,16.4-8.5,24.4-12.8c8.2-4.5,16.1-8.8,24.4-12.9
		c8.2-4,16.4-7.6,24.8-10.6c4.2-1.5,8.5-2.8,12.7-4c4.3-1.1,8.5-2.1,12.8-2.8c4.2-0.7,8.5-1.2,12.7-1.5c4.2-0.3,8.5-0.4,12.8-0.3
		c4.2,0.1,8.5,0.5,12.7,1c4.2,0.5,8.5,1.3,12.7,2.2c8.5,1.9,17,4.7,25.4,8.1c8.3,3.4,16.4,7.5,24.5,12.2c8.1,4.7,16,9.9,23.8,15.6
		c15.6,11.4,30.9,24.8,45.7,39.2c3.8,3.7,7.5,7.5,11.3,11.4"/>
	<path fill="none" stroke="#e5e7eb" stroke-miter-limit="10" d="M0,230.6c0.1,0,0.1,0,0.2,0c1.7,0.4,3.5,0.9,5.2,1.5c3.4,1.2,6.8,2.8,10.1,4.7
		c6.6,3.8,13,8.9,19.1,14.5c6.1,5.6,12.1,11.8,18,18.2c5.9,6.4,11.7,13,17.5,19.6c2.9,3.3,5.8,6.6,8.8,9.8c2.9,3.2,5.9,6.4,8.9,9.5
		c5.9,6.2,12.1,12.1,18.3,17.3c6.3,5.2,12.8,9.8,19.5,13.2c3.4,1.7,6.8,3.1,10.2,4.1c1.7,0.5,3.4,0.9,5.2,1.2
		c1.7,0.3,3.5,0.5,5.2,0.7c2,0.1,3.9,0.1,5.9,0c1.9-0.1,3.9-0.4,5.8-0.7c3.9-0.7,7.8-1.8,11.6-3.2c7.6-2.8,15.2-6.9,22.4-11.6
		c7.2-4.7,14.5-10,21.5-15.6c3.5-2.8,7.1-5.7,10.6-8.6c3.5-2.9,7-5.9,10.5-8.9c7-5.9,13.9-11.9,21-17.7c7-5.7,14.1-11.4,21.2-16.5
		c7.1-5.1,14.5-9.7,21.9-13.4c3.8-1.9,7.6-3.5,11.4-4.8c3.9-1.3,7.7-2.2,11.6-2.7c3.3-0.4,6.6-0.5,9.9-0.3c3.3,0.2,6.6,0.7,9.8,1.5
		c3.3,0.8,6.5,1.8,9.7,3c3.2,1.2,6.4,2.7,9.5,4.4c6.3,3.3,12.5,7.2,18.5,11.6c6.1,4.3,12.1,9.1,18,13.9c5.9,4.8,11.9,9.7,17.8,14.5
		c5.9,4.7,12,9.4,18,13.4c6.1,4.1,12.5,7.7,18.9,10.1c3.2,1.2,6.5,2.2,9.8,2.7c1.6,0.3,3.3,0.5,4.9,0.5c1.6,0.1,3.3,0.1,4.9-0.1
		c1.5-0.1,3-0.3,4.5-0.6c1.5-0.3,3-0.7,4.5-1.2c3-1,5.9-2.2,8.8-3.7c5.8-3,11.5-7,16.9-11.6c5.4-4.5,10.8-9.6,15.9-14.9
		c5.2-5.3,10.3-10.9,15.4-16.6c5.1-5.6,10.1-11.4,15.2-17c2.5-2.8,5.1-5.6,7.7-8.3c2.6-2.7,5.2-5.4,7.8-7.9
		c5.2-5.1,10.8-9.9,16.4-13.6c2.8-1.9,5.7-3.6,8.7-4.9c1.5-0.6,2.9-1.2,4.4-1.6c1.5-0.5,3-0.8,4.5-1c2.6-0.4,5.3-0.3,7.9,0.1
		c2.6,0.4,5.2,1.1,7.8,2.2c2.6,1,5.1,2.4,7.6,3.9c2.5,1.5,4.9,3.3,7.3,5.1c4.7,3.7,9.4,8,13.9,12.5c4.6,4.5,9.1,9.1,13.6,13.6
		c2.3,2.3,4.5,4.6,6.8,6.8c2.3,2.2,4.6,4.4,6.9,6.5c4.7,4.2,9.4,8,14.3,11.2c2.5,1.6,5,3,7.5,4.2s5.1,2.2,7.7,2.9
		c1.3,0.4,2.6,0.6,3.9,0.9c1.3,0.2,2.6,0.4,4,0.4c2.6,0.1,5.3,0,7.9-0.4c1.8-0.3,3.7-0.8,5.5-1.4c1.8-0.6,3.6-1.3,5.4-2.1
		c3.6-1.6,7.1-3.6,10.5-5.8c6.7-4.3,13.5-9.7,20-15.2c3.3-2.8,6.5-5.7,9.8-8.6c3.2-2.9,6.5-5.9,9.7-8.9c6.5-5.9,12.9-11.9,19.4-17.7
		c6.5-5.8,13.2-11.3,19.9-16.4c6.7-5.1,13.6-9.7,20.6-13.6c3.5-2,7-3.7,10.6-5.2c3.6-1.5,7.2-2.8,10.8-3.8c3.7-1,7.3-1.7,11-2.1
		c3.7-0.4,7.3-0.5,11-0.2c2.1,0.2,4.3,0.5,6.4,0.9c2.1,0.4,4.3,0.9,6.4,1.5c4.2,1.2,8.4,2.8,12.6,4.6c8.3,3.7,16.5,8.5,24.4,14
		c7.9,5.4,15.8,11.5,23.5,17.8c3.9,3.1,7.7,6.4,11.5,9.6c3.8,3.3,7.7,6.6,11.5,9.9c7.7,6.6,15.3,13.2,23,19.7
		c7.7,6.4,15.5,12.6,23.4,18.2c7.9,5.6,16.1,10.8,24.2,14.7c4.1,2,8.3,3.7,12.5,5c2.1,0.7,4.2,1.2,6.4,1.7c2.1,0.5,4.2,0.8,6.4,1
		c3.8,0.4,7.6,0.4,11.4-0.1c3.8-0.4,7.6-1.2,11.3-2.3c3.8-1.1,7.4-2.5,11.1-4.1c3.7-1.6,7.3-3.6,10.9-5.6
		c7.2-4.2,14.2-9.1,21.1-14.3c3.5-2.6,6.9-5.3,10.3-8c3.4-2.7,6.9-5.5,10.3-8.3c3.4-2.8,6.8-5.5,10.3-8.2c3.4-2.7,6.9-5.4,10.4-8
		c7-5.1,14-10,21.2-14c3.6-2,7.3-3.9,10.9-5.5s7.4-2.9,11.1-4c3.8-1,7.5-1.8,11.3-2.2c3.8-0.4,7.6-0.5,11.4-0.1
		c2.4,0.2,4.8,0.5,7.1,1c2.4,0.5,4.7,1,7.1,1.8c4.7,1.4,9.4,3.2,14,5.3c9.1,4.1,18.2,9.4,27,15c4.4,2.8,8.9,5.8,13.3,8.8
		c4.4,3,8.8,6,13.2,9.1c4.4,3,8.8,6.1,13.2,9.1c4.4,3,8.8,6,13.2,8.9c8.9,5.9,17.9,11.4,27,16.3c9.1,4.9,18.3,9.1,27.7,12.4
		c4.7,1.6,9.4,3,14.2,4c4.7,1,9.5,1.8,14.2,2.2c4.8,0.4,9.5,0.4,14.3,0.1c4.8-0.4,9.6-1.1,14.3-2.2c4.3-1,8.6-2.4,12.8-4
		c4.2-1.6,8.5-3.4,12.6-5.4c8.3-3.9,16.8-8.5,25-12.8c8.4-4.5,16.5-8.8,25-12.9c8.4-4,16.7-7.6,25.3-10.6c4.3-1.5,8.6-2.8,13-4
		c4.3-1.1,8.7-2.1,13.1-2.8c4.3-0.8,8.7-1.3,13-1.6c4.3-0.3,8.7-0.4,13-0.3c4.3,0.1,8.7,0.4,13,1c4.3,0.5,8.7,1.2,13,2.2
		c8.7,1.9,17.4,4.6,25.9,8c8.5,3.4,16.8,7.4,25.1,12.1c8.2,4.6,16.4,9.9,24.4,15.5c11.7,8.3,23.2,17.6,34.4,27.6"/>
	<path fill="none" stroke="#e5e7eb" stroke-miter-limit="10" d="M0,294.2c0.4,0,0.8,0,1.2,0.1c1.7,0.1,3.5,0.4,5.2,0.8c1.7,0.4,3.5,0.9,5.2,1.5
		c3.4,1.2,6.8,2.8,10.2,4.7c6.6,3.8,13.1,8.9,19.3,14.5c6.1,5.6,12.2,11.8,18.1,18.2c5.9,6.4,11.8,13,17.6,19.6
		c2.9,3.3,5.9,6.6,8.8,9.8c2.9,3.2,5.9,6.4,8.9,9.5c6,6.2,12.1,12.1,18.4,17.3c6.3,5.2,12.9,9.8,19.6,13.1c3.4,1.7,6.8,3,10.2,4.1
		c1.7,0.5,3.5,0.9,5.2,1.2c1.7,0.3,3.5,0.5,5.2,0.6c2,0.1,3.9,0.1,5.9,0c2-0.1,3.9-0.4,5.9-0.7c3.9-0.7,7.8-1.8,11.6-3.2
		c7.7-2.8,15.3-6.9,22.6-11.6c7.3-4.7,14.6-10,21.7-15.6c3.6-2.8,7.1-5.7,10.6-8.6c3.5-2.9,7.1-5.9,10.6-8.9
		c7-5.9,14.1-11.9,21.1-17.7c7-5.7,14.2-11.4,21.4-16.5c7.2-5.1,14.6-9.7,22-13.4c3.8-1.9,7.6-3.5,11.5-4.7
		c3.9-1.3,7.8-2.2,11.7-2.7c3.3-0.4,6.6-0.5,10-0.3c3.3,0.2,6.6,0.7,9.9,1.5c3.3,0.8,6.6,1.8,9.8,3s6.5,2.7,9.7,4.4
		c6.4,3.3,12.6,7.2,18.7,11.6c6.1,4.3,12.2,9.1,18.2,13.9c6,4.8,12,9.8,18,14.5c6,4.7,12.1,9.4,18.3,13.5
		c6.2,4.1,12.6,7.7,19.1,10.1c3.2,1.2,6.5,2.2,9.8,2.7c1.7,0.3,3.3,0.5,5,0.5c1.7,0.1,3.3,0.1,5-0.1c1.5-0.1,3-0.3,4.6-0.7
		c1.5-0.3,3-0.7,4.5-1.2c3-1,6-2.2,8.9-3.7c5.9-3,11.6-7,17.1-11.6c5.5-4.5,10.9-9.6,16.2-14.9s10.5-11,15.6-16.6
		c5.2-5.6,10.3-11.4,15.5-17c2.6-2.8,5.2-5.6,7.8-8.3c2.6-2.7,5.3-5.4,7.9-7.9c5.3-5.1,10.9-9.9,16.6-13.6c2.9-1.9,5.8-3.5,8.8-4.8
		c1.5-0.6,3-1.2,4.5-1.6c1.5-0.5,3-0.8,4.5-1c2.7-0.4,5.4-0.3,8,0.1c2.7,0.4,5.3,1.1,7.9,2.2c2.6,1,5.2,2.4,7.7,3.9
		c2.5,1.5,5,3.2,7.5,5.1c4.8,3.7,9.6,8,14.2,12.5c4.7,4.5,9.2,9.1,13.8,13.7c2.3,2.3,4.6,4.6,7,6.8c2.3,2.2,4.7,4.4,7.1,6.5
		c4.7,4.2,9.6,8,14.6,11.2c2.5,1.6,5.1,3,7.7,4.2c2.6,1.2,5.2,2.2,7.8,2.9c1.3,0.3,2.6,0.7,4,0.9c1.3,0.2,2.7,0.4,4,0.4
		c2.7,0.2,5.3,0,8-0.4c1.9-0.3,3.7-0.8,5.6-1.3c1.8-0.6,3.7-1.3,5.5-2.1c3.6-1.6,7.2-3.6,10.8-5.8c6.9-4.3,13.8-9.7,20.4-15.2
		c3.3-2.8,6.7-5.7,10-8.6c3.3-2.9,6.6-5.9,9.9-8.9c6.6-6,13.2-11.9,19.8-17.7c6.7-5.8,13.5-11.4,20.3-16.4c6.9-5.1,13.9-9.7,21-13.6
		c3.6-1.9,7.2-3.7,10.8-5.2c3.7-1.5,7.3-2.8,11-3.8c3.7-1,7.4-1.7,11.2-2.1c3.8-0.4,7.5-0.5,11.2-0.2c2.2,0.2,4.4,0.5,6.6,0.9
		c2.2,0.4,4.4,0.9,6.5,1.5c4.3,1.2,8.7,2.7,12.9,4.6c8.5,3.7,16.9,8.6,25.1,14c8.2,5.4,16.3,11.5,24.2,17.8c4,3.2,8,6.4,11.9,9.7
		c4,3.3,7.9,6.6,11.8,9.9c7.9,6.6,15.8,13.3,23.7,19.7c7.9,6.4,16,12.6,24.1,18.2c8.1,5.6,16.5,10.7,25,14.7c4.2,2,8.5,3.7,12.9,5
		c2.2,0.7,4.3,1.2,6.5,1.7c2.2,0.5,4.4,0.8,6.6,1c3.9,0.4,7.8,0.3,11.8-0.1c3.9-0.4,7.8-1.2,11.7-2.3c3.9-1.1,7.7-2.5,11.5-4.1
		c3.8-1.7,7.6-3.6,11.3-5.7c7.4-4.2,14.8-9.1,22-14.4c3.6-2.6,7.2-5.3,10.8-8.1c3.6-2.7,7.1-5.5,10.7-8.3c3.6-2.8,7.1-5.5,10.7-8.3
		c3.6-2.7,7.2-5.4,10.8-8c7.2-5.2,14.6-10,22.1-14c3.8-2,7.5-3.8,11.3-5.4c3.8-1.6,7.7-2.9,11.6-3.9c3.9-1,7.8-1.8,11.7-2.2
		c3.9-0.4,7.8-0.4,11.8-0.1c2.5,0.2,5,0.5,7.4,1c2.5,0.5,4.9,1.1,7.4,1.8c4.9,1.4,9.8,3.2,14.6,5.3c9.5,4.1,19,9.4,28.2,15
		c4.6,2.8,9.3,5.8,13.9,8.8c4.6,3,9.2,6.1,13.8,9.1c4.6,3,9.2,6.1,13.8,9.2c4.6,3,9.2,6,13.9,8.9c9.3,5.8,18.7,11.4,28.2,16.3
		c9.5,4.9,19.2,9.1,28.9,12.3c4.9,1.6,9.8,2.9,14.8,4c4.9,1,9.9,1.8,14.8,2.1c5,0.4,9.9,0.4,14.9,0.1c5-0.4,10-1.1,14.9-2.2
		c5.9-1.4,11.8-3.3,17.6-5.6c5.8-2.3,11.6-4.9,17.4-7.7c2.9-1.4,5.7-2.8,8.6-4.2c2.8-1.4,5.7-2.9,8.6-4.4c5.7-2.9,11.4-5.8,17.2-8.6
		c11.6-5.7,23-10.7,34.8-14.8c5.9-2,11.8-3.7,17.7-5.1c5.9-1.4,11.9-2.4,17.8-3.1c12.1-1.4,24-1.3,36.1,0.2c6,0.8,11.9,1.9,17.9,3.4
		c6,1.5,11.9,3.3,17.8,5.5c11.8,4.3,23.4,9.8,34.8,16.3c0.8,0.5,1.6,1,2.5,1.4"/>
	<path fill="none" stroke="#e5e7eb" stroke-miter-limit="10" d="M0,181.5c0.9,0.2,1.8,0.5,2.7,0.8c3.4,1.2,6.8,2.8,10.1,4.7
		c6.6,3.8,13,8.9,19.1,14.5c6.1,5.6,12.1,11.8,17.9,18.2c5.9,6.4,11.6,13,17.4,19.6c2.9,3.3,5.8,6.5,8.7,9.8
		c2.9,3.2,5.9,6.4,8.8,9.5c5.9,6.2,12,12.1,18.2,17.3c6.3,5.2,12.7,9.8,19.4,13.2c3.3,1.7,6.7,3.1,10.1,4.1c1.7,0.5,3.4,0.9,5.2,1.2
		c1.7,0.3,3.5,0.5,5.2,0.6c1.9,0.1,3.9,0.1,5.9,0c1.9-0.1,3.9-0.4,5.8-0.7c3.9-0.7,7.7-1.8,11.5-3.2c7.6-2.8,15.1-6.9,22.3-11.6
		c7.2-4.6,14.4-10,21.4-15.6c3.5-2.8,7-5.7,10.5-8.6c3.5-2.9,7-5.9,10.4-8.9c6.9-5.9,13.9-11.9,20.8-17.7c6.9-5.7,14-11.4,21.1-16.5
		c7.1-5.1,14.4-9.8,21.8-13.4c3.7-1.9,7.5-3.5,11.4-4.8c3.8-1.3,7.7-2.2,11.6-2.7c3.3-0.4,6.5-0.5,9.8-0.3c3.3,0.2,6.5,0.7,9.8,1.5
		c3.2,0.8,6.5,1.8,9.7,3c3.2,1.2,6.4,2.7,9.5,4.4c6.2,3.3,12.4,7.2,18.4,11.6c6,4.3,12,9,17.9,13.9c5.9,4.8,11.8,9.8,17.7,14.5
		c5.9,4.7,11.9,9.4,17.9,13.5c6.1,4.1,12.4,7.7,18.7,10.1c3.2,1.2,6.4,2.2,9.7,2.7c1.6,0.3,3.3,0.5,4.9,0.6c1.6,0.1,3.3,0.1,4.9-0.1
		c1.5-0.1,3-0.4,4.5-0.6c1.5-0.3,3-0.7,4.5-1.2c3-1,5.9-2.2,8.8-3.7c5.7-3,11.4-7,16.8-11.6c5.4-4.5,10.7-9.6,15.8-14.9
		c5.2-5.3,10.2-10.9,15.3-16.6c5-5.6,10-11.4,15.1-17c2.5-2.8,5.1-5.6,7.6-8.3c2.6-2.7,5.2-5.4,7.8-7.9c5.2-5.1,10.7-9.9,16.2-13.6
		c2.8-1.9,5.7-3.6,8.6-4.9c1.5-0.6,2.9-1.2,4.4-1.7c1.5-0.5,3-0.8,4.5-1c2.6-0.4,5.2-0.3,7.8,0.1c2.6,0.4,5.2,1.1,7.7,2.2
		c2.5,1,5,2.4,7.5,3.9c2.5,1.5,4.9,3.3,7.3,5.1c4.7,3.7,9.3,8,13.8,12.4c4.5,4.4,9,9.1,13.4,13.6c2.2,2.3,4.5,4.5,6.7,6.8
		s4.5,4.4,6.8,6.5c4.6,4.2,9.3,8,14.2,11.2c2.5,1.6,4.9,3,7.4,4.2c2.5,1.2,5.1,2.2,7.7,2.9c1.3,0.4,2.6,0.7,3.9,0.9
		c1.3,0.2,2.6,0.4,3.9,0.4c2.6,0.2,5.2,0,7.8-0.4c1.8-0.3,3.6-0.8,5.4-1.4c1.8-0.6,3.6-1.3,5.3-2.1c3.5-1.6,7-3.6,10.4-5.8
		c6.7-4.3,13.3-9.7,19.7-15.2c3.2-2.8,6.4-5.7,9.6-8.6c3.2-2.9,6.4-5.9,9.5-8.8c6.3-5.9,12.7-11.9,19.1-17.6
		c6.4-5.8,13-11.4,19.6-16.5c6.6-5.1,13.4-9.8,20.2-13.6c3.5-2,7-3.7,10.5-5.2c3.5-1.5,7.1-2.8,10.7-3.8c3.6-1,7.2-1.7,10.8-2.1
		c3.6-0.4,7.3-0.5,10.9-0.2c2.1,0.2,4.2,0.5,6.3,0.9c2.1,0.4,4.2,0.9,6.3,1.5c4.2,1.2,8.3,2.8,12.4,4.6c8.1,3.7,16.2,8.5,24,14
		c7.8,5.4,15.5,11.5,23,17.8c3.8,3.1,7.6,6.4,11.3,9.6c3.8,3.3,7.5,6.6,11.3,9.9c7.5,6.6,15,13.3,22.5,19.7
		c7.5,6.4,15.2,12.6,22.9,18.3c7.7,5.6,15.7,10.8,23.8,14.8c4.1,2,8.2,3.7,12.3,5c2.1,0.7,4.2,1.2,6.2,1.7c2.1,0.5,4.2,0.8,6.3,1
		c3.7,0.4,7.4,0.4,11.1,0c3.7-0.4,7.4-1.2,11-2.2s7.3-2.5,10.9-4.1c3.6-1.6,7.1-3.6,10.7-5.6c7-4.1,13.8-9.1,20.6-14.3
		c3.4-2.6,6.7-5.3,10.1-8c3.3-2.7,6.7-5.5,10-8.2c3.3-2.8,6.7-5.5,10-8.2c3.3-2.7,6.7-5.4,10.1-8c6.8-5.2,13.6-10,20.6-14
		c3.5-2,7.1-3.9,10.7-5.5c3.6-1.6,7.2-3,10.9-4c3.7-1,7.3-1.8,11.1-2.2c3.7-0.4,7.4-0.5,11.1-0.1c2.3,0.2,4.6,0.5,6.9,1
		c2.3,0.5,4.6,1.1,6.9,1.8c4.6,1.4,9.1,3.2,13.5,5.3c8.8,4.1,17.6,9.4,26.1,14.9c4.3,2.8,8.6,5.8,12.8,8.7c4.3,3,8.5,6,12.8,9
		c8.5,6.1,16.9,12.2,25.5,18c8.6,5.9,17.3,11.4,26.1,16.3c8.8,4.9,17.7,9.2,26.8,12.4c4.6,1.6,9.2,3,13.8,4.1
		c4.6,1.1,9.2,1.8,13.8,2.2c4.6,0.4,9.2,0.5,13.9,0.1c4.7-0.3,9.3-1.1,13.9-2.2c4.2-1,8.3-2.4,12.4-4c4.1-1.6,8.2-3.5,12.2-5.4
		c8-3.9,16.2-8.5,24.1-12.9c8.1-4.5,15.9-8.8,24.1-12.9c8.1-4.1,16.2-7.7,24.5-10.6c4.2-1.5,8.4-2.8,12.6-4
		c4.2-1.1,8.4-2.1,12.7-2.8c4.2-0.7,8.4-1.2,12.6-1.5c4.2-0.3,8.4-0.4,12.6-0.3c4.2,0.1,8.4,0.5,12.6,1c4.2,0.5,8.4,1.3,12.6,2.3
		c8.5,1.9,16.8,4.7,25.1,8.2c8.2,3.4,16.2,7.5,24.2,12.2c7.9,4.7,15.8,10,23.5,15.7c15.4,11.4,30.5,24.8,45.1,39.2
		c7.5,7.5,15,15.4,22.4,23.5"/>
	<path fill="none" stroke="#e5e7eb" stroke-miter-limit="10" d="M0,213.3c1.4,0.4,2.9,0.8,4.3,1.3c3.4,1.2,6.8,2.8,10.1,4.7
		c6.6,3.8,13,8.9,19.1,14.5c6.1,5.6,12.1,11.8,18,18.2c5.9,6.4,11.7,13,17.5,19.6c2.9,3.3,5.8,6.6,8.8,9.8c2.9,3.2,5.9,6.4,8.8,9.5
		c5.9,6.2,12,12.1,18.2,17.3c6.3,5.2,12.8,9.8,19.5,13.2c3.4,1.7,6.8,3.1,10.2,4.1c1.7,0.5,3.4,0.9,5.2,1.2c1.7,0.3,3.5,0.5,5.2,0.6
		c2,0.1,3.9,0.1,5.9,0s3.9-0.4,5.8-0.7c3.9-0.7,7.8-1.8,11.6-3.2c7.6-2.8,15.1-6.9,22.4-11.6c7.2-4.7,14.5-10,21.5-15.6
		c3.5-2.8,7.1-5.7,10.6-8.6c3.5-2.9,7-5.9,10.5-8.9c7-5.9,13.9-11.9,20.9-17.7c6.9-5.7,14.1-11.4,21.2-16.5
		c7.1-5.1,14.4-9.7,21.8-13.4c3.8-1.9,7.6-3.5,11.4-4.8c3.8-1.3,7.7-2.2,11.6-2.7c3.3-0.4,6.6-0.5,9.9-0.3c3.3,0.2,6.6,0.7,9.8,1.5
		c3.3,0.8,6.5,1.8,9.7,3c3.2,1.2,6.4,2.7,9.5,4.4c6.3,3.3,12.4,7.2,18.5,11.6c6,4.3,12,9.1,18,13.9c5.9,4.8,11.8,9.8,17.7,14.5
		c5.9,4.7,12,9.4,18,13.5c6.1,4.1,12.4,7.7,18.8,10.1c3.2,1.2,6.5,2.2,9.7,2.7c1.6,0.3,3.3,0.5,4.9,0.6c1.6,0.1,3.3,0.1,4.9-0.1
		c1.5-0.1,3-0.4,4.5-0.6c1.5-0.3,3-0.7,4.5-1.2c3-1,5.9-2.2,8.8-3.7c5.8-3,11.4-7,16.9-11.6c5.4-4.5,10.7-9.6,15.9-14.9
		c5.2-5.3,10.3-10.9,15.3-16.6c5.1-5.6,10.1-11.4,15.2-17c2.5-2.8,5.1-5.6,7.7-8.3c2.6-2.7,5.2-5.4,7.8-7.9
		c5.2-5.1,10.8-9.9,16.3-13.6c2.8-1.9,5.7-3.6,8.6-4.9c1.5-0.6,2.9-1.2,4.4-1.7c1.5-0.5,3-0.8,4.5-1c2.6-0.4,5.3-0.3,7.9,0.1
		c2.6,0.4,5.2,1.1,7.8,2.2c2.6,1,5.1,2.4,7.5,3.9s4.9,3.3,7.3,5.1c4.7,3.7,9.4,8,13.9,12.4c4.5,4.5,9,9.1,13.5,13.6
		c2.3,2.3,4.5,4.6,6.8,6.8c2.3,2.2,4.6,4.4,6.9,6.5c4.6,4.2,9.4,8,14.3,11.2c2.5,1.6,5,3,7.5,4.2c2.5,1.2,5.1,2.2,7.7,2.9
		c1.3,0.4,2.6,0.6,3.9,0.9c1.3,0.2,2.6,0.4,3.9,0.4c2.6,0.2,5.3,0,7.9-0.4c1.8-0.3,3.7-0.8,5.5-1.4c1.8-0.6,3.6-1.3,5.4-2.1
		c3.5-1.6,7.1-3.6,10.5-5.8c6.7-4.3,13.5-9.7,19.9-15.2c3.2-2.8,6.5-5.7,9.7-8.6c3.2-2.9,6.4-5.9,9.6-8.9
		c6.4-5.9,12.8-11.9,19.3-17.6c6.5-5.8,13.1-11.4,19.8-16.4c6.7-5.1,13.5-9.8,20.5-13.6c3.5-2,7-3.7,10.6-5.2
		c3.6-1.5,7.2-2.8,10.8-3.8c3.6-1,7.3-1.7,10.9-2.1c3.7-0.4,7.3-0.5,11-0.2c2.1,0.2,4.2,0.5,6.4,0.9c2.1,0.4,4.2,0.9,6.3,1.5
		c4.2,1.2,8.4,2.8,12.5,4.6c8.2,3.7,16.3,8.5,24.2,14c7.9,5.4,15.7,11.5,23.3,17.8c3.8,3.1,7.7,6.4,11.5,9.6
		c3.8,3.3,7.6,6.6,11.4,9.9c7.6,6.6,15.2,13.3,22.8,19.7c7.6,6.4,15.4,12.6,23.2,18.3c7.8,5.6,15.9,10.8,24.1,14.7
		c4.1,2,8.3,3.7,12.4,5c2.1,0.7,4.2,1.2,6.3,1.7c2.1,0.5,4.2,0.8,6.4,1c3.8,0.4,7.5,0.4,11.3,0c3.8-0.4,7.5-1.2,11.2-2.3
		c3.7-1.1,7.4-2.5,11.1-4.1c3.6-1.6,7.2-3.6,10.8-5.6c7.1-4.2,14.1-9.1,21-14.3c3.4-2.6,6.9-5.3,10.2-8.1c3.4-2.7,6.8-5.5,10.2-8.3
		c3.4-2.8,6.8-5.5,10.2-8.2c3.4-2.7,6.8-5.4,10.3-8c6.9-5.1,13.9-10,21-14c3.6-2,7.2-3.9,10.8-5.5c3.7-1.6,7.3-2.9,11.1-4
		c3.7-1,7.5-1.8,11.2-2.2c3.8-0.4,7.5-0.5,11.3-0.1c2.4,0.2,4.7,0.5,7.1,1c2.3,0.5,4.7,1,7,1.7c4.7,1.4,9.3,3.2,13.8,5.3
		c9,4.1,18,9.4,26.7,15c4.4,2.8,8.8,5.8,13.1,8.7c4.3,3,8.7,6,13.1,9.1c8.7,6.1,17.3,12.2,26.1,18c8.8,5.9,17.7,11.4,26.7,16.3
		c9,4.9,18.1,9.1,27.4,12.4c4.7,1.6,9.3,3,14,4c4.7,1,9.4,1.8,14.1,2.2c4.7,0.4,9.4,0.4,14.1,0.1c4.8-0.4,9.5-1.1,14.2-2.2
		c4.3-1,8.5-2.4,12.7-4c4.2-1.6,8.4-3.4,12.5-5.4c8.2-3.9,16.6-8.5,24.7-12.8c8.3-4.5,16.3-8.8,24.7-12.9c8.3-4.1,16.6-7.6,25-10.6
		c4.3-1.5,8.6-2.8,12.9-4c4.3-1.1,8.6-2.1,12.9-2.8c4.3-0.7,8.6-1.3,12.8-1.6c4.3-0.3,8.6-0.4,12.9-0.3c4.3,0.1,8.6,0.4,12.9,1
		c4.3,0.5,8.6,1.3,12.8,2.2c8.6,1.9,17.2,4.6,25.7,8.1c8.4,3.4,16.6,7.5,24.8,12.1c8.1,4.6,16.2,9.9,24.1,15.6
		c15.7,11.3,31.1,24.5,45.9,38.8"/>
	<path fill="none" stroke="#e5e7eb" stroke-miter-limit="10" d="M0,246.4c0.5,0.1,1,0.2,1.5,0.3c1.7,0.4,3.5,0.9,5.2,1.5c3.4,1.2,6.8,2.8,10.1,4.7
		c6.6,3.8,13,8.9,19.2,14.5c6.1,5.6,12.1,11.8,18,18.2c5.9,6.4,11.7,13,17.5,19.6c2.9,3.3,5.8,6.6,8.8,9.8s5.9,6.4,8.9,9.5
		c5.9,6.2,12.1,12.1,18.3,17.3c6.3,5.2,12.8,9.8,19.5,13.1c3.4,1.7,6.8,3.1,10.2,4.1c1.7,0.5,3.4,0.9,5.2,1.2
		c1.7,0.3,3.5,0.5,5.2,0.7c2,0.1,3.9,0.1,5.9,0c1.9-0.1,3.9-0.4,5.8-0.7c3.9-0.7,7.8-1.8,11.6-3.2c7.6-2.8,15.2-6.9,22.5-11.6
		c7.3-4.7,14.5-10,21.6-15.6c3.5-2.8,7.1-5.7,10.6-8.6c3.5-2.9,7-5.9,10.5-8.9c7-5.9,14-11.9,21-17.7c7-5.8,14.1-11.4,21.2-16.5
		c7.1-5.1,14.5-9.7,21.9-13.4c3.8-1.9,7.6-3.5,11.4-4.8s7.8-2.2,11.6-2.7c3.3-0.4,6.6-0.5,9.9-0.3c3.3,0.2,6.6,0.7,9.9,1.5
		c3.3,0.8,6.5,1.8,9.7,3c3.2,1.2,6.4,2.7,9.6,4.4c6.3,3.3,12.5,7.2,18.6,11.6c6.1,4.3,12.1,9.1,18,13.9c6,4.8,11.9,9.8,17.8,14.5
		c5.9,4.7,12,9.4,18.1,13.5c6.1,4.1,12.5,7.7,18.9,10.1c3.2,1.2,6.5,2.2,9.8,2.7c1.6,0.3,3.3,0.5,5,0.5c1.6,0.1,3.3,0.1,5-0.1
		c1.5-0.1,3-0.3,4.5-0.6c1.5-0.3,3-0.7,4.5-1.2c3-1,6-2.2,8.9-3.7c5.8-3,11.5-7,17-11.6c5.4-4.5,10.8-9.6,16-14.9
		c5.2-5.3,10.4-10.9,15.5-16.6c5.1-5.6,10.2-11.4,15.3-17c2.5-2.8,5.1-5.6,7.7-8.3c2.6-2.7,5.2-5.4,7.8-7.9
		c5.3-5.1,10.8-9.9,16.4-13.6c2.8-1.9,5.7-3.6,8.7-4.8c1.5-0.6,3-1.2,4.5-1.7c1.5-0.5,3-0.8,4.5-1c2.7-0.4,5.3-0.3,8,0.1
		c2.6,0.4,5.2,1.1,7.8,2.2c2.6,1,5.1,2.4,7.6,3.9c2.5,1.5,5,3.3,7.3,5.1c4.8,3.7,9.5,8,14,12.5c4.6,4.5,9.1,9.1,13.6,13.7
		c2.3,2.3,4.5,4.6,6.9,6.8c2.3,2.2,4.6,4.4,7,6.5c4.7,4.1,9.5,8,14.4,11.2c2.5,1.6,5,3,7.5,4.2c2.6,1.2,5.1,2.2,7.8,2.9
		c1.3,0.4,2.6,0.6,3.9,0.9c1.3,0.2,2.6,0.4,4,0.4c2.6,0.2,5.3,0,7.9-0.4c1.8-0.3,3.7-0.8,5.5-1.4s3.6-1.3,5.4-2.1
		c3.6-1.6,7.1-3.6,10.6-5.8c6.8-4.3,13.6-9.7,20.1-15.2c3.3-2.8,6.6-5.7,9.8-8.6c3.2-2.9,6.5-5.9,9.7-8.9c6.5-5.9,13-11.9,19.5-17.6
		c6.6-5.8,13.2-11.4,20-16.5c6.7-5.1,13.6-9.7,20.7-13.6c3.5-1.9,7.1-3.7,10.7-5.2c3.6-1.5,7.2-2.8,10.9-3.8c3.7-1,7.3-1.7,11-2.1
		c3.7-0.4,7.4-0.5,11.1-0.2c2.2,0.2,4.3,0.5,6.5,0.9c2.1,0.4,4.3,0.9,6.4,1.5c4.3,1.2,8.5,2.7,12.7,4.6c8.3,3.7,16.6,8.5,24.6,14
		c8,5.4,15.9,11.5,23.7,17.8c3.9,3.2,7.8,6.4,11.6,9.7c3.9,3.3,7.7,6.6,11.6,9.9c7.7,6.6,15.4,13.3,23.2,19.7
		c7.7,6.4,15.6,12.6,23.5,18.2c7.9,5.6,16.2,10.8,24.4,14.7c4.2,2,8.4,3.7,12.6,5c2.1,0.7,4.3,1.2,6.4,1.7c2.1,0.5,4.3,0.8,6.4,1
		c3.8,0.4,7.7,0.4,11.5,0c3.8-0.4,7.6-1.2,11.4-2.3c3.8-1.1,7.5-2.5,11.2-4.1c3.7-1.6,7.4-3.6,11-5.6c7.2-4.2,14.3-9.1,21.3-14.4
		c3.5-2.6,7-5.3,10.5-8.1c3.5-2.7,6.9-5.5,10.4-8.3c3.5-2.8,6.9-5.5,10.4-8.2c3.5-2.7,7-5.4,10.5-8c7-5.2,14.2-10,21.4-14
		c3.7-2,7.3-3.9,11-5.4c3.7-1.6,7.5-2.9,11.3-4c3.8-1,7.6-1.8,11.4-2.2c3.8-0.4,7.7-0.5,11.5-0.1c2.4,0.2,4.8,0.5,7.2,1
		c2.4,0.5,4.8,1.1,7.2,1.8c4.7,1.4,9.5,3.2,14.1,5.3c9.2,4.1,18.4,9.4,27.3,15c4.5,2.8,9,5.8,13.4,8.8c4.5,3,8.9,6,13.4,9.1
		c4.4,3,8.9,6.1,13.4,9.1c4.4,3,8.9,6,13.4,8.9c9,5.9,18.1,11.4,27.3,16.3c9.2,4.9,18.5,9.1,28,12.3c4.8,1.6,9.5,3,14.3,4
		c4.8,1,9.6,1.8,14.4,2.2c4.8,0.4,9.6,0.4,14.4,0.1c4.8-0.4,9.7-1.1,14.5-2.2c4-1,8-2.2,12-3.6c4-1.4,7.9-3.1,11.8-4.9
		c7.7-3.5,15.7-7.6,23.3-11.6c7.7-4.1,15.5-8.2,23.2-12.1c7.8-3.9,15.6-7.4,23.5-10.5c8-3.1,16-5.7,24.1-7.7c4-1,8-1.8,12.1-2.4
		c4-0.6,8.1-1.1,12.1-1.4c8.1-0.6,16.2-0.4,24.3,0.5c4.1,0.5,8.2,1.1,12.2,1.9c4.1,0.8,8.1,1.8,12.2,2.9c8,2.3,15.9,5.2,23.8,8.6
		c7.9,3.5,15.6,7.5,23.3,12c14.1,8.3,28,18.3,41.5,29.4"/>
	<path fill="none" stroke="#e5e7eb" stroke-miter-limit="10" d="M0,262.3c1,0.1,2,0.3,3,0.5c1.7,0.4,3.5,0.9,5.2,1.5c3.4,1.2,6.8,2.8,10.1,4.7
		c6.6,3.8,13,8.9,19.2,14.5c6.1,5.6,12.2,11.8,18,18.2c5.9,6.4,11.7,13,17.6,19.6c2.9,3.3,5.8,6.6,8.8,9.8c2.9,3.2,5.9,6.4,8.9,9.5
		c5.9,6.2,12.1,12.1,18.3,17.3c6.3,5.2,12.8,9.8,19.5,13.2c3.4,1.7,6.8,3.1,10.2,4.1c1.7,0.5,3.4,0.9,5.2,1.2
		c1.7,0.3,3.5,0.5,5.2,0.7c2,0.1,3.9,0.1,5.9,0c1.9-0.1,3.9-0.4,5.9-0.7c3.9-0.7,7.8-1.8,11.6-3.2c7.6-2.8,15.2-6.9,22.5-11.6
		c7.3-4.7,14.6-10,21.6-15.6c3.6-2.8,7.1-5.7,10.6-8.6c3.5-2.9,7-5.9,10.6-8.9c7-5.9,14-11.9,21-17.7c7-5.8,14.1-11.4,21.3-16.5
		c7.1-5.1,14.5-9.7,21.9-13.4c3.8-1.9,7.6-3.5,11.5-4.8c3.9-1.3,7.8-2.2,11.7-2.7c3.3-0.4,6.6-0.5,9.9-0.3c3.3,0.2,6.6,0.7,9.9,1.5
		s6.5,1.8,9.8,3c3.2,1.2,6.4,2.7,9.6,4.4c6.3,3.3,12.5,7.2,18.6,11.6c6.1,4.3,12.1,9.1,18.1,13.9c6,4.8,11.9,9.8,17.9,14.5
		c5.9,4.7,12,9.4,18.2,13.5c6.1,4.1,12.5,7.7,19,10.1c3.2,1.2,6.5,2.2,9.8,2.7c1.6,0.3,3.3,0.5,5,0.5s3.3,0.1,5-0.1
		c1.5-0.1,3-0.3,4.5-0.7c1.5-0.3,3-0.7,4.5-1.2c3-1,6-2.2,8.9-3.7c5.8-3,11.5-7,17-11.6c5.5-4.5,10.8-9.6,16.1-14.9
		c5.2-5.3,10.4-10.9,15.5-16.6c5.1-5.6,10.2-11.4,15.3-17c2.6-2.8,5.1-5.6,7.7-8.3c2.6-2.7,5.2-5.4,7.9-7.9
		c5.3-5.1,10.8-9.9,16.5-13.6c2.8-1.9,5.8-3.5,8.7-4.9c1.5-0.6,3-1.2,4.5-1.6c1.5-0.5,3-0.8,4.5-1c2.7-0.4,5.3-0.3,8,0.1
		c2.7,0.4,5.3,1.1,7.9,2.2c2.6,1,5.1,2.4,7.6,3.9c2.5,1.5,5,3.3,7.4,5.1c4.8,3.7,9.5,8,14.1,12.5c4.6,4.5,9.1,9.1,13.7,13.7
		c2.3,2.3,4.6,4.6,6.9,6.8c2.3,2.2,4.6,4.4,7,6.5c4.7,4.2,9.5,8,14.5,11.2c2.5,1.6,5,3,7.6,4.2c2.6,1.2,5.2,2.2,7.8,2.9
		c1.3,0.4,2.7,0.6,4,0.9c1.3,0.2,2.7,0.4,4,0.4c2.7,0.1,5.3,0,8-0.4c1.8-0.3,3.7-0.8,5.5-1.4c1.8-0.6,3.7-1.3,5.5-2.1
		c3.6-1.6,7.2-3.6,10.7-5.8c6.8-4.3,13.7-9.7,20.2-15.2c3.3-2.8,6.6-5.7,9.8-8.6c3.3-2.9,6.5-5.9,9.8-8.9c6.5-6,13-11.9,19.6-17.7
		c6.6-5.8,13.3-11.4,20.1-16.4c6.8-5.1,13.7-9.7,20.8-13.6c3.5-1.9,7.1-3.7,10.7-5.2c3.6-1.5,7.2-2.8,10.9-3.8
		c3.7-1,7.3-1.7,11.1-2.1c3.7-0.4,7.4-0.5,11.1-0.2c2.2,0.2,4.3,0.5,6.5,0.9c2.2,0.4,4.3,0.9,6.5,1.5c4.3,1.2,8.5,2.7,12.8,4.6
		c8.4,3.7,16.7,8.6,24.7,14c8,5.4,16,11.5,23.8,17.8c3.9,3.1,7.8,6.4,11.7,9.7c3.9,3.3,7.8,6.6,11.7,9.9
		c7.8,6.6,15.5,13.3,23.3,19.7c7.8,6.4,15.8,12.6,23.7,18.2c8,5.6,16.3,10.8,24.6,14.7c4.2,2,8.4,3.7,12.7,5
		c2.1,0.6,4.3,1.2,6.4,1.7c2.2,0.4,4.3,0.8,6.5,1c3.9,0.4,7.7,0.4,11.6-0.1c3.9-0.4,7.7-1.2,11.5-2.3c3.8-1.1,7.6-2.5,11.3-4.1
		c3.7-1.6,7.4-3.6,11.1-5.7c7.3-4.2,14.5-9.1,21.5-14.4c3.5-2.6,7.1-5.3,10.6-8.1c3.5-2.7,7-5.5,10.5-8.3c3.5-2.8,7-5.5,10.5-8.2
		c3.5-2.7,7-5.4,10.6-8c7.1-5.2,14.3-10,21.6-14c3.7-2,7.4-3.9,11.1-5.4c3.8-1.6,7.5-2.9,11.3-4c3.8-1,7.7-1.8,11.5-2.2
		c3.9-0.4,7.7-0.5,11.6-0.1c2.4,0.2,4.9,0.5,7.3,1c2.4,0.5,4.8,1.1,7.2,1.8c4.8,1.4,9.6,3.2,14.3,5.3c9.3,4.1,18.6,9.4,27.6,15
		c4.5,2.8,9.1,5.8,13.6,8.8c4.5,3,9,6,13.5,9.1c4.5,3,9,6.1,13.5,9.1c4.5,3,9,6,13.6,8.9c9.1,5.9,18.3,11.4,27.6,16.3
		c9.3,4.9,18.7,9.1,28.3,12.3c4.8,1.6,9.6,3,14.5,4c4.8,1,9.7,1.8,14.5,2.2s9.7,0.4,14.6,0.1c4.9-0.3,9.8-1.1,14.6-2.2
		c3.7-0.8,7.3-2,10.9-3.2c3.6-1.3,7.2-2.7,10.8-4.2c7.1-3,14.2-6.6,21.2-10.2c7-3.6,14.1-7.4,21.1-11c7.1-3.6,14.1-7,21.3-10.1
		c7.2-3.1,14.3-5.9,21.6-8.2c7.3-2.3,14.6-4.1,21.9-5.4c14.8-2.6,29.4-2.8,44.2-0.7c7.4,1,14.7,2.7,22,4.8
		c7.3,2.1,14.5,4.8,21.7,7.9c14.4,6.3,28.4,14.4,42.2,23.8c3.5,2.4,7.1,5,10.6,7.6"/>
	<path fill="none" stroke="#e5e7eb" stroke-miter-limit="10" d="M0,165.7c0.7,0.2,1.4,0.4,2.1,0.7c3.4,1.2,6.8,2.8,10.1,4.7
		c6.6,3.8,13,8.9,19.1,14.6c6.1,5.6,12.1,11.9,17.9,18.2c5.9,6.4,11.6,13,17.4,19.6c2.9,3.3,5.8,6.6,8.7,9.8
		c2.9,3.2,5.8,6.4,8.8,9.5c5.9,6.2,12,12.1,18.2,17.4c6.3,5.2,12.7,9.8,19.4,13.2c3.3,1.7,6.7,3.1,10.2,4.1c1.7,0.5,3.4,0.9,5.2,1.2
		c1.7,0.3,3.5,0.5,5.2,0.6c1.9,0.1,3.9,0.1,5.8,0c1.9-0.1,3.9-0.4,5.8-0.7c3.9-0.7,7.7-1.8,11.5-3.2c7.6-2.8,15.1-7,22.3-11.6
		c7.2-4.7,14.4-10.1,21.4-15.7c3.5-2.8,7-5.7,10.5-8.6c3.5-2.9,7-5.9,10.4-8.9c6.9-6,13.9-12,20.8-17.8c6.9-5.8,14-11.4,21.1-16.5
		c7-5.1,14.4-9.8,21.7-13.4c3.8-1.9,7.5-3.5,11.4-4.8s7.7-2.2,11.6-2.7c3.3-0.4,6.5-0.5,9.8-0.3c3.3,0.2,6.5,0.7,9.8,1.5
		c3.2,0.8,6.5,1.8,9.6,3c3.2,1.2,6.4,2.7,9.5,4.4c6.2,3.3,12.4,7.2,18.4,11.6c6,4.4,12,9.1,17.8,13.9c5.9,4.8,11.7,9.8,17.6,14.5
		c5.9,4.8,11.9,9.5,17.9,13.5c6.1,4.1,12.3,7.7,18.7,10.2c3.2,1.2,6.4,2.2,9.7,2.8c1.6,0.3,3.3,0.5,4.9,0.6c1.6,0.1,3.3,0.1,4.9-0.1
		c1.5-0.1,3-0.4,4.5-0.6c1.5-0.3,3-0.7,4.5-1.2c3-1,5.9-2.2,8.8-3.7c5.7-3,11.3-7.1,16.7-11.6c5.4-4.5,10.6-9.6,15.8-15
		c5.1-5.3,10.2-11,15.2-16.6c5-5.7,10-11.4,15-17c2.5-2.8,5-5.6,7.6-8.3c2.5-2.7,5.1-5.4,7.7-7.9c5.2-5.1,10.7-9.9,16.2-13.7
		c2.8-1.9,5.7-3.6,8.5-4.9c1.5-0.6,2.9-1.2,4.4-1.7c1.5-0.4,3-0.8,4.5-1c2.6-0.4,5.2-0.3,7.8,0.1s5.2,1.1,7.7,2.2
		c2.5,1,5,2.4,7.5,3.9c2.5,1.5,4.8,3.3,7.2,5.1c4.7,3.7,9.3,8,13.8,12.5c4.5,4.5,8.9,9.1,13.4,13.7c2.2,2.3,4.5,4.6,6.7,6.8
		c2.2,2.2,4.5,4.4,6.8,6.5c4.6,4.2,9.3,8,14.1,11.2c2.5,1.6,4.9,3,7.4,4.2c2.5,1.2,5.1,2.2,7.6,2.9c1.3,0.4,2.6,0.7,3.9,0.9
		c1.3,0.2,2.6,0.4,3.9,0.5c2.6,0.2,5.2,0,7.8-0.4c1.8-0.3,3.6-0.8,5.4-1.4c1.8-0.6,3.6-1.3,5.3-2.1c3.5-1.6,7-3.6,10.4-5.8
		c6.6-4.3,13.3-9.7,19.6-15.2c3.2-2.8,6.4-5.7,9.6-8.6c3.2-2.9,6.3-5.9,9.5-8.9c6.3-6,12.6-11.9,19-17.7
		c6.4-5.8,12.9-11.4,19.5-16.5c6.6-5.1,13.3-9.8,20.2-13.7c3.4-2,6.9-3.7,10.4-5.2c3.5-1.5,7.1-2.8,10.6-3.8c3.6-1,7.2-1.7,10.8-2.1
		c3.6-0.4,7.2-0.5,10.9-0.2c2.1,0.2,4.2,0.5,6.3,0.9c2.1,0.4,4.2,0.9,6.2,1.5c4.1,1.2,8.2,2.8,12.3,4.6c8.1,3.7,16.1,8.6,23.8,14
		c7.7,5.4,15.4,11.5,22.9,17.8c3.8,3.2,7.5,6.4,11.2,9.7c3.7,3.3,7.5,6.6,11.2,9.9c7.4,6.6,14.9,13.3,22.4,19.7
		c7.4,6.4,15.1,12.7,22.7,18.3c7.7,5.6,15.6,10.9,23.6,14.9c4,2,8.1,3.7,12.2,5.1c2.1,0.7,4.1,1.2,6.2,1.7c2.1,0.5,4.2,0.8,6.2,1
		c3.7,0.4,7.4,0.4,11.1-0.1c3.7-0.4,7.3-1.2,10.9-2.2c3.6-1.1,7.2-2.5,10.8-4.1c3.6-1.7,7.1-3.6,10.6-5.7
		c6.9-4.2,13.7-9.1,20.4-14.3c3.3-2.6,6.7-5.3,10-8.1c3.3-2.7,6.6-5.5,9.9-8.3c3.3-2.8,6.6-5.5,9.9-8.2c3.3-2.7,6.7-5.4,10-8
		c6.7-5.2,13.5-10,20.4-14.1c3.5-2.1,7-3.9,10.6-5.5c3.6-1.6,7.2-3,10.8-4c3.6-1.1,7.3-1.8,11-2.2c3.7-0.4,7.4-0.5,11-0.2
		c2.3,0.2,4.6,0.5,6.9,1s4.6,1.1,6.8,1.8c4.5,1.4,9,3.2,13.4,5.3c8.7,4.1,17.4,9.4,25.8,15c4.2,2.8,8.5,5.8,12.7,8.7
		c4.2,3,8.4,6,12.6,9.1c8.4,6.1,16.7,12.2,25.2,18c8.5,5.9,17.1,11.4,25.8,16.4c8.7,4.9,17.5,9.2,26.5,12.5c4.5,1.6,9.1,3,13.6,4.1
		c4.5,1.1,9.1,1.8,13.7,2.2c4.6,0.4,9.1,0.5,13.7,0.1c4.6-0.3,9.2-1.1,13.8-2.3c4.1-1,8.2-2.4,12.3-4c4.1-1.6,8.1-3.5,12.1-5.5
		c7.9-3.9,16.1-8.5,23.8-12.9c8-4.5,15.7-8.9,23.9-13c8-4.1,16-7.7,24.2-10.7c4.1-1.5,8.3-2.8,12.5-4c4.2-1.1,8.3-2.1,12.6-2.8
		c4.2-0.7,8.3-1.2,12.5-1.5c4.2-0.3,8.3-0.4,12.5-0.2c4.2,0.1,8.3,0.5,12.5,1c4.2,0.5,8.3,1.3,12.4,2.3c8.4,2,16.7,4.8,24.9,8.3
		c8.1,3.5,16,7.6,23.9,12.3s15.6,10,23.2,15.8c15.2,11.5,30.1,24.9,44.4,39.4c11.2,11.3,22.3,23.4,33.2,36.2"/>
	<path fill="none" stroke="#e5e7eb" stroke-miter-limit="10" d="M0,344.2c0.8-0.1,1.7-0.2,2.5-0.2c1.8-0.1,3.5-0.1,5.3,0c1.8,0.1,3.5,0.4,5.3,0.8
		s3.5,0.9,5.2,1.5c3.5,1.2,6.9,2.8,10.2,4.7c6.7,3.8,13.2,8.9,19.4,14.5c6.2,5.6,12.3,11.8,18.2,18.2c6,6.4,11.8,13,17.7,19.6
		c2.9,3.3,5.9,6.6,8.9,9.8c3,3.2,6,6.4,9,9.5c6,6.2,12.2,12.1,18.5,17.3c6.4,5.2,12.9,9.8,19.7,13.1c3.4,1.7,6.8,3.1,10.3,4.1
		c1.7,0.5,3.5,0.9,5.2,1.2c1.8,0.3,3.5,0.5,5.3,0.6c2,0.1,4,0.1,5.9,0c2-0.1,4-0.3,5.9-0.7c3.9-0.7,7.9-1.8,11.7-3.2
		c7.7-2.8,15.4-6.9,22.8-11.6c7.4-4.7,14.7-10,21.9-15.7c3.6-2.8,7.2-5.7,10.8-8.6c3.6-2.9,7.1-5.9,10.7-8.9
		c7.1-6,14.2-11.9,21.3-17.7c7.1-5.7,14.3-11.4,21.6-16.5c7.2-5.1,14.7-9.7,22.2-13.3c3.8-1.8,7.7-3.5,11.6-4.7
		c3.9-1.3,7.8-2.2,11.8-2.7c3.4-0.4,6.7-0.5,10.1-0.3c3.4,0.2,6.7,0.7,10,1.5c3.3,0.8,6.6,1.8,9.9,3c3.3,1.2,6.5,2.7,9.8,4.3
		c6.4,3.3,12.7,7.2,18.9,11.6c6.2,4.3,12.3,9.1,18.4,13.9c6.1,4.8,12.1,9.8,18.2,14.5c6,4.7,12.3,9.4,18.5,13.4
		c6.2,4.1,12.7,7.7,19.2,10.1c3.3,1.2,6.6,2.2,10,2.7c1.7,0.3,3.3,0.5,5,0.5c1.7,0.1,3.4,0.1,5-0.1c1.5-0.1,3.1-0.3,4.6-0.7
		c1.5-0.3,3.1-0.7,4.6-1.2c3-1,6.1-2.2,9-3.7c5.9-3,11.7-7,17.3-11.6c5.6-4.5,11.1-9.6,16.4-14.9c5.3-5.3,10.6-11,15.8-16.6
		c5.2-5.7,10.4-11.4,15.7-17c2.6-2.8,5.3-5.6,7.9-8.3c2.7-2.7,5.3-5.4,8-7.9c5.4-5.1,11.1-9.8,16.8-13.6c2.9-1.9,5.9-3.5,8.9-4.8
		c1.5-0.6,3-1.2,4.5-1.6c1.5-0.4,3-0.8,4.6-1c2.7-0.4,5.4-0.3,8.1,0.1c2.7,0.4,5.4,1.1,8,2.2c2.7,1,5.2,2.4,7.8,3.9
		c2.6,1.5,5.1,3.3,7.6,5.2c4.9,3.7,9.7,8,14.4,12.5c4.7,4.5,9.4,9.1,14.1,13.7c2.3,2.3,4.7,4.6,7.1,6.8c2.4,2.2,4.8,4.4,7.2,6.5
		c4.8,4.2,9.8,8,14.8,11.1c2.6,1.6,5.2,3,7.8,4.2c2.6,1.2,5.3,2.2,7.9,2.9c1.3,0.3,2.7,0.6,4,0.9c1.3,0.2,2.7,0.3,4.1,0.4
		c2.7,0.2,5.4,0,8.1-0.4c1.9-0.3,3.8-0.8,5.7-1.3c1.9-0.6,3.8-1.3,5.6-2.1c3.7-1.6,7.4-3.6,11-5.8c7-4.3,14.1-9.7,20.8-15.3
		c3.4-2.8,6.8-5.7,10.2-8.7c3.4-2.9,6.7-5.9,10.1-8.9c6.8-6,13.4-11.9,20.3-17.7c6.8-5.8,13.7-11.4,20.7-16.4
		c7-5.1,14.2-9.7,21.4-13.5c3.7-1.9,7.3-3.6,11-5.1c3.7-1.5,7.5-2.7,11.2-3.7c3.8-1,7.6-1.7,11.4-2c3.8-0.4,7.6-0.5,11.4-0.2
		c2.2,0.2,4.5,0.5,6.7,0.9c2.2,0.4,4.5,0.9,6.7,1.5c4.4,1.2,8.8,2.7,13.2,4.6c8.7,3.7,17.3,8.6,25.7,14c8.3,5.4,16.7,11.6,24.8,17.9
		c4.1,3.2,8.2,6.4,12.2,9.7c4.1,3.3,8.1,6.6,12.2,9.9c8.1,6.7,16.2,13.3,24.4,19.8c8.1,6.4,16.4,12.7,24.7,18.2
		c8.3,5.6,16.9,10.7,25.6,14.6c4.3,2,8.7,3.7,13.2,5c2.2,0.7,4.4,1.2,6.7,1.6c2.2,0.5,4.4,0.8,6.7,1c4,0.4,8.1,0.3,12.1-0.1
		c4.1-0.4,8.1-1.2,12-2.3c4-1.1,7.9-2.5,11.9-4.1c3.9-1.7,7.8-3.6,11.7-5.7c7.7-4.2,15.2-9.2,22.6-14.4c3.7-2.6,7.4-5.4,11.1-8.1
		c3.7-2.8,7.4-5.5,11.1-8.3c3.7-2.8,7.4-5.6,11.1-8.3c3.7-2.7,7.4-5.4,11.2-8c7.5-5.2,15-10,22.7-14c3.9-2,7.8-3.8,11.7-5.4
		c3.9-1.6,7.9-2.9,11.9-3.9c4-1,8-1.8,12-2.1c4-0.4,8-0.4,12.1-0.1c2.6,0.2,5.1,0.5,7.7,1c2.5,0.5,5.1,1.1,7.6,1.8
		c5.1,1.4,10.1,3.2,15.1,5.3c9.8,4.1,19.7,9.5,29.2,15.1c4.8,2.8,9.6,5.8,14.4,8.8c4.8,3,9.6,6.1,14.3,9.2c4.8,3.1,9.5,6.2,14.3,9.2
		c4.8,3,9.6,6,14.4,9c9.7,5.8,19.4,11.4,29.2,16.3c9.8,4.9,19.8,9.1,29.9,12.2c5.1,1.6,10.1,2.9,15.3,3.9c5.1,1,10.2,1.7,15.3,2.1
		s10.2,0.4,15.3,0c5.1-0.3,10.3-1.1,15.4-2.2c4-0.9,8-2,12-3.4c4-1.3,7.9-2.8,11.8-4.4c7.8-3.2,15.7-7,23.4-10.7
		c7.8-3.8,15.5-7.7,23.3-11.4c7.8-3.7,15.5-7.2,23.4-10.3c7.9-3.1,15.8-5.9,23.8-8.1c8-2.2,16-3.8,24.1-4.9c8.1-1,16.2-1.5,24.3-1.3
		c4.1,0.1,8.1,0.4,12.1,0.8c4,0.4,8.1,1,12.1,1.7c7.9,1,15.8,2.2,23.7,3.6"/>
	<path fill="none" stroke="#e5e7eb" stroke-miter-limit="10" d="M0,360.7c1.7-0.3,3.4-0.5,5.1-0.6c1.8-0.1,3.6-0.1,5.4,0c1.8,0.1,3.5,0.4,5.3,0.8
		c1.8,0.4,3.5,0.9,5.2,1.5c3.5,1.2,6.9,2.8,10.2,4.7c6.7,3.8,13.2,8.9,19.4,14.5c6.2,5.6,12.3,11.8,18.3,18.2
		c6,6.4,11.9,13,17.8,19.6c3,3.3,5.9,6.6,8.9,9.8c3,3.2,6,6.4,9,9.5c6,6.2,12.2,12.1,18.6,17.3c6.4,5.2,13,9.8,19.7,13.1
		c3.4,1.7,6.8,3,10.3,4.1c1.7,0.5,3.5,0.9,5.2,1.2c1.8,0.3,3.5,0.5,5.3,0.6c2,0.1,4,0.1,6,0c2-0.1,4-0.3,5.9-0.7
		c3.9-0.7,7.9-1.8,11.8-3.2c7.7-2.8,15.4-6.9,22.9-11.6c7.4-4.7,14.8-10.1,21.9-15.7c3.6-2.8,7.2-5.7,10.8-8.6
		c3.6-2.9,7.1-5.9,10.7-8.9c7.1-6,14.2-11.9,21.4-17.7c7.1-5.8,14.4-11.4,21.6-16.5c7.3-5,14.7-9.7,22.3-13.3
		c3.8-1.8,7.7-3.5,11.6-4.7c3.9-1.3,7.9-2.2,11.8-2.7c3.4-0.4,6.7-0.5,10.1-0.3s6.7,0.7,10,1.5c3.4,0.8,6.7,1.8,10,3
		c3.3,1.2,6.5,2.7,9.8,4.3c6.5,3.3,12.8,7.2,19,11.6c6.2,4.3,12.4,9.1,18.5,13.9c6.1,4.8,12.2,9.8,18.3,14.5
		c6.1,4.8,12.3,9.4,18.5,13.5c6.3,4.1,12.8,7.7,19.3,10.1c3.3,1.2,6.6,2.2,10,2.7c1.7,0.3,3.4,0.5,5,0.5s3.4,0.1,5.1-0.1
		c1.6-0.1,3.1-0.3,4.6-0.7c1.5-0.3,3.1-0.7,4.6-1.2c3.1-0.9,6.1-2.2,9.1-3.7c6-3,11.8-7,17.4-11.6c5.6-4.5,11.1-9.6,16.5-14.9
		c5.4-5.3,10.7-11,15.9-16.6c5.2-5.7,10.5-11.4,15.8-17c2.6-2.8,5.3-5.6,8-8.3c2.7-2.7,5.4-5.4,8.1-7.9c5.4-5.1,11.1-9.8,16.9-13.6
		c2.9-1.9,5.9-3.5,8.9-4.8c1.5-0.7,3-1.2,4.5-1.6c1.5-0.4,3.1-0.8,4.6-1c2.7-0.3,5.4-0.3,8.2,0.1c2.7,0.4,5.4,1.1,8.1,2.2
		c2.7,1,5.3,2.3,7.9,3.9c2.6,1.5,5.1,3.3,7.6,5.1c4.9,3.7,9.8,8,14.5,12.5c4.8,4.5,9.5,9.2,14.2,13.7c2.4,2.3,4.7,4.6,7.1,6.8
		c2.4,2.2,4.8,4.4,7.2,6.5c4.8,4.2,9.8,8,14.9,11.1c2.6,1.6,5.2,3,7.8,4.2c2.6,1.2,5.3,2.2,8,2.8c1.3,0.3,2.7,0.6,4.1,0.9
		c1.4,0.2,2.7,0.3,4.1,0.4c2.7,0.2,5.4,0,8.2-0.4c1.9-0.3,3.8-0.8,5.7-1.3c1.9-0.6,3.8-1.3,5.6-2.1c3.7-1.6,7.4-3.6,11-5.8
		c7.1-4.3,14.2-9.8,21-15.3c3.4-2.8,6.9-5.7,10.2-8.7c3.4-2.9,6.8-5.9,10.2-8.9c6.8-6,13.5-11.9,20.4-17.7
		c6.9-5.8,13.8-11.4,20.9-16.4c7.1-5.1,14.2-9.7,21.6-13.5c3.7-1.9,7.4-3.6,11.1-5.1c3.7-1.5,7.5-2.7,11.3-3.7c3.8-1,7.6-1.7,11.4-2
		c3.8-0.4,7.7-0.5,11.5-0.2c2.2,0.2,4.5,0.5,6.8,0.9s4.5,0.9,6.7,1.5c4.5,1.2,8.9,2.8,13.3,4.6c8.8,3.7,17.4,8.6,25.9,14
		c8.4,5.4,16.8,11.5,25,17.9c4.1,3.2,8.2,6.4,12.3,9.7c4.1,3.3,8.2,6.6,12.3,9.9c8.2,6.7,16.3,13.3,24.5,19.8
		c8.2,6.4,16.6,12.6,24.9,18.2c8.4,5.6,17.1,10.7,25.8,14.6c4.4,2,8.8,3.6,13.3,4.9c2.2,0.6,4.5,1.2,6.7,1.6c2.2,0.4,4.5,0.8,6.8,1
		c4.1,0.4,8.1,0.3,12.2,0c4.1-0.4,8.1-1.2,12.1-2.3c4-1.1,8-2.5,12-4.1s7.9-3.6,11.8-5.7c7.7-4.2,15.4-9.2,22.9-14.4
		c3.8-2.6,7.5-5.4,11.2-8.1c3.7-2.8,7.4-5.5,11.2-8.3c3.7-2.8,7.4-5.6,11.2-8.3c3.8-2.7,7.5-5.4,11.3-8c7.5-5.2,15.2-10,23-14
		c3.9-2,7.8-3.8,11.8-5.4c4-1.6,8-2.9,12-3.9c4-1,8.1-1.7,12.1-2.1c4.1-0.4,8.1-0.4,12.2-0.1c2.6,0.2,5.2,0.5,7.7,1
		c2.6,0.5,5.2,1.1,7.7,1.8c5.1,1.4,10.2,3.2,15.2,5.3c9.9,4.1,19.9,9.5,29.5,15.1c4.9,2.8,9.7,5.8,14.6,8.8c4.8,3,9.7,6.1,14.5,9.2
		c4.8,3.1,9.7,6.2,14.5,9.2c4.8,3,9.7,6,14.5,9c9.8,5.8,19.6,11.4,29.6,16.3c9.9,4.9,20,9,30.2,12.2c5.1,1.6,10.3,2.9,15.4,4
		c5.1,1,10.3,1.7,15.4,2.1c5.2,0.4,10.3,0.4,15.5,0c5.2-0.3,10.4-1.1,15.5-2.2c6.7-1.5,13.4-3.7,20.1-6.2c6.6-2.6,13.3-5.5,19.8-8.6
		c3.3-1.5,6.6-3.1,9.8-4.7c3.3-1.6,6.6-3.2,9.8-4.8c6.6-3.2,13.1-6.3,19.7-9.3c6.6-3,13.2-5.7,19.9-8.2c6.7-2.5,13.3-4.7,20.1-6.5
		c6.7-1.8,13.5-3.3,20.3-4.3c6.8-1,13.6-1.6,20.4-1.8c12.8-0.2,25.6,0.3,38.4,1.4c1.1,0.1,2.3,0.2,3.4,0.3"/>
	<path fill="none" stroke="#e5e7eb" stroke-miter-limit="10" d="M0,326.5h0.1c1.8-0.1,3.5-0.1,5.3,0c1.8,0.1,3.5,0.4,5.2,0.8
		c1.8,0.4,3.5,0.9,5.2,1.5c3.5,1.2,6.8,2.8,10.2,4.7c6.7,3.8,13.1,8.9,19.3,14.5c6.2,5.6,12.3,11.8,18.2,18.2
		c5.9,6.4,11.8,13,17.7,19.6c2.9,3.3,5.9,6.6,8.9,9.8c3,3.2,5.9,6.4,9,9.5c6,6.2,12.2,12.1,18.5,17.3c6.3,5.2,12.9,9.8,19.6,13.1
		c3.4,1.7,6.8,3,10.3,4.1c1.7,0.5,3.5,0.9,5.2,1.2c1.8,0.3,3.5,0.5,5.3,0.6c2,0.1,4,0.1,5.9,0c2-0.1,3.9-0.3,5.9-0.7
		c3.9-0.7,7.8-1.8,11.7-3.2c7.7-2.8,15.3-6.9,22.7-11.6c7.3-4.7,14.7-10,21.8-15.6c3.6-2.8,7.1-5.7,10.7-8.6
		c3.6-2.9,7.1-5.9,10.6-8.9c7.1-6,14.1-11.9,21.3-17.7c7.1-5.7,14.3-11.4,21.5-16.5c7.2-5.1,14.7-9.7,22.1-13.4
		c3.8-1.8,7.7-3.5,11.6-4.7c3.9-1.3,7.8-2.2,11.8-2.7c3.3-0.4,6.7-0.5,10-0.3c3.3,0.2,6.7,0.7,10,1.5c3.3,0.8,6.6,1.8,9.9,3
		c3.3,1.2,6.5,2.7,9.7,4.3c6.4,3.3,12.7,7.2,18.9,11.6c6.2,4.3,12.3,9.1,18.3,13.9c6,4.8,12.1,9.8,18.1,14.5
		c6,4.7,12.2,9.4,18.4,13.4c6.2,4.1,12.7,7.7,19.2,10.1c3.3,1.2,6.6,2.2,9.9,2.7c1.7,0.3,3.3,0.5,5,0.5c1.7,0.1,3.4,0.1,5-0.1
		c1.6-0.1,3.1-0.3,4.6-0.7c1.5-0.3,3-0.7,4.6-1.2c3-1,6-2.2,9-3.7c5.9-3,11.7-7,17.2-11.6c5.5-4.5,11-9.6,16.3-14.9
		c5.3-5.3,10.6-11,15.8-16.6c5.2-5.7,10.4-11.4,15.6-17c2.6-2.8,5.2-5.6,7.9-8.3c2.6-2.7,5.3-5.4,8-7.9c5.4-5,11-9.9,16.7-13.6
		c2.9-1.9,5.8-3.5,8.8-4.8c1.5-0.6,3-1.2,4.5-1.6c1.5-0.4,3-0.8,4.6-1c2.7-0.4,5.4-0.3,8.1,0.1c2.7,0.4,5.4,1.1,8,2.2
		s5.2,2.4,7.8,3.9c2.5,1.5,5.1,3.3,7.5,5.1c4.9,3.7,9.7,8,14.4,12.5c4.7,4.5,9.3,9.1,14,13.7c2.3,2.3,4.7,4.6,7,6.8
		c2.3,2.2,4.7,4.4,7.1,6.5c4.8,4.2,9.7,8,14.8,11.2c2.5,1.6,5.1,3,7.7,4.2s5.2,2.2,7.9,2.9c1.3,0.3,2.7,0.6,4,0.8
		c1.3,0.2,2.7,0.4,4,0.4c2.7,0.2,5.4,0,8.1-0.4c1.9-0.3,3.8-0.8,5.6-1.3c1.9-0.6,3.7-1.3,5.6-2.1c3.7-1.6,7.3-3.6,10.9-5.8
		c7-4.3,14-9.7,20.7-15.3c3.4-2.8,6.8-5.7,10.1-8.6c3.4-2.9,6.7-5.9,10-8.9c6.8-6,13.3-11.9,20.1-17.7c6.8-5.8,13.7-11.4,20.6-16.4
		c7-5.1,14.1-9.7,21.3-13.5c3.6-1.9,7.3-3.7,11-5.2c3.7-1.5,7.4-2.7,11.2-3.7c3.8-1,7.5-1.7,11.3-2c3.8-0.4,7.6-0.5,11.4-0.2
		c2.2,0.2,4.5,0.5,6.7,0.9s4.4,0.9,6.6,1.5c4.4,1.2,8.8,2.7,13.1,4.6c8.6,3.7,17.2,8.6,25.5,14c8.3,5.4,16.5,11.5,24.6,17.9
		c4.1,3.2,8.1,6.4,12.1,9.7c4,3.3,8,6.6,12,9.9c8,6.6,16,13.3,24.1,19.7c8,6.4,16.3,12.7,24.5,18.2c8.2,5.6,16.8,10.7,25.3,14.6
		c4.3,2,8.7,3.7,13.1,5c2.2,0.7,4.4,1.2,6.6,1.6c2.2,0.5,4.4,0.8,6.7,1c4,0.4,8,0.3,12-0.1c4-0.4,8-1.2,11.9-2.3
		c4-1.1,7.9-2.5,11.8-4.1s7.7-3.6,11.5-5.7c7.6-4.2,15.1-9.1,22.4-14.4c3.7-2.6,7.3-5.3,11-8.1c3.7-2.7,7.3-5.5,10.9-8.3
		c3.6-2.8,7.3-5.6,10.9-8.3c3.7-2.7,7.3-5.4,11-8c7.4-5.2,14.9-10,22.5-14c3.8-2,7.7-3.8,11.6-5.4c3.9-1.6,7.8-2.9,11.8-3.9
		c3.9-1,7.9-1.8,11.9-2.1c4-0.4,8-0.4,12-0.1c2.5,0.2,5.1,0.5,7.6,1c2.5,0.5,5.1,1.1,7.6,1.8c5,1.4,10,3.2,14.9,5.3
		c9.7,4.1,19.4,9.5,28.9,15.1c4.8,2.8,9.5,5.8,14.2,8.8c4.7,3,9.5,6.1,14.2,9.2c4.7,3.1,9.4,6.1,14.2,9.2c4.7,3,9.4,6,14.2,8.9
		c9.6,5.9,19.2,11.4,28.9,16.2c9.7,4.9,19.6,9.1,29.6,12.2c5,1.6,10,2.9,15.1,4c5,1,10.1,1.7,15.1,2.1c5.1,0.4,10.1,0.4,15.2,0
		c5.1-0.3,10.2-1.1,15.2-2.2c4.6-1,9.2-2.4,13.8-4c4.6-1.6,9.1-3.5,13.7-5.4c8.9-3.9,18.2-8.5,27-12.9c9.1-4.5,17.8-8.9,27-13
		c9.1-4,18.1-7.7,27.3-10.6c4.6-1.5,9.3-2.8,14-3.9c4.7-1.1,9.4-2,14.1-2.8c4.7-0.7,9.3-1.2,14-1.5c4.7-0.3,9.3-0.4,14-0.2
		c4.7,0.1,9.3,0.5,14,1c4.7,0.5,9.3,1.3,13.9,2.3c9.4,2,18.7,4.8,27.9,8.3c1.8,0.5,3.6,0.9,5.5,1.4"/>
	<path fill="none" stroke="#e5e7eb" stroke-miter-limit="10" d="M0,446.5c1.6-0.8,3.1-1.4,4.7-2.1c3.5-1.4,7-2.5,10.6-3.1c1.8-0.3,3.6-0.5,5.4-0.7
		c1.8-0.1,3.6-0.1,5.4,0c1.8,0.1,3.6,0.4,5.3,0.8c1.8,0.4,3.5,0.9,5.3,1.5c3.5,1.2,7,2.8,10.4,4.7c6.8,3.8,13.3,8.9,19.7,14.5
		c6.3,5.6,12.5,11.9,18.5,18.2c6.1,6.4,12.1,13,18,19.6c3,3.3,6,6.6,9,9.8c3,3.2,6.1,6.4,9.1,9.5c6.1,6.2,12.4,12.1,18.8,17.3
		c6.5,5.2,13.1,9.7,20,13.1c3.4,1.7,6.9,3,10.4,4c1.8,0.5,3.5,0.9,5.3,1.2c1.8,0.3,3.6,0.5,5.3,0.7c2,0.1,4,0.1,6.1,0
		c2-0.1,4-0.4,6-0.7c4-0.7,8-1.8,11.9-3.2c7.9-2.8,15.6-6.9,23.2-11.6c7.5-4.7,15-10.1,22.3-15.7c3.7-2.8,7.3-5.7,11-8.6
		c3.6-2.9,7.3-5.9,10.9-8.9c7.2-6,14.5-12,21.8-17.8c7.2-5.7,14.6-11.4,22-16.5c7.4-5.1,15-9.7,22.6-13.3c3.9-1.8,7.8-3.4,11.8-4.7
		s8-2.2,12-2.7c3.4-0.4,6.9-0.5,10.3-0.3c3.4,0.2,6.9,0.7,10.2,1.5c3.4,0.8,6.8,1.8,10.1,3s6.7,2.7,10,4.3c6.6,3.3,13,7.2,19.4,11.6
		s12.6,9.1,18.9,13.9c6.2,4.8,12.4,9.8,18.7,14.6c6.2,4.7,12.6,9.4,19,13.4c6.4,4.1,13,7.6,19.7,10c3.4,1.2,6.7,2.1,10.2,2.7
		c1.7,0.3,3.4,0.5,5.1,0.5c1.7,0.1,3.4,0,5.1-0.1c1.6-0.1,3.2-0.3,4.8-0.7c1.6-0.3,3.1-0.7,4.7-1.2c3.1-0.9,6.2-2.2,9.3-3.7
		c6.1-3,12-7,17.8-11.6c5.7-4.5,11.4-9.6,16.9-15c2.8-2.7,5.5-5.4,8.2-8.2c2.7-2.8,5.4-5.6,8.1-8.5c5.4-5.7,10.8-11.4,16.2-17
		c2.7-2.8,5.4-5.6,8.2-8.3c2.7-2.7,5.5-5.4,8.3-7.9c5.6-5,11.4-9.8,17.3-13.5c3-1.9,6-3.5,9.1-4.8c1.5-0.6,3.1-1.2,4.7-1.6
		c1.6-0.4,3.1-0.8,4.7-1c2.8-0.4,5.6-0.3,8.4,0c2.8,0.4,5.6,1.1,8.3,2.2c2.7,1,5.4,2.3,8.1,3.9c2.7,1.5,5.3,3.3,7.8,5.2
		c5.1,3.7,10.1,8.1,15,12.5c4.9,4.5,9.8,9.2,14.6,13.8c2.5,2.3,4.9,4.6,7.3,6.8c2.5,2.2,5,4.4,7.5,6.5c5,4.2,10.1,8,15.4,11.1
		c2.6,1.6,5.3,3,8,4.1c2.7,1.2,5.4,2.1,8.2,2.8c1.4,0.3,2.8,0.6,4.2,0.8c1.4,0.2,2.8,0.3,4.2,0.4c2.8,0.1,5.6,0,8.4-0.5
		c2-0.3,3.9-0.8,5.8-1.3c1.9-0.6,3.9-1.3,5.8-2.1c3.8-1.6,7.6-3.5,11.3-5.7c7.3-4.3,14.8-9.8,21.9-15.4c3.5-2.8,7.1-5.8,10.7-8.7
		c3.5-3,7-6,10.6-9c7.1-6,14-12,21.2-17.8c7.2-5.8,14.4-11.4,21.7-16.4c7.3-5.1,14.8-9.7,22.4-13.5c3.8-1.9,7.6-3.6,11.5-5.1
		c3.9-1.5,7.8-2.7,11.7-3.7c3.9-1,7.8-1.6,11.8-2s7.9-0.4,11.8-0.1c2.3,0.2,4.7,0.4,7,0.8c2.3,0.4,4.7,0.9,7,1.5
		c4.7,1.2,9.3,2.8,13.8,4.6c9.1,3.7,18.2,8.6,27,14c8.8,5.4,17.6,11.6,26.2,17.9c4.3,3.2,8.6,6.5,12.9,9.8c4.3,3.3,8.6,6.6,12.8,10
		c8.5,6.7,17.1,13.4,25.7,19.8c8.6,6.4,17.3,12.6,26.1,18.2c8.8,5.6,17.8,10.6,26.9,14.5c4.6,2,9.2,3.6,13.8,4.9
		c2.3,0.6,4.7,1.2,7,1.6c2.3,0.4,4.7,0.8,7,1c4.2,0.4,8.5,0.3,12.8-0.1c4.3-0.4,8.5-1.2,12.7-2.2c4.2-1.1,8.4-2.5,12.6-4.1
		c4.1-1.7,8.3-3.6,12.4-5.7c8.1-4.2,16.2-9.2,24.1-14.5c4-2.6,7.9-5.4,11.8-8.1c3.9-2.8,7.9-5.6,11.8-8.4c3.9-2.8,7.9-5.6,11.8-8.3
		c3.9-2.7,7.9-5.4,11.9-8c8-5.2,16-9.9,24.2-13.9c4.1-2,8.2-3.8,12.4-5.3c4.2-1.6,8.3-2.9,12.6-3.9s8.5-1.7,12.7-2.1
		c4.3-0.4,8.5-0.4,12.8-0.1c2.7,0.2,5.4,0.5,8.1,1c2.7,0.5,5.4,1.1,8.1,1.8c5.4,1.4,10.7,3.2,16.1,5.3c10.4,4.1,21,9.5,31.2,15.1
		c5.1,2.8,10.3,5.8,15.4,8.8c5.1,3,10.2,6.1,15.3,9.2c5.1,3.1,10.2,6.2,15.3,9.2c5.1,3,10.2,6,15.4,9c10.3,5.9,20.7,11.4,31.2,16.3
		c10.5,4.8,21.1,9,31.8,12.2c5.4,1.6,10.8,2.9,16.2,3.9c5.4,1,10.8,1.7,16.2,2.1c5.4,0.3,10.9,0.4,16.3,0c5.5-0.3,10.9-1.1,16.3-2.2
		c0.6-0.1,1.3-0.3,1.9-0.4c6.9-1.1,13.9-2.5,20.8-4.2c6.9-1.6,13.8-3.5,20.7-5.4c6.9-1.9,13.8-4,20.6-6.1c6.9-2.1,13.7-4.2,20.6-6.3
		c14-4.3,27.3-8.2,41.3-12c2.4-0.6,4.8-1.3,7.2-1.9"/>
	<path fill="none" stroke="#e5e7eb" stroke-miter-limit="10" d="M0,411.4c2.8-1,5.7-1.8,8.5-2.3c1.8-0.3,3.6-0.5,5.4-0.7c1.8-0.1,3.6-0.1,5.4,0
		c1.8,0.1,3.5,0.4,5.3,0.8c1.8,0.4,3.5,0.9,5.3,1.5c3.5,1.2,6.9,2.8,10.3,4.7c6.7,3.8,13.3,8.9,19.6,14.5
		c6.2,5.6,12.4,11.9,18.4,18.2c6,6.4,12,13,17.9,19.6c3,3.3,6,6.6,9,9.8c3,3.2,6,6.4,9.1,9.5c6.1,6.2,12.3,12.1,18.7,17.3
		c6.4,5.2,13.1,9.8,19.9,13.1c3.4,1.7,6.9,3,10.4,4.1c1.8,0.5,3.5,0.9,5.3,1.2c1.8,0.3,3.5,0.5,5.3,0.7c2,0.1,4,0.1,6,0
		c2-0.1,4-0.3,6-0.7c4-0.7,7.9-1.8,11.9-3.2c7.8-2.8,15.6-6.9,23.1-11.6c7.4-4.7,14.9-10.1,22.1-15.7c3.6-2.8,7.3-5.7,10.9-8.6
		c3.6-2.9,7.2-5.9,10.8-8.9c7.2-6,14.4-12,21.6-17.7c7.2-5.8,14.5-11.4,21.9-16.5c7.3-5.1,14.9-9.7,22.5-13.3
		c3.9-1.8,7.8-3.5,11.7-4.7c4-1.3,7.9-2.2,11.9-2.7c3.4-0.4,6.8-0.5,10.2-0.3s6.8,0.7,10.2,1.5c3.4,0.8,6.7,1.8,10,3
		c3.3,1.2,6.6,2.7,9.9,4.3c6.5,3.3,12.9,7.2,19.2,11.6c6.3,4.4,12.5,9.1,18.7,13.9c6.2,4.8,12.3,9.8,18.5,14.6
		c6.1,4.7,12.5,9.4,18.8,13.4c6.4,4.1,12.9,7.7,19.5,10.1c3.3,1.2,6.7,2.1,10.1,2.7c1.7,0.3,3.4,0.5,5.1,0.5
		c1.7,0.1,3.4,0.1,5.1-0.1c1.6-0.1,3.1-0.3,4.7-0.7s3.1-0.7,4.7-1.2c3.1-1,6.2-2.2,9.2-3.7c6-3,11.9-7,17.6-11.6
		c5.7-4.5,11.3-9.6,16.7-15c5.5-5.3,10.8-11,16.2-16.7c5.3-5.7,10.7-11.4,16-17c2.7-2.8,5.4-5.6,8.1-8.3c2.7-2.7,5.4-5.3,8.2-7.9
		c5.5-5.1,11.3-9.8,17.1-13.5c3-1.9,6-3.5,9-4.8c1.5-0.6,3.1-1.2,4.6-1.6c1.5-0.4,3.1-0.8,4.7-1c2.8-0.3,5.5-0.3,8.3,0
		c2.8,0.4,5.5,1.1,8.2,2.2c2.7,1,5.4,2.3,8,3.9c2.6,1.5,5.2,3.3,7.7,5.2c5,3.7,10,8.1,14.8,12.5c4.8,4.5,9.6,9.2,14.4,13.8
		c2.4,2.3,4.8,4.6,7.2,6.8c2.4,2.2,4.9,4.4,7.3,6.5c5,4.2,10,8,15.2,11.1c2.6,1.6,5.2,3,7.9,4.2c2.7,1.2,5.4,2.1,8.1,2.8
		c1.4,0.3,2.7,0.6,4.1,0.8c1.4,0.2,2.8,0.3,4.1,0.4c2.8,0.1,5.5,0,8.3-0.5c1.9-0.3,3.9-0.8,5.8-1.3c1.9-0.6,3.8-1.3,5.7-2.1
		c3.8-1.6,7.5-3.5,11.2-5.7c7.2-4.3,14.6-9.8,21.5-15.4c3.5-2.8,7-5.7,10.5-8.7c3.5-3,7-6,10.4-8.9c7-6,13.8-12,20.9-17.8
		c7-5.8,14.1-11.4,21.4-16.4c7.2-5.1,14.5-9.7,22-13.5c3.8-1.9,7.5-3.6,11.3-5.1c3.8-1.5,7.7-2.7,11.5-3.7s7.8-1.7,11.6-2
		c3.9-0.4,7.8-0.4,11.7-0.2c2.3,0.2,4.6,0.5,6.9,0.8c2.3,0.4,4.6,0.9,6.9,1.5c4.6,1.2,9.1,2.8,13.6,4.6c9,3.7,17.9,8.6,26.5,14
		c8.6,5.4,17.3,11.6,25.7,17.9c4.2,3.2,8.5,6.5,12.7,9.7c4.2,3.3,8.4,6.6,12.6,10c8.4,6.7,16.8,13.3,25.2,19.8
		c8.4,6.4,17,12.6,25.6,18.2c8.6,5.6,17.5,10.7,26.4,14.5c4.5,2,9,3.6,13.6,4.9c2.3,0.6,4.6,1.2,6.9,1.6s4.6,0.8,6.9,1
		c4.2,0.4,8.4,0.4,12.5-0.1c4.2-0.4,8.3-1.2,12.5-2.2c4.1-1.1,8.2-2.5,12.3-4.2c4.1-1.7,8.1-3.6,12.1-5.7c8-4.2,15.8-9.2,23.6-14.5
		c3.9-2.6,7.7-5.4,11.6-8.1c3.9-2.8,7.7-5.5,11.6-8.3c3.8-2.8,7.7-5.6,11.6-8.3c3.9-2.7,7.8-5.4,11.6-8c7.8-5.2,15.7-9.9,23.7-13.9
		c4-2,8.1-3.8,12.2-5.4c4.1-1.6,8.2-2.9,12.3-3.9c4.1-1,8.3-1.7,12.5-2.1c4.2-0.4,8.4-0.4,12.5-0.1c2.7,0.2,5.3,0.5,8,1
		c2.7,0.5,5.3,1.1,7.9,1.8c5.3,1.4,10.5,3.2,15.7,5.3c10.2,4.1,20.5,9.5,30.5,15.1c5,2.8,10.1,5.8,15.1,8.8c5,3,10,6.1,15,9.2
		s10,6.2,15,9.2c5,3,10,6,15,9c10.1,5.9,20.3,11.4,30.6,16.3c10.3,4.8,20.7,9,31.2,12.2c5.3,1.6,10.6,2.9,15.9,3.9
		c5.3,1,10.6,1.7,15.9,2.1c5.3,0.3,10.7,0.4,16,0c5.4-0.3,10.7-1.1,16-2.2c5.6-1.2,11.2-2.8,16.8-4.8c5.6-1.9,11.1-4.2,16.6-6.6
		c5.5-2.4,11-4.9,16.5-7.5c5.5-2.6,10.9-5.2,16.4-7.7c13.4-4.3,26.4-8.3,39.8-11.9c13.4-3.6,26.6-6.6,40.1-9
		c5.2-0.9,10.4-1.8,15.6-2.5"/>
	<path fill="none" stroke="#e5e7eb" stroke-miter-limit="10" d="M0,377.4c0.8-0.2,1.7-0.4,2.5-0.5c1.8-0.3,3.6-0.5,5.3-0.7c1.8-0.1,3.6-0.1,5.3,0
		c1.8,0.1,3.5,0.4,5.3,0.8c1.8,0.4,3.5,0.9,5.2,1.5c3.5,1.2,6.9,2.8,10.3,4.7c6.7,3.8,13.2,8.9,19.5,14.5
		c6.2,5.6,12.3,11.9,18.3,18.2c6,6.4,11.9,13,17.8,19.6c3,3.3,5.9,6.6,8.9,9.8c3,3.2,6,6.4,9,9.5c6.1,6.2,12.3,12.1,18.6,17.3
		c6.4,5.2,13,9.8,19.8,13.1c3.4,1.7,6.8,3,10.3,4.1c1.7,0.5,3.5,0.9,5.2,1.2c1.8,0.3,3.5,0.5,5.3,0.7c2,0.1,4,0.1,6,0
		c2-0.1,4-0.3,5.9-0.7c4-0.7,7.9-1.8,11.8-3.2c7.8-2.8,15.5-6.9,22.9-11.6c7.4-4.7,14.8-10.1,22-15.7c3.6-2.8,7.2-5.7,10.8-8.6
		c3.6-2.9,7.2-5.9,10.8-8.9c7.1-5.9,14.3-11.9,21.5-17.7c7.1-5.8,14.4-11.4,21.7-16.5c7.3-5.1,14.8-9.7,22.3-13.3
		c3.9-1.8,7.7-3.5,11.7-4.7c3.9-1.3,7.9-2.2,11.9-2.7c3.4-0.4,6.8-0.5,10.1-0.3c3.4,0.2,6.7,0.7,10.1,1.5c3.4,0.8,6.7,1.8,10,3
		c3.3,1.2,6.6,2.7,9.8,4.3c6.5,3.3,12.8,7.2,19.1,11.6c6.2,4.3,12.4,9.1,18.5,13.9c6.1,4.8,12.2,9.8,18.3,14.5
		c6.1,4.8,12.4,9.4,18.6,13.5c6.3,4.1,12.8,7.7,19.4,10.1c3.3,1.2,6.6,2.2,10,2.7c1.7,0.3,3.4,0.5,5.1,0.5c1.7,0.1,3.4,0,5.1-0.1
		c1.6-0.1,3.1-0.3,4.7-0.7c1.6-0.3,3.1-0.7,4.6-1.2c3.1-1,6.1-2.2,9.1-3.7c6-3,11.8-7,17.5-11.6c5.6-4.5,11.2-9.6,16.5-14.9
		c5.4-5.3,10.7-11,16-16.6c5.3-5.7,10.5-11.4,15.8-17c2.7-2.8,5.3-5.6,8-8.3c2.7-2.7,5.4-5.3,8.1-7.9c5.5-5,11.2-9.8,17-13.6
		c2.9-1.9,5.9-3.5,8.9-4.8c1.5-0.6,3-1.2,4.6-1.6c1.5-0.4,3.1-0.8,4.7-1c2.7-0.3,5.5-0.3,8.2,0.1c2.7,0.4,5.4,1.2,8.1,2.2
		c2.7,1,5.3,2.3,7.9,3.9c2.6,1.5,5.2,3.3,7.7,5.2c5,3.7,9.9,8,14.6,12.5c4.8,4.5,9.5,9.2,14.2,13.8c2.4,2.3,4.8,4.6,7.2,6.8
		c2.4,2.2,4.8,4.4,7.2,6.5c4.9,4.2,9.9,8,15,11.1c2.6,1.6,5.2,3,7.8,4.2c2.6,1.2,5.3,2.2,8,2.9c1.4,0.3,2.7,0.6,4.1,0.8
		c1.4,0.2,2.7,0.3,4.1,0.4c2.7,0.2,5.5,0,8.2-0.4c1.9-0.3,3.8-0.8,5.7-1.3c1.9-0.6,3.8-1.3,5.7-2.1c3.7-1.6,7.5-3.6,11.1-5.8
		c7.1-4.3,14.3-9.8,21.1-15.3c3.5-2.8,6.9-5.7,10.3-8.7c3.4-2.9,6.9-5.9,10.3-8.9c6.9-6,13.6-11.9,20.6-17.7
		c6.9-5.8,13.9-11.4,21-16.4s14.3-9.7,21.7-13.5c3.7-1.9,7.4-3.6,11.2-5.1c3.8-1.5,7.5-2.7,11.3-3.7c3.8-1,7.7-1.7,11.5-2
		c3.8-0.4,7.7-0.4,11.5-0.2c2.3,0.2,4.5,0.5,6.8,0.9s4.5,0.9,6.8,1.5c4.5,1.2,9,2.8,13.4,4.6c8.8,3.7,17.6,8.6,26.1,14
		c8.5,5.4,17,11.6,25.2,17.9c4.2,3.2,8.3,6.4,12.4,9.7c4.1,3.3,8.2,6.6,12.4,10c8.2,6.6,16.5,13.3,24.8,19.8
		c8.3,6.4,16.7,12.7,25.2,18.2c8.5,5.6,17.2,10.7,26,14.6c4.4,2,8.9,3.6,13.4,4.9c2.2,0.7,4.5,1.2,6.8,1.6s4.5,0.8,6.8,1
		c4.1,0.4,8.2,0.3,12.3-0.1c4.1-0.4,8.2-1.2,12.3-2.2c4.1-1.1,8.1-2.5,12.1-4.2c4-1.7,8-3.6,11.9-5.7c7.8-4.2,15.5-9.2,23.1-14.4
		c3.8-2.6,7.6-5.4,11.4-8.1c3.8-2.8,7.5-5.6,11.3-8.3c3.8-2.8,7.5-5.6,11.3-8.3c3.8-2.7,7.6-5.4,11.4-8c7.6-5.2,15.3-10,23.2-14
		c3.9-2,7.9-3.8,11.9-5.4c4-1.6,8-2.9,12.1-3.9c4.1-1,8.1-1.7,12.2-2.1s8.2-0.4,12.3-0.1c2.6,0.2,5.2,0.5,7.8,1
		c2.6,0.5,5.2,1.1,7.8,1.8c5.2,1.4,10.3,3.2,15.4,5.3c10,4.1,20.1,9.5,29.9,15.1c4.9,2.8,9.8,5.8,14.7,8.8c4.9,3,9.8,6.1,14.7,9.2
		c4.9,3.1,9.8,6.2,14.7,9.2c4.9,3,9.8,6,14.7,9c9.9,5.9,19.8,11.4,29.9,16.3c10.1,4.8,20.2,9,30.5,12.2c5.2,1.6,10.3,2.9,15.6,3.9
		c5.2,1,10.4,1.7,15.6,2.1c5.2,0.4,10.4,0.4,15.7,0c5.2-0.3,10.5-1.1,15.7-2.2c5.5-1.2,10.9-2.8,16.3-4.8c5.4-1.9,10.8-4.1,16.1-6.5
		c5.3-2.3,10.7-4.9,16-7.4c5.3-2.5,10.6-5.1,15.9-7.7c10.8-5.1,21.2-9.9,32.1-14.1c10.8-4.2,21.6-7.6,32.6-10c13-2,26-3.2,39.1-3.8
		c6.9-0.3,13.8-0.4,20.7-0.3"/>
	<path fill="none" stroke="#e5e7eb" stroke-miter-limit="10" d="M0,428.8c0.4-0.2,0.8-0.3,1.3-0.5c3.5-1.4,7-2.5,10.6-3.1c1.8-0.3,3.6-0.5,5.4-0.7
		c1.8-0.1,3.6-0.1,5.4,0c1.8,0.1,3.5,0.4,5.3,0.8c1.8,0.4,3.5,0.9,5.3,1.5c3.5,1.2,6.9,2.8,10.3,4.7c6.7,3.8,13.3,8.9,19.6,14.5
		c6.3,5.6,12.5,11.9,18.5,18.2c6,6.4,12,13.1,18,19.6c3,3.3,6,6.6,9,9.8c3,3.2,6.1,6.4,9.1,9.5c6.1,6.2,12.4,12.1,18.8,17.3
		c6.4,5.2,13.1,9.8,19.9,13.1c3.4,1.7,6.9,3,10.4,4c1.8,0.5,3.5,0.9,5.3,1.2c1.8,0.3,3.5,0.5,5.3,0.7c2,0.1,4,0.1,6,0s4-0.4,6-0.7
		c4-0.7,8-1.8,11.9-3.2c7.8-2.8,15.6-6.9,23.1-11.6c7.5-4.7,15-10.1,22.2-15.7c3.6-2.8,7.3-5.7,10.9-8.6c3.6-2.9,7.2-5.9,10.9-8.9
		c7.2-6,14.4-11.9,21.7-17.7c7.2-5.8,14.6-11.4,22-16.5c7.4-5.1,14.9-9.7,22.5-13.3c3.9-1.8,7.8-3.5,11.8-4.7c4-1.3,8-2.2,12-2.7
		c3.4-0.4,6.8-0.5,10.2-0.3c3.4,0.2,6.8,0.7,10.2,1.5c3.4,0.8,6.8,1.8,10.1,3s6.6,2.7,9.9,4.4c6.5,3.3,13,7.2,19.3,11.6
		c6.3,4.3,12.6,9.1,18.8,13.9c6.2,4.8,12.4,9.8,18.6,14.6c6.2,4.7,12.5,9.4,18.9,13.4c6.4,4.1,13,7.6,19.6,10
		c3.4,1.2,6.7,2.1,10.1,2.7c1.7,0.3,3.4,0.5,5.1,0.5c1.7,0.1,3.4,0.1,5.1-0.1c1.6-0.1,3.2-0.3,4.7-0.7c1.6-0.3,3.1-0.7,4.7-1.2
		c3.1-1,6.2-2.2,9.2-3.7c6-3,12-7,17.7-11.6c5.7-4.5,11.3-9.6,16.8-15s10.9-11,16.3-16.7c5.4-5.7,10.7-11.4,16.1-17
		c2.7-2.8,5.4-5.6,8.1-8.3c2.7-2.7,5.5-5.4,8.3-7.9c5.5-5,11.3-9.8,17.2-13.5c3-1.9,6-3.5,9.1-4.8c1.5-0.6,3.1-1.2,4.6-1.6
		c1.6-0.5,3.1-0.8,4.7-1c2.8-0.3,5.6-0.3,8.3,0.1c2.8,0.4,5.5,1.1,8.2,2.2c2.7,1,5.4,2.3,8,3.9s5.2,3.3,7.8,5.1
		c5,3.7,10,8.1,14.9,12.5c4.9,4.5,9.7,9.2,14.5,13.8c2.4,2.3,4.9,4.6,7.3,6.8s4.9,4.4,7.4,6.5c5,4.2,10.1,8,15.3,11.1
		c2.6,1.6,5.3,3,8,4.1c2.7,1.2,5.4,2.1,8.2,2.8c1.4,0.3,2.8,0.6,4.1,0.8c1.4,0.2,2.8,0.4,4.2,0.4c2.8,0.1,5.5,0,8.3-0.5
		c2-0.3,3.9-0.8,5.8-1.3c1.9-0.6,3.8-1.3,5.8-2.1c3.8-1.6,7.6-3.5,11.3-5.7c7.3-4.4,14.7-9.8,21.7-15.4c3.5-2.8,7.1-5.8,10.6-8.7
		c3.5-3,7-5.9,10.5-9c7-6,13.9-12,21-17.8c7.1-5.8,14.2-11.4,21.5-16.4c7.3-5.1,14.7-9.7,22.2-13.5c3.8-1.9,7.6-3.6,11.4-5.1
		c3.8-1.5,7.7-2.7,11.6-3.7c3.9-1,7.8-1.6,11.7-2c3.9-0.4,7.8-0.4,11.8-0.1c2.3,0.2,4.7,0.4,7,0.8c2.3,0.4,4.6,0.9,6.9,1.5
		c4.6,1.2,9.2,2.8,13.7,4.6c9,3.7,18,8.6,26.8,14c8.7,5.4,17.4,11.6,25.9,17.9c4.3,3.2,8.5,6.5,12.8,9.7c4.2,3.3,8.5,6.6,12.7,10
		c8.5,6.7,16.9,13.3,25.4,19.8c8.5,6.4,17.2,12.7,25.8,18.2c8.7,5.6,17.7,10.6,26.7,14.5c4.5,2,9.1,3.6,13.7,4.9
		c2.3,0.7,4.6,1.2,6.9,1.6c2.3,0.4,4.6,0.8,7,1c4.2,0.4,8.4,0.3,12.7-0.1c4.2-0.4,8.4-1.2,12.6-2.2c4.2-1.1,8.3-2.5,12.4-4.1
		c4.1-1.7,8.2-3.6,12.2-5.7c8.1-4.2,16-9.2,23.8-14.5c3.9-2.6,7.8-5.4,11.7-8.1c3.9-2.8,7.8-5.6,11.7-8.3c3.9-2.8,7.8-5.6,11.7-8.3
		c3.9-2.7,7.8-5.4,11.8-8c7.9-5.2,15.8-9.9,23.9-13.9c4.1-2,8.2-3.8,12.3-5.3c4.1-1.6,8.3-2.9,12.5-3.9c4.2-1,8.4-1.7,12.6-2.1
		c4.2-0.4,8.4-0.4,12.7-0.1c2.7,0.2,5.4,0.5,8.1,1c2.7,0.5,5.4,1.1,8,1.8c5.3,1.4,10.6,3.2,15.9,5.3c10.3,4.1,20.8,9.5,30.9,15.1
		c5.1,2.8,10.2,5.8,15.2,8.8c5.1,3,10.1,6.1,15.2,9.2c5.1,3.1,10.1,6.2,15.2,9.2c5.1,3,10.1,6,15.2,9c10.2,5.9,20.5,11.4,30.9,16.2
		c10.4,4.9,20.9,9,31.5,12.2c5.3,1.6,10.7,2.9,16.1,3.9c5.3,1,10.7,1.7,16.1,2.1c5.4,0.4,10.7,0.4,16.1,0c5.4-0.3,10.8-1.1,16.2-2.2
		c5.8-1.2,11.6-2.9,17.3-4.9c5.7-2,11.4-4.3,17.1-6.7c6.8-2,13.5-4.2,20.2-6.3c6.8-2.2,13.5-4.3,20.2-6.5c13.7-4.3,26.8-8.3,40.6-12
		c10.8-2.9,21.5-5.5,32.3-7.7"/>
	<path fill="none" stroke="#e5e7eb" stroke-miter-limit="10" d="M0,394.3c1.8-0.5,3.6-1,5.4-1.3c1.8-0.3,3.5-0.5,5.3-0.7c1.8-0.1,3.6-0.1,5.3,0
		c1.8,0.1,3.5,0.4,5.3,0.8c1.8,0.4,3.5,0.9,5.2,1.5c3.5,1.2,6.9,2.8,10.3,4.7c6.7,3.8,13.2,8.9,19.5,14.5
		c6.2,5.6,12.4,11.9,18.3,18.2c6,6.4,11.9,13,17.9,19.6c3,3.3,5.9,6.6,8.9,9.8c3,3.2,6,6.4,9.1,9.5c6.1,6.2,12.3,12.1,18.7,17.3
		c6.4,5.2,13,9.8,19.8,13.1c3.4,1.7,6.9,3,10.4,4c1.8,0.5,3.5,0.9,5.3,1.2c1.8,0.3,3.5,0.5,5.3,0.7c2,0.1,4,0.1,6,0
		c2-0.1,4-0.3,6-0.7c4-0.7,7.9-1.8,11.8-3.2c7.8-2.8,15.5-6.9,23-11.6c7.4-4.7,14.9-10.1,22.1-15.7c3.6-2.8,7.2-5.7,10.9-8.6
		c3.6-2.9,7.2-5.9,10.8-8.9c7.2-6,14.3-12,21.5-17.7c7.1-5.8,14.5-11.4,21.8-16.5c7.3-5.1,14.8-9.7,22.4-13.3
		c3.9-1.8,7.8-3.5,11.7-4.7c3.9-1.3,7.9-2.2,11.9-2.7c3.4-0.4,6.8-0.5,10.2-0.3c3.4,0.2,6.8,0.7,10.1,1.5c3.4,0.8,6.7,1.8,10,3
		c3.3,1.2,6.6,2.7,9.9,4.3c6.5,3.3,12.9,7.2,19.1,11.6c6.3,4.3,12.5,9.1,18.6,13.9c6.1,4.8,12.3,9.8,18.4,14.5
		c6.1,4.7,12.4,9.4,18.7,13.4c6.3,4.1,12.9,7.7,19.5,10.1c3.3,1.2,6.7,2.2,10,2.7c1.7,0.3,3.4,0.5,5.1,0.5c1.7,0.1,3.4,0.1,5.1-0.1
		c1.6-0.1,3.1-0.3,4.7-0.7c1.5-0.3,3.1-0.7,4.6-1.2c3.1-1,6.2-2.2,9.2-3.7c6-3,11.9-7,17.6-11.6c5.6-4.5,11.2-9.6,16.6-15
		c5.4-5.3,10.8-11,16.1-16.7c5.3-5.7,10.6-11.4,15.9-17c2.7-2.8,5.3-5.6,8-8.3s5.4-5.4,8.2-7.9c5.5-5,11.2-9.8,17-13.6
		c2.9-1.9,5.9-3.5,9-4.8c1.5-0.6,3-1.2,4.6-1.6c1.5-0.4,3.1-0.8,4.7-1c2.8-0.3,5.5-0.3,8.3,0.1c2.7,0.4,5.5,1.1,8.2,2.2
		c2.7,1,5.3,2.3,7.9,3.9c2.6,1.5,5.2,3.2,7.7,5.1c5,3.7,9.9,8.1,14.7,12.5c4.8,4.5,9.6,9.2,14.3,13.8c2.4,2.3,4.8,4.6,7.2,6.8
		c2.4,2.2,4.8,4.4,7.3,6.5c4.9,4.2,9.9,8,15.1,11.1c2.6,1.6,5.2,3,7.9,4.2c2.7,1.2,5.4,2.1,8.1,2.8c1.4,0.3,2.7,0.6,4.1,0.8
		c1.4,0.2,2.7,0.3,4.1,0.4c2.8,0.2,5.5,0,8.2-0.4c1.9-0.3,3.9-0.8,5.8-1.3c1.9-0.6,3.8-1.3,5.7-2.1c3.8-1.6,7.5-3.6,11.2-5.8
		c7.2-4.3,14.4-9.8,21.3-15.3c3.5-2.8,7-5.7,10.4-8.7c3.5-2.9,6.9-5.9,10.3-8.9c7-6,13.7-11.9,20.7-17.8c7-5.8,14-11.4,21.2-16.4
		c7.2-5.1,14.5-9.7,21.9-13.5c3.7-1.9,7.5-3.6,11.3-5.1c3.8-1.5,7.6-2.7,11.4-3.7c3.8-1,7.7-1.7,11.6-2c3.9-0.4,7.8-0.4,11.6-0.2
		c2.3,0.2,4.6,0.5,6.9,0.8c2.3,0.4,4.5,0.9,6.8,1.5c4.5,1.2,9,2.8,13.5,4.6c8.9,3.7,17.7,8.6,26.3,14c8.5,5.4,17.1,11.6,25.5,17.9
		c4.2,3.2,8.4,6.4,12.5,9.7c4.2,3.3,8.3,6.6,12.5,10c8.3,6.7,16.6,13.3,25,19.8c8.3,6.4,16.8,12.7,25.4,18.2
		c8.5,5.6,17.3,10.7,26.2,14.5c4.4,2,8.9,3.6,13.5,4.9c2.3,0.7,4.5,1.2,6.8,1.6c2.3,0.4,4.6,0.8,6.9,1c4.2,0.4,8.3,0.3,12.4-0.1
		c4.1-0.4,8.3-1.2,12.4-2.2s8.2-2.5,12.2-4.2c4-1.7,8-3.6,12-5.7c7.9-4.2,15.7-9.2,23.3-14.4c3.8-2.6,7.7-5.4,11.5-8.1
		c3.8-2.8,7.6-5.6,11.4-8.3c3.8-2.8,7.6-5.6,11.4-8.3s7.7-5.4,11.5-8c7.7-5.2,15.5-10,23.4-13.9c4-2,8-3.8,12-5.4
		c4.1-1.6,8.1-2.9,12.2-3.9c4.1-1,8.2-1.7,12.4-2.1c4.1-0.4,8.3-0.4,12.4-0.1c2.6,0.2,5.3,0.5,7.9,1c2.6,0.5,5.2,1.1,7.9,1.8
		c5.2,1.4,10.4,3.2,15.5,5.3c10.1,4.1,20.3,9.5,30.2,15.1c5,2.8,10,5.8,14.9,8.8c4.9,3,9.9,6.1,14.8,9.2c4.9,3.1,9.9,6.2,14.8,9.2
		c4.9,3,9.9,6,14.9,9c10,5.9,20.1,11.4,30.2,16.2c10.2,4.9,20.4,9,30.8,12.2c5.2,1.6,10.5,2.9,15.7,3.9c5.2,1,10.5,1.7,15.8,2.1
		c5.3,0.4,10.5,0.4,15.8,0c5.3-0.3,10.6-1.1,15.8-2.2c4.2-0.9,8.3-2,12.4-3.4c4.1-1.3,8.2-2.9,12.3-4.5c8.1-3.2,16.4-7,24.4-10.9
		c8.1-3.8,16.2-7.8,24.3-11.5c8.2-3.8,16.2-7.2,24.4-10.4c13.2-3.5,26.2-6.3,39.4-8.5c12.8-2.1,25.5-3.6,38.3-4.5"/>
	<path fill="none" stroke="#e5e7eb" stroke-miter-limit="10" d="M0,278.2c1.6,0.1,3.1,0.4,4.6,0.7c1.7,0.4,3.5,0.9,5.2,1.5c3.4,1.2,6.8,2.8,10.1,4.7
		c6.6,3.8,13.1,8.9,19.2,14.5c6.1,5.6,12.2,11.8,18.1,18.2c5.9,6.4,11.7,13,17.6,19.6c2.9,3.3,5.9,6.6,8.8,9.8
		c2.9,3.2,5.9,6.4,8.9,9.5c6,6.2,12.1,12.1,18.4,17.3c6.3,5.2,12.8,9.8,19.5,13.1c3.4,1.7,6.8,3,10.2,4.1c1.7,0.5,3.4,0.9,5.2,1.2
		c1.7,0.3,3.5,0.5,5.2,0.7c2,0.1,3.9,0.1,5.9,0c2-0.1,3.9-0.4,5.9-0.7c3.9-0.7,7.8-1.8,11.6-3.2c7.6-2.8,15.2-6.9,22.6-11.6
		c7.3-4.7,14.6-10,21.6-15.6c3.6-2.8,7.1-5.7,10.6-8.6c3.5-2.9,7.1-5.9,10.6-8.9c7-6,14-11.9,21.1-17.7c7-5.7,14.2-11.4,21.4-16.5
		c7.1-5.1,14.5-9.7,22-13.4c3.8-1.9,7.6-3.5,11.5-4.7c3.9-1.3,7.8-2.2,11.7-2.7c3.3-0.4,6.6-0.5,10-0.3c3.3,0.2,6.6,0.7,9.9,1.5
		c3.3,0.8,6.5,1.8,9.8,3s6.5,2.7,9.6,4.4c6.3,3.3,12.6,7.2,18.7,11.6c6.1,4.3,12.1,9.1,18.1,13.9c6,4.8,12,9.8,17.9,14.5
		c6,4.7,12.1,9.4,18.2,13.4c6.2,4.1,12.6,7.7,19,10.1c3.2,1.2,6.5,2.2,9.8,2.7c1.6,0.3,3.3,0.5,5,0.5c1.7,0.1,3.3,0.1,5-0.1
		c1.5-0.1,3-0.3,4.6-0.7c1.5-0.3,3-0.7,4.5-1.2c3-1,6-2.2,8.9-3.7c5.8-3,11.5-7,17.1-11.6c5.5-4.5,10.9-9.6,16.1-14.9
		c5.2-5.3,10.5-10.9,15.6-16.6c5.1-5.6,10.2-11.4,15.4-17c2.6-2.8,5.2-5.6,7.8-8.3c2.6-2.7,5.2-5.4,7.9-7.9
		c5.3-5.1,10.9-9.9,16.5-13.6c2.8-1.9,5.8-3.6,8.7-4.9c1.5-0.6,3-1.2,4.5-1.6c1.5-0.5,3-0.8,4.5-1c2.7-0.4,5.3-0.3,8,0.1
		c2.7,0.4,5.3,1.1,7.9,2.2c2.6,1,5.2,2.4,7.7,3.9c2.5,1.5,5,3.2,7.4,5.1c4.8,3.7,9.5,8,14.1,12.5c4.6,4.5,9.2,9.1,13.8,13.7
		c2.3,2.3,4.6,4.6,6.9,6.8s4.7,4.4,7,6.5c4.7,4.2,9.6,8,14.5,11.2c2.5,1.6,5,3,7.6,4.2s5.2,2.2,7.8,2.9c1.3,0.4,2.6,0.6,4,0.9
		c1.3,0.2,2.7,0.4,4,0.4c2.7,0.2,5.3,0,8-0.4c1.9-0.3,3.7-0.8,5.5-1.4c1.8-0.6,3.7-1.3,5.5-2.1c3.6-1.6,7.2-3.6,10.7-5.8
		c6.8-4.3,13.8-9.7,20.3-15.2c3.3-2.8,6.7-5.7,9.9-8.6c3.3-2.9,6.6-5.9,9.8-8.9c6.6-6,13.1-11.9,19.7-17.7s13.4-11.4,20.2-16.5
		c6.8-5.1,13.8-9.7,20.9-13.6c3.6-1.9,7.2-3.7,10.8-5.2c3.6-1.5,7.3-2.8,11-3.8c3.7-1,7.4-1.7,11.1-2.1c3.7-0.4,7.5-0.5,11.2-0.2
		c2.2,0.2,4.4,0.5,6.5,0.9c2.2,0.4,4.3,0.9,6.5,1.5c4.3,1.2,8.6,2.7,12.8,4.6c8.4,3.7,16.8,8.6,24.9,14c8.1,5.4,16.2,11.5,24,17.8
		c4,3.2,7.9,6.4,11.8,9.7c3.9,3.3,7.8,6.6,11.8,9.9c7.8,6.6,15.7,13.3,23.5,19.7c7.8,6.4,15.9,12.6,23.9,18.2
		c8.1,5.6,16.4,10.7,24.8,14.7c4.2,2,8.5,3.7,12.8,5c2.1,0.7,4.3,1.2,6.5,1.7c2.2,0.4,4.4,0.8,6.5,1c3.9,0.4,7.8,0.3,11.7,0
		c3.9-0.4,7.8-1.2,11.6-2.3c3.8-1.1,7.7-2.5,11.4-4.1c3.8-1.7,7.5-3.6,11.2-5.7c7.4-4.2,14.6-9.1,21.8-14.4
		c3.6-2.6,7.1-5.3,10.7-8.1c3.6-2.8,7.1-5.5,10.6-8.3c3.5-2.8,7.1-5.5,10.6-8.3c3.6-2.7,7.1-5.4,10.7-8c7.2-5.1,14.4-10,21.8-14
		c3.7-2,7.5-3.8,11.2-5.4c3.8-1.6,7.6-2.9,11.4-4c3.8-1,7.7-1.8,11.6-2.2c3.9-0.4,7.8-0.4,11.7-0.1c2.5,0.2,4.9,0.5,7.4,1
		c2.4,0.5,4.9,1.1,7.3,1.8c4.8,1.4,9.7,3.2,14.4,5.3c9.4,4.1,18.8,9.4,27.9,15c4.6,2.8,9.2,5.8,13.7,8.8c4.6,3,9.1,6,13.7,9.1
		c4.6,3.1,9.1,6.1,13.7,9.2c4.6,3,9.1,6,13.7,8.9c9.2,5.9,18.5,11.4,27.9,16.3c9.4,4.9,18.9,9.1,28.6,12.3c4.8,1.6,9.7,3,14.6,4
		c4.9,1,9.8,1.8,14.7,2.1c4.9,0.4,9.8,0.4,14.7,0.1c4.9-0.3,9.9-1.1,14.8-2.2c6.6-1.5,13.1-3.8,19.6-6.5c6.4-2.7,12.9-5.7,19.3-8.9
		s12.8-6.5,19.1-9.8c6.4-3.3,12.7-6.5,19.2-9.5c6.4-3,12.9-5.8,19.4-8.3c6.5-2.5,13-4.6,19.6-6.4c6.6-1.7,13.2-3.1,19.8-3.9
		c6.7-0.9,13.3-1.3,20-1.3c6.7,0,13.4,0.6,20.1,1.5c6.7,1,13.3,2.4,19.9,4.3c6.6,1.9,13.2,4.1,19.7,6.8c6.5,2.7,13,5.7,19.4,9.1
		c8.2,4.3,16.2,9.2,24.2,14.5"/>
</g>
</svg>
