<?xml version="1.0" encoding="UTF-8" standalone="no"?>
<!-- Created with Inkscape (http://www.inkscape.org/) -->

<svg
   version="1.1"
   id="svg1"
   width="598.98535"
   height="531.56403"
   viewBox="0 0 598.98535 531.56403"
   sodipodi:docname="mindmap.pdf"
   xmlns:inkscape="http://www.inkscape.org/namespaces/inkscape"
   xmlns:sodipodi="http://sodipodi.sourceforge.net/DTD/sodipodi-0.dtd"
   xmlns="http://www.w3.org/2000/svg"
   xmlns:svg="http://www.w3.org/2000/svg">
  <defs
     id="defs1">
    <clipPath
       clipPathUnits="userSpaceOnUse"
       id="clipPath4">
      <path
         d="M 34.90366,-44.6749 C 24.40163,-52.88014 11.3399,-57.12422 -1.97931,-56.65913 c 14.16475,-0.49462 21.224,-11.60122 25.6039,-25.08083 l 5.30765,1.72456 c -4.3799,13.47963 -5.1973,26.61438 5.97142,35.3405 z m -3.23427,-43.76442 -2.73715,8.42394 -5.30767,-1.72458 2.73715,-8.42394 z m 13.24113,-14.48523 c -7.49203,0.2616 -14.83926,-2.12571 -20.74666,-6.74113 6.2824,4.90845 4.66156,11.91949 2.19788,19.50178 l 5.30765,1.72457 c 2.46368,-7.58229 5.27347,-14.20702 13.24113,-14.48522 z"
         transform="translate(-17.518648,53.918459)"
         id="path4" />
    </clipPath>
    <clipPath
       clipPathUnits="userSpaceOnUse"
       id="clipPath6">
      <path
         d="M 34.90366,-44.6749 C 24.40163,-52.88014 11.3399,-57.12422 -1.97931,-56.65913 c 14.16475,-0.49462 21.224,-11.60122 25.6039,-25.08083 l 5.30765,1.72456 c -4.3799,13.47963 -5.1973,26.61438 5.97142,35.3405 z m -3.23427,-43.76442 -2.73715,8.42394 -5.30767,-1.72458 2.73715,-8.42394 z m 13.24113,-14.48523 c -7.49203,0.2616 -14.83926,-2.12571 -20.74666,-6.74113 6.2824,4.90845 4.66156,11.91949 2.19788,19.50178 l 5.30765,1.72457 c 2.46368,-7.58229 5.27347,-14.20702 13.24113,-14.48522 z"
         transform="translate(-17.518648,53.918459)"
         id="path6" />
    </clipPath>
    <linearGradient
       x1="0"
       y1="0"
       x2="100.00128"
       y2="0"
       gradientUnits="userSpaceOnUse"
       id="linearGradient7">
      <stop
         style="stop-opacity:1;stop-color:#67e8f9"
         offset="0"
         id="stop6" />
      <stop
         style="stop-opacity:1;stop-color:#10b981"
         offset="1"
         id="stop7" />
    </linearGradient>
    <clipPath
       clipPathUnits="userSpaceOnUse"
       id="clipPath8">
      <path
         d="M 34.90366,-44.6749 C 24.40163,-52.88014 11.3399,-57.12422 -1.97931,-56.65913 c 14.16475,-0.49462 21.224,-11.60122 25.6039,-25.08083 l 5.30765,1.72456 c -4.3799,13.47963 -5.1973,26.61438 5.97142,35.3405 z m -3.23427,-43.76442 -2.73715,8.42394 -5.30767,-1.72458 2.73715,-8.42394 z m 13.24113,-14.48523 c -7.49203,0.2616 -14.83926,-2.12571 -20.74666,-6.74113 6.2824,4.90845 4.66156,11.91949 2.19788,19.50178 l 5.30765,1.72457 c 2.46368,-7.58229 5.27347,-14.20702 13.24113,-14.48522 z"
         transform="matrix(1.3333333,0,0,-1.3333333,329.78133,223.04533)"
         id="path8" />
    </clipPath>
    <clipPath
       clipPathUnits="userSpaceOnUse"
       id="clipPath11">
      <path
         d="m 73.7659,-123.8911 c 2.56403,-7.04455 2.56403,-14.76996 0,-21.8145 2.72682,7.49176 9.89561,8.73693 17.86815,8.73693 v 4.34065 c -7.97254,0 -15.14133,1.24516 -17.86815,8.73692 z m 17.86815,-13.07757 h -2.83481 v 4.34065 h 2.83481 z m 11.06264,10.65374 c -1.99425,-5.47911 -1.99425,-11.48774 0,-16.96684 -2.12085,5.82692 -7.69659,6.3131 -13.89745,6.3131 v 4.34065 c 6.20086,0 11.7766,0.48617 13.89745,6.31309 z"
         transform="translate(-75.688964,134.79836)"
         id="path11" />
    </clipPath>
    <clipPath
       clipPathUnits="userSpaceOnUse"
       id="clipPath13">
      <path
         d="m 73.7659,-123.8911 c 2.56403,-7.04455 2.56403,-14.76996 0,-21.8145 2.72682,7.49176 9.89561,8.73693 17.86815,8.73693 v 4.34065 c -7.97254,0 -15.14133,1.24516 -17.86815,8.73692 z m 17.86815,-13.07757 h -2.83481 v 4.34065 h 2.83481 z m 11.06264,10.65374 c -1.99425,-5.47911 -1.99425,-11.48774 0,-16.96684 -2.12085,5.82692 -7.69659,6.3131 -13.89745,6.3131 v 4.34065 c 6.20086,0 11.7766,0.48617 13.89745,6.31309 z"
         transform="translate(-75.688964,134.79836)"
         id="path13" />
    </clipPath>
    <linearGradient
       x1="0"
       y1="0"
       x2="100.00128"
       y2="0"
       gradientUnits="userSpaceOnUse"
       id="linearGradient14">
      <stop
         style="stop-opacity:1;stop-color:#10b981"
         offset="0"
         id="stop13" />
      <stop
         style="stop-opacity:1;stop-color:#10b981"
         offset="1"
         id="stop14" />
    </linearGradient>
    <clipPath
       clipPathUnits="userSpaceOnUse"
       id="clipPath15">
      <path
         d="m 73.7659,-123.8911 c 2.56403,-7.04455 2.56403,-14.76996 0,-21.8145 2.72682,7.49176 9.89561,8.73693 17.86815,8.73693 v 4.34065 c -7.97254,0 -15.14133,1.24516 -17.86815,8.73692 z m 17.86815,-13.07757 h -2.83481 v 4.34065 h 2.83481 z m 11.06264,10.65374 c -1.99425,-5.47911 -1.99425,-11.48774 0,-16.96684 -2.12085,5.82692 -7.69659,6.3131 -13.89745,6.3131 v 4.34065 c 6.20086,0 11.7766,0.48617 13.89745,6.31309 z"
         transform="matrix(1.3333333,0,0,-1.3333333,329.78133,223.04533)"
         id="path15" />
    </clipPath>
    <clipPath
       clipPathUnits="userSpaceOnUse"
       id="clipPath18">
      <path
         d="m 117.521,-111.49062 c 5.47909,1.99424 11.48774,1.99424 16.96684,0 -5.82692,2.12084 -7.05722,7.69658 -7.05722,13.89745 h -2.8524 c 0,-6.20087 -1.2303,-11.77661 -7.05722,-13.89745 z m 7.0572,20.27547 v -6.37802 h 2.85242 v 6.37802 z m -4.14856,9.13255 c 3.60051,-1.31048 7.54904,-1.31048 11.14956,0 -3.82911,-1.39367 -4.14858,-5.05772 -4.14858,-9.13255 h -2.8524 c 0,4.07483 -0.31948,7.73888 -4.14858,9.13255 z"
         transform="translate(-126.00443,109.9949)"
         id="path18" />
    </clipPath>
    <clipPath
       clipPathUnits="userSpaceOnUse"
       id="clipPath20">
      <path
         d="m 117.521,-111.49062 c 5.47909,1.99424 11.48774,1.99424 16.96684,0 -5.82692,2.12084 -7.05722,7.69658 -7.05722,13.89745 h -2.8524 c 0,-6.20087 -1.2303,-11.77661 -7.05722,-13.89745 z m 7.0572,20.27547 v -6.37802 h 2.85242 v 6.37802 z m -4.14856,9.13255 c 3.60051,-1.31048 7.54904,-1.31048 11.14956,0 -3.82911,-1.39367 -4.14858,-5.05772 -4.14858,-9.13255 h -2.8524 c 0,4.07483 -0.31948,7.73888 -4.14858,9.13255 z"
         transform="translate(-126.00443,109.9949)"
         id="path20" />
    </clipPath>
    <linearGradient
       x1="0"
       y1="0"
       x2="100.00128"
       y2="0"
       gradientUnits="userSpaceOnUse"
       id="linearGradient21">
      <stop
         style="stop-opacity:1;stop-color:#10b981"
         offset="0"
         id="stop20" />
      <stop
         style="stop-opacity:1;stop-color:#31a881"
         offset="1"
         id="stop21" />
    </linearGradient>
    <clipPath
       clipPathUnits="userSpaceOnUse"
       id="clipPath22">
      <path
         d="m 117.521,-111.49062 c 5.47909,1.99424 11.48774,1.99424 16.96684,0 -5.82692,2.12084 -7.05722,7.69658 -7.05722,13.89745 h -2.8524 c 0,-6.20087 -1.2303,-11.77661 -7.05722,-13.89745 z m 7.0572,20.27547 v -6.37802 h 2.85242 v 6.37802 z m -4.14856,9.13255 c 3.60051,-1.31048 7.54904,-1.31048 11.14956,0 -3.82911,-1.39367 -4.14858,-5.05772 -4.14858,-9.13255 h -2.8524 c 0,4.07483 -0.31948,7.73888 -4.14858,9.13255 z"
         transform="matrix(1.3333333,0,0,-1.3333333,329.78133,223.04533)"
         id="path22" />
    </clipPath>
    <clipPath
       clipPathUnits="userSpaceOnUse"
       id="clipPath25">
      <path
         d="m 130.31117,-110.37187 c 5.74207,-1.01251 10.94562,-4.01682 14.69347,-8.4834 -3.98576,4.75014 -2.25679,10.19015 0.84364,15.5602 l -2.48331,1.43376 c -3.10043,-5.37004 -6.94721,-9.58733 -13.0538,-8.51056 z m 16.17404,13.91487 -3.12024,-5.40433 2.48331,-1.43376 3.12022,5.40433 z m 0.97873,10.03615 c 2.47591,-2.95073 5.91352,-4.93545 9.70686,-5.60433 -4.03417,0.71135 -6.15406,-2.31802 -8.2023,-5.8656 l -2.48329,1.43376 c 2.04822,3.54758 3.61184,6.89812 0.97873,10.03617 z"
         transform="translate(-138.40577,113.31827)"
         id="path25" />
    </clipPath>
    <clipPath
       clipPathUnits="userSpaceOnUse"
       id="clipPath27">
      <path
         d="m 130.31117,-110.37187 c 5.74207,-1.01251 10.94562,-4.01682 14.69347,-8.4834 -3.98576,4.75014 -2.25679,10.19015 0.84364,15.5602 l -2.48331,1.43376 c -3.10043,-5.37004 -6.94721,-9.58733 -13.0538,-8.51056 z m 16.17404,13.91487 -3.12024,-5.40433 2.48331,-1.43376 3.12022,5.40433 z m 0.97873,10.03615 c 2.47591,-2.95073 5.91352,-4.93545 9.70686,-5.60433 -4.03417,0.71135 -6.15406,-2.31802 -8.2023,-5.8656 l -2.48329,1.43376 c 2.04822,3.54758 3.61184,6.89812 0.97873,10.03617 z"
         transform="translate(-138.40577,113.31827)"
         id="path27" />
    </clipPath>
    <linearGradient
       x1="0"
       y1="0"
       x2="100.00128"
       y2="0"
       gradientUnits="userSpaceOnUse"
       id="linearGradient28">
      <stop
         style="stop-opacity:1;stop-color:#10b981"
         offset="0"
         id="stop27" />
      <stop
         style="stop-opacity:1;stop-color:#31a881"
         offset="1"
         id="stop28" />
    </linearGradient>
    <clipPath
       clipPathUnits="userSpaceOnUse"
       id="clipPath29">
      <path
         d="m 130.31117,-110.37187 c 5.74207,-1.01251 10.94562,-4.01682 14.69347,-8.4834 -3.98576,4.75014 -2.25679,10.19015 0.84364,15.5602 l -2.48331,1.43376 c -3.10043,-5.37004 -6.94721,-9.58733 -13.0538,-8.51056 z m 16.17404,13.91487 -3.12024,-5.40433 2.48331,-1.43376 3.12022,5.40433 z m 0.97873,10.03615 c 2.47591,-2.95073 5.91352,-4.93545 9.70686,-5.60433 -4.03417,0.71135 -6.15406,-2.31802 -8.2023,-5.8656 l -2.48329,1.43376 c 2.04822,3.54758 3.61184,6.89812 0.97873,10.03617 z"
         transform="matrix(1.3333333,0,0,-1.3333333,329.78133,223.04533)"
         id="path29" />
    </clipPath>
    <clipPath
       clipPathUnits="userSpaceOnUse"
       id="clipPath32">
      <path
         d="m 141.9475,-115.79813 c 4.46658,-3.74784 7.47088,-8.9514 8.4834,-14.69348 -1.07677,6.1066 3.14051,9.95339 8.51055,13.05381 l -1.43376,2.4833 c -5.37004,-3.10042 -10.81004,-4.82939 -15.56019,-0.84363 z m 20.9645,3.96387 -5.40432,-3.12024 1.43376,-2.4833 5.40432,3.12023 z m 5.86559,8.20229 c 0.66888,-3.79335 2.65359,-7.23095 5.60432,-9.70685 -3.13804,2.6331 -6.48858,1.06949 -10.03616,-0.97875 l -1.43376,2.48331 c 3.54759,2.04822 6.57696,4.16811 5.8656,8.20229 z"
         transform="translate(-147.48452,122.397)"
         id="path32" />
    </clipPath>
    <clipPath
       clipPathUnits="userSpaceOnUse"
       id="clipPath34">
      <path
         d="m 141.9475,-115.79813 c 4.46658,-3.74784 7.47088,-8.9514 8.4834,-14.69348 -1.07677,6.1066 3.14051,9.95339 8.51055,13.05381 l -1.43376,2.4833 c -5.37004,-3.10042 -10.81004,-4.82939 -15.56019,-0.84363 z m 20.9645,3.96387 -5.40432,-3.12024 1.43376,-2.4833 5.40432,3.12023 z m 5.86559,8.20229 c 0.66888,-3.79335 2.65359,-7.23095 5.60432,-9.70685 -3.13804,2.6331 -6.48858,1.06949 -10.03616,-0.97875 l -1.43376,2.48331 c 3.54759,2.04822 6.57696,4.16811 5.8656,8.20229 z"
         transform="translate(-147.48452,122.397)"
         id="path34" />
    </clipPath>
    <linearGradient
       x1="0"
       y1="0"
       x2="100.00128"
       y2="0"
       gradientUnits="userSpaceOnUse"
       id="linearGradient35">
      <stop
         style="stop-opacity:1;stop-color:#10b981"
         offset="0"
         id="stop34" />
      <stop
         style="stop-opacity:1;stop-color:#31a881"
         offset="1"
         id="stop35" />
    </linearGradient>
    <clipPath
       clipPathUnits="userSpaceOnUse"
       id="clipPath36">
      <path
         d="m 141.9475,-115.79813 c 4.46658,-3.74784 7.47088,-8.9514 8.4834,-14.69348 -1.07677,6.1066 3.14051,9.95339 8.51055,13.05381 l -1.43376,2.4833 c -5.37004,-3.10042 -10.81004,-4.82939 -15.56019,-0.84363 z m 20.9645,3.96387 -5.40432,-3.12024 1.43376,-2.4833 5.40432,3.12023 z m 5.86559,8.20229 c 0.66888,-3.79335 2.65359,-7.23095 5.60432,-9.70685 -3.13804,2.6331 -6.48858,1.06949 -10.03616,-0.97875 l -1.43376,2.48331 c 3.54759,2.04822 6.57696,4.16811 5.8656,8.20229 z"
         transform="matrix(1.3333333,0,0,-1.3333333,329.78133,223.04533)"
         id="path36" />
    </clipPath>
    <clipPath
       clipPathUnits="userSpaceOnUse"
       id="clipPath39">
      <path
         d="m 68.22766,-155.29662 c -4.81865,-5.74273 -11.50896,-9.60543 -18.89162,-10.90722 7.85137,1.38443 12.51409,-4.20126 16.50036,-11.10558 l 3.75906,2.17032 c -3.98628,6.90431 -6.49236,13.73517 -1.3678,19.84248 z m -0.05554,-17.37721 1.42335,-2.46525 -3.75907,-2.17032 -1.42334,2.46525 z m 12.41592,-8.87881 c -5.74208,-1.01252 -10.94563,-4.01682 -14.69348,-8.4834 3.98577,4.75014 1.61893,9.82187 -1.4815,15.19191 l 3.75904,2.17032 c 3.10044,-5.37003 6.30935,-9.9556 12.41594,-8.87883 z"
         transform="translate(-59.743401,162.41562)"
         id="path39" />
    </clipPath>
    <clipPath
       clipPathUnits="userSpaceOnUse"
       id="clipPath41">
      <path
         d="m 68.22766,-155.29662 c -4.81865,-5.74273 -11.50896,-9.60543 -18.89162,-10.90722 7.85137,1.38443 12.51409,-4.20126 16.50036,-11.10558 l 3.75906,2.17032 c -3.98628,6.90431 -6.49236,13.73517 -1.3678,19.84248 z m -0.05554,-17.37721 1.42335,-2.46525 -3.75907,-2.17032 -1.42334,2.46525 z m 12.41592,-8.87881 c -5.74208,-1.01252 -10.94563,-4.01682 -14.69348,-8.4834 3.98577,4.75014 1.61893,9.82187 -1.4815,15.19191 l 3.75904,2.17032 c 3.10044,-5.37003 6.30935,-9.9556 12.41594,-8.87883 z"
         transform="translate(-59.743401,162.41562)"
         id="path41" />
    </clipPath>
    <linearGradient
       x1="0"
       y1="0"
       x2="100.00128"
       y2="0"
       gradientUnits="userSpaceOnUse"
       id="linearGradient42">
      <stop
         style="stop-opacity:1;stop-color:#10b981"
         offset="0"
         id="stop41" />
      <stop
         style="stop-opacity:1;stop-color:#10b981"
         offset="1"
         id="stop42" />
    </linearGradient>
    <clipPath
       clipPathUnits="userSpaceOnUse"
       id="clipPath43">
      <path
         d="m 68.22766,-155.29662 c -4.81865,-5.74273 -11.50896,-9.60543 -18.89162,-10.90722 7.85137,1.38443 12.51409,-4.20126 16.50036,-11.10558 l 3.75906,2.17032 c -3.98628,6.90431 -6.49236,13.73517 -1.3678,19.84248 z m -0.05554,-17.37721 1.42335,-2.46525 -3.75907,-2.17032 -1.42334,2.46525 z m 12.41592,-8.87881 c -5.74208,-1.01252 -10.94563,-4.01682 -14.69348,-8.4834 3.98577,4.75014 1.61893,9.82187 -1.4815,15.19191 l 3.75904,2.17032 c 3.10044,-5.37003 6.30935,-9.9556 12.41594,-8.87883 z"
         transform="matrix(1.3333333,0,0,-1.3333333,329.78133,223.04533)"
         id="path43" />
    </clipPath>
    <clipPath
       clipPathUnits="userSpaceOnUse"
       id="clipPath46">
      <path
         d="m 38.26158,-166.20384 c -7.38268,1.30179 -14.07298,5.16449 -18.89162,10.90722 5.12456,-6.10731 2.61847,-12.93817 -1.36779,-19.84248 l 3.75905,-2.17032 c 3.98628,6.90432 8.649,12.49001 16.50036,11.10558 z m -15.07701,-8.64031 -1.42334,-2.46525 -3.75906,2.17032 1.42333,2.46525 z m -1.48152,-15.19189 c -3.74785,4.46658 -8.9514,7.47088 -14.69347,8.4834 6.10659,-1.07677 9.31549,3.5088 12.41592,8.87883 l 3.75906,-2.17032 c -3.10042,-5.37004 -5.46727,-10.44177 -1.48151,-15.19191 z"
         transform="translate(-27.854233,162.41562)"
         id="path46" />
    </clipPath>
    <clipPath
       clipPathUnits="userSpaceOnUse"
       id="clipPath48">
      <path
         d="m 38.26158,-166.20384 c -7.38268,1.30179 -14.07298,5.16449 -18.89162,10.90722 5.12456,-6.10731 2.61847,-12.93817 -1.36779,-19.84248 l 3.75905,-2.17032 c 3.98628,6.90432 8.649,12.49001 16.50036,11.10558 z m -15.07701,-8.64031 -1.42334,-2.46525 -3.75906,2.17032 1.42333,2.46525 z m -1.48152,-15.19189 c -3.74785,4.46658 -8.9514,7.47088 -14.69347,8.4834 6.10659,-1.07677 9.31549,3.5088 12.41592,8.87883 l 3.75906,-2.17032 c -3.10042,-5.37004 -5.46727,-10.44177 -1.48151,-15.19191 z"
         transform="translate(-27.854233,162.41562)"
         id="path48" />
    </clipPath>
    <linearGradient
       x1="0"
       y1="0"
       x2="100.00128"
       y2="0"
       gradientUnits="userSpaceOnUse"
       id="linearGradient49">
      <stop
         style="stop-opacity:1;stop-color:#10b981"
         offset="0"
         id="stop48" />
      <stop
         style="stop-opacity:1;stop-color:#10b981"
         offset="1"
         id="stop49" />
    </linearGradient>
    <clipPath
       clipPathUnits="userSpaceOnUse"
       id="clipPath50">
      <path
         d="m 38.26158,-166.20384 c -7.38268,1.30179 -14.07298,5.16449 -18.89162,10.90722 5.12456,-6.10731 2.61847,-12.93817 -1.36779,-19.84248 l 3.75905,-2.17032 c 3.98628,6.90432 8.649,12.49001 16.50036,11.10558 z m -15.07701,-8.64031 -1.42334,-2.46525 -3.75906,2.17032 1.42333,2.46525 z m -1.48152,-15.19189 c -3.74785,4.46658 -8.9514,7.47088 -14.69347,8.4834 6.10659,-1.07677 9.31549,3.5088 12.41592,8.87883 l 3.75906,-2.17032 c -3.10042,-5.37004 -5.46727,-10.44177 -1.48151,-15.19191 z"
         transform="matrix(1.3333333,0,0,-1.3333333,329.78133,223.04533)"
         id="path50" />
    </clipPath>
    <clipPath
       clipPathUnits="userSpaceOnUse"
       id="clipPath53">
      <path
         d="m -21.23732,-52.56404 c -12.35657,4.9924 -22.56256,14.18198 -28.81912,25.94908 6.65373,-12.51408 0.56479,-24.18051 -8.91884,-34.71303 l 4.14723,-3.73421 c 9.48361,10.5325 20.44972,17.80749 33.59073,12.49816 z m -39.49918,-19.06011 5.90847,6.56194 -4.14725,3.73422 -5.90846,-6.56192 z m -5.92405,-18.70921 c -3.51931,6.61897 -9.26021,11.78813 -16.21074,14.59636 7.3918,-2.98648 12.65303,1.92255 17.98756,7.84709 l 4.14723,-3.73422 c -5.33454,-5.92455 -9.66677,-11.67004 -5.92405,-18.70923 z"
         transform="translate(37.934448,42.130049)"
         id="path53" />
    </clipPath>
    <clipPath
       clipPathUnits="userSpaceOnUse"
       id="clipPath55">
      <path
         d="m -21.23732,-52.56404 c -12.35657,4.9924 -22.56256,14.18198 -28.81912,25.94908 6.65373,-12.51408 0.56479,-24.18051 -8.91884,-34.71303 l 4.14723,-3.73421 c 9.48361,10.5325 20.44972,17.80749 33.59073,12.49816 z m -39.49918,-19.06011 5.90847,6.56194 -4.14725,3.73422 -5.90846,-6.56192 z m -5.92405,-18.70921 c -3.51931,6.61897 -9.26021,11.78813 -16.21074,14.59636 7.3918,-2.98648 12.65303,1.92255 17.98756,7.84709 l 4.14723,-3.73422 c -5.33454,-5.92455 -9.66677,-11.67004 -5.92405,-18.70923 z"
         transform="translate(37.934448,42.130049)"
         id="path55" />
    </clipPath>
    <linearGradient
       x1="0"
       y1="0"
       x2="100.00128"
       y2="0"
       gradientUnits="userSpaceOnUse"
       id="linearGradient56">
      <stop
         style="stop-opacity:1;stop-color:#67e8f9"
         offset="0"
         id="stop55" />
      <stop
         style="stop-opacity:1;stop-color:#d8b4fe"
         offset="1"
         id="stop56" />
    </linearGradient>
    <clipPath
       clipPathUnits="userSpaceOnUse"
       id="clipPath57">
      <path
         d="m -21.23732,-52.56404 c -12.35657,4.9924 -22.56256,14.18198 -28.81912,25.94908 6.65373,-12.51408 0.56479,-24.18051 -8.91884,-34.71303 l 4.14723,-3.73421 c 9.48361,10.5325 20.44972,17.80749 33.59073,12.49816 z m -39.49918,-19.06011 5.90847,6.56194 -4.14725,3.73422 -5.90846,-6.56192 z m -5.92405,-18.70921 c -3.51931,6.61897 -9.26021,11.78813 -16.21074,14.59636 7.3918,-2.98648 12.65303,1.92255 17.98756,7.84709 l 4.14723,-3.73422 c -5.33454,-5.92455 -9.66677,-11.67004 -5.92405,-18.70923 z"
         transform="matrix(1.3333333,0,0,-1.3333333,329.78133,223.04533)"
         id="path57" />
    </clipPath>
    <clipPath
       clipPathUnits="userSpaceOnUse"
       id="clipPath60">
      <path
         d="m -56.14156,-7.88997 c -1.85474,13.19756 1.00076,26.63124 8.06325,37.93334 -7.51083,-12.01958 -20.65898,-12.57958 -34.52247,-9.63268 l -1.16033,-5.45882 c 13.86348,-2.9469 25.64707,-8.80648 27.61955,-22.84184 z m -36.27634,24.68193 8.65679,-1.8401 1.16033,5.45883 -8.65677,1.84011 z m -19.16506,-4.22423 c 3.97264,6.35743 5.57887,13.9139 4.53558,21.3375 1.10953,-7.8949 7.99161,-9.99681 15.78983,-11.65442 l -1.16035,-5.45882 c -7.7982,1.65761 -14.94021,2.53675 -19.16506,-4.22426 z"
         transform="translate(55.453961,-11.78665)"
         id="path60" />
    </clipPath>
    <clipPath
       clipPathUnits="userSpaceOnUse"
       id="clipPath62">
      <path
         d="m -56.14156,-7.88997 c -1.85474,13.19756 1.00076,26.63124 8.06325,37.93334 -7.51083,-12.01958 -20.65898,-12.57958 -34.52247,-9.63268 l -1.16033,-5.45882 c 13.86348,-2.9469 25.64707,-8.80648 27.61955,-22.84184 z m -36.27634,24.68193 8.65679,-1.8401 1.16033,5.45883 -8.65677,1.84011 z m -19.16506,-4.22423 c 3.97264,6.35743 5.57887,13.9139 4.53558,21.3375 1.10953,-7.8949 7.99161,-9.99681 15.78983,-11.65442 l -1.16035,-5.45882 c -7.7982,1.65761 -14.94021,2.53675 -19.16506,-4.22426 z"
         transform="translate(55.453961,-11.78665)"
         id="path62" />
    </clipPath>
    <linearGradient
       x1="0"
       y1="0"
       x2="100.00128"
       y2="0"
       gradientUnits="userSpaceOnUse"
       id="linearGradient63">
      <stop
         style="stop-opacity:1;stop-color:#67e8f9"
         offset="0"
         id="stop62" />
      <stop
         style="stop-opacity:1;stop-color:#4299e1"
         offset="1"
         id="stop63" />
    </linearGradient>
    <clipPath
       clipPathUnits="userSpaceOnUse"
       id="clipPath64">
      <path
         d="m -56.14156,-7.88997 c -1.85474,13.19756 1.00076,26.63124 8.06325,37.93334 -7.51083,-12.01958 -20.65898,-12.57958 -34.52247,-9.63268 l -1.16033,-5.45882 c 13.86348,-2.9469 25.64707,-8.80648 27.61955,-22.84184 z m -36.27634,24.68193 8.65679,-1.8401 1.16033,5.45883 -8.65677,1.84011 z m -19.16506,-4.22423 c 3.97264,6.35743 5.57887,13.9139 4.53558,21.3375 1.10953,-7.8949 7.99161,-9.99681 15.78983,-11.65442 l -1.16035,-5.45882 c -7.7982,1.65761 -14.94021,2.53675 -19.16506,-4.22426 z"
         transform="matrix(1.3333333,0,0,-1.3333333,329.78133,223.04533)"
         id="path64" />
    </clipPath>
    <clipPath
       clipPathUnits="userSpaceOnUse"
       id="clipPath68">
      <path
         d="m -168.60422,18.56157 c -2.56402,7.04454 -2.56402,14.76994 0,21.8145 -2.7268,-7.49176 -9.89561,-8.64113 -17.86815,-8.64113 v -4.53226 c 7.97254,0 15.14135,-1.14935 17.86815,-8.64111 z m -13.39102,8.6411 h -4.47713 v 4.53227 h 4.47713 z m -14.51091,-6.59174 c 2.08228,5.72095 2.08228,11.99483 0,17.71577 2.21448,-6.08413 8.03633,-6.59176 14.51091,-6.59176 v -4.53226 c -6.47458,0 -12.29643,-0.50761 -14.51091,-6.59175 z"
         transform="translate(170.52728,-29.468808)"
         id="path68" />
    </clipPath>
    <clipPath
       clipPathUnits="userSpaceOnUse"
       id="clipPath70">
      <path
         d="m -168.60422,18.56157 c -2.56402,7.04454 -2.56402,14.76994 0,21.8145 -2.7268,-7.49176 -9.89561,-8.64113 -17.86815,-8.64113 v -4.53226 c 7.97254,0 15.14135,-1.14935 17.86815,-8.64111 z m -13.39102,8.6411 h -4.47713 v 4.53227 h 4.47713 z m -14.51091,-6.59174 c 2.08228,5.72095 2.08228,11.99483 0,17.71577 2.21448,-6.08413 8.03633,-6.59176 14.51091,-6.59176 v -4.53226 c -6.47458,0 -12.29643,-0.50761 -14.51091,-6.59175 z"
         transform="translate(170.52728,-29.468808)"
         id="path70" />
    </clipPath>
    <linearGradient
       x1="0"
       y1="0"
       x2="100.00128"
       y2="0"
       gradientUnits="userSpaceOnUse"
       id="linearGradient71">
      <stop
         style="stop-opacity:1;stop-color:#4299e1"
         offset="0"
         id="stop70" />
      <stop
         style="stop-opacity:1;stop-color:#5491c4"
         offset="1"
         id="stop71" />
    </linearGradient>
    <clipPath
       clipPathUnits="userSpaceOnUse"
       id="clipPath72">
      <path
         d="m -168.60422,18.56157 c -2.56402,7.04454 -2.56402,14.76994 0,21.8145 -2.7268,-7.49176 -9.89561,-8.64113 -17.86815,-8.64113 v -4.53226 c 7.97254,0 15.14135,-1.14935 17.86815,-8.64111 z m -13.39102,8.6411 h -4.47713 v 4.53227 h 4.47713 z m -14.51091,-6.59174 c 2.08228,5.72095 2.08228,11.99483 0,17.71577 2.21448,-6.08413 8.03633,-6.59176 14.51091,-6.59176 v -4.53226 c -6.47458,0 -12.29643,-0.50761 -14.51091,-6.59175 z"
         transform="matrix(1.3333333,0,0,-1.3333333,329.78133,223.04533)"
         id="path72" />
    </clipPath>
    <clipPath
       clipPathUnits="userSpaceOnUse"
       id="clipPath75">
      <path
         d="m -163.06598,49.96707 c 4.81865,5.74275 11.50896,9.60544 18.89163,10.90724 -7.85138,-1.38443 -12.5141,4.20127 -16.50036,11.10558 l -3.75907,-2.17033 c 3.98628,-6.90432 6.49236,-13.73517 1.3678,-19.84249 z m 0.0555,17.37721 -1.42335,2.46526 3.75908,2.17033 1.42334,-2.46525 z m -12.41592,8.87883 c 5.74208,1.01252 10.94563,4.01682 14.69348,8.4834 -3.98576,-4.75015 -1.61892,-9.82188 1.48151,-15.19191 l -3.75905,-2.17033 c -3.10044,5.37004 -6.30934,9.95561 -12.41594,8.87884 z"
         transform="translate(154.58171,-57.086074)"
         id="path75" />
    </clipPath>
    <clipPath
       clipPathUnits="userSpaceOnUse"
       id="clipPath77">
      <path
         d="m -163.06598,49.96707 c 4.81865,5.74275 11.50896,9.60544 18.89163,10.90724 -7.85138,-1.38443 -12.5141,4.20127 -16.50036,11.10558 l -3.75907,-2.17033 c 3.98628,-6.90432 6.49236,-13.73517 1.3678,-19.84249 z m 0.0555,17.37721 -1.42335,2.46526 3.75908,2.17033 1.42334,-2.46525 z m -12.41592,8.87883 c 5.74208,1.01252 10.94563,4.01682 14.69348,8.4834 -3.98576,-4.75015 -1.61892,-9.82188 1.48151,-15.19191 l -3.75905,-2.17033 c -3.10044,5.37004 -6.30934,9.95561 -12.41594,8.87884 z"
         transform="translate(154.58171,-57.086074)"
         id="path77" />
    </clipPath>
    <linearGradient
       x1="0"
       y1="0"
       x2="100.00128"
       y2="0"
       gradientUnits="userSpaceOnUse"
       id="linearGradient78">
      <stop
         style="stop-opacity:1;stop-color:#4299e1"
         offset="0"
         id="stop77" />
      <stop
         style="stop-opacity:1;stop-color:#5491c4"
         offset="1"
         id="stop78" />
    </linearGradient>
    <clipPath
       clipPathUnits="userSpaceOnUse"
       id="clipPath79">
      <path
         d="m -163.06598,49.96707 c 4.81865,5.74275 11.50896,9.60544 18.89163,10.90724 -7.85138,-1.38443 -12.5141,4.20127 -16.50036,11.10558 l -3.75907,-2.17033 c 3.98628,-6.90432 6.49236,-13.73517 1.3678,-19.84249 z m 0.0555,17.37721 -1.42335,2.46526 3.75908,2.17033 1.42334,-2.46525 z m -12.41592,8.87883 c 5.74208,1.01252 10.94563,4.01682 14.69348,8.4834 -3.98576,-4.75015 -1.61892,-9.82188 1.48151,-15.19191 l -3.75905,-2.17033 c -3.10044,5.37004 -6.30934,9.95561 -12.41594,8.87884 z"
         transform="matrix(1.3333333,0,0,-1.3333333,329.78133,223.04533)"
         id="path79" />
    </clipPath>
    <clipPath
       clipPathUnits="userSpaceOnUse"
       id="clipPath82">
      <path
         d="m -34.90366,44.6749 c 10.50203,8.20524 23.56376,12.44932 36.88297,11.98423 -14.16475,0.49462 -21.224,11.60122 -25.6039,25.08083 l -5.30765,-1.72456 c 4.3799,-13.47963 5.1973,-26.61438 -5.97142,-35.3405 z m 3.23427,43.76442 2.73715,-8.42394 5.30767,1.72458 -2.73715,8.42394 z m -13.24113,14.48523 c 7.49203,-0.2616 14.83926,2.12571 20.74666,6.74113 -6.2824,-4.90845 -4.66156,-11.91949 -2.19788,-19.50178 l -5.30765,-1.72457 c -2.46368,7.58229 -5.27347,14.20702 -13.24113,14.48522 z"
         transform="translate(17.518653,-53.918464)"
         id="path82" />
    </clipPath>
    <clipPath
       clipPathUnits="userSpaceOnUse"
       id="clipPath84">
      <path
         d="m -34.90366,44.6749 c 10.50203,8.20524 23.56376,12.44932 36.88297,11.98423 -14.16475,0.49462 -21.224,11.60122 -25.6039,25.08083 l -5.30765,-1.72456 c 4.3799,-13.47963 5.1973,-26.61438 -5.97142,-35.3405 z m 3.23427,43.76442 2.73715,-8.42394 5.30767,1.72458 -2.73715,8.42394 z m -13.24113,14.48523 c 7.49203,-0.2616 14.83926,2.12571 20.74666,6.74113 -6.2824,-4.90845 -4.66156,-11.91949 -2.19788,-19.50178 l -5.30765,-1.72457 c -2.46368,7.58229 -5.27347,14.20702 -13.24113,14.48522 z"
         transform="translate(17.518653,-53.918464)"
         id="path84" />
    </clipPath>
    <linearGradient
       x1="0"
       y1="0"
       x2="100.00128"
       y2="0"
       gradientUnits="userSpaceOnUse"
       id="linearGradient85">
      <stop
         style="stop-opacity:1;stop-color:#67e8f9"
         offset="0"
         id="stop84" />
      <stop
         style="stop-opacity:1;stop-color:#f56565"
         offset="1"
         id="stop85" />
    </linearGradient>
    <clipPath
       clipPathUnits="userSpaceOnUse"
       id="clipPath86">
      <path
         d="m -34.90366,44.6749 c 10.50203,8.20524 23.56376,12.44932 36.88297,11.98423 -14.16475,0.49462 -21.224,11.60122 -25.6039,25.08083 l -5.30765,-1.72456 c 4.3799,-13.47963 5.1973,-26.61438 -5.97142,-35.3405 z m 3.23427,43.76442 2.73715,-8.42394 5.30767,1.72458 -2.73715,8.42394 z m -13.24113,14.48523 c 7.49203,-0.2616 14.83926,2.12571 20.74666,6.74113 -6.2824,-4.90845 -4.66156,-11.91949 -2.19788,-19.50178 l -5.30765,-1.72457 c -2.46368,7.58229 -5.27347,14.20702 -13.24113,14.48522 z"
         transform="matrix(1.3333333,0,0,-1.3333333,329.78133,223.04533)"
         id="path86" />
    </clipPath>
    <clipPath
       clipPathUnits="userSpaceOnUse"
       id="clipPath89">
      <path
         d="M 21.23732,52.56404 C 33.59389,47.57164 43.79988,38.38206 50.05644,26.61496 43.40271,39.12904 49.49165,50.79547 58.97528,61.32799 L 54.82805,65.0622 C 45.34444,54.5297 34.37833,47.25471 21.23732,52.56404 Z m 39.49918,19.06011 -5.90847,-6.56194 4.14725,-3.73422 5.90846,6.56192 z m 5.92405,18.70921 C 70.17986,83.71439 75.92076,78.54523 82.87129,75.737 75.47949,78.72348 70.21826,73.81445 64.88373,67.88991 l -4.14723,3.73422 c 5.33454,5.92455 9.66677,11.67004 5.92405,18.70923 z"
         transform="translate(-37.934451,-42.130054)"
         id="path89" />
    </clipPath>
    <clipPath
       clipPathUnits="userSpaceOnUse"
       id="clipPath91">
      <path
         d="M 21.23732,52.56404 C 33.59389,47.57164 43.79988,38.38206 50.05644,26.61496 43.40271,39.12904 49.49165,50.79547 58.97528,61.32799 L 54.82805,65.0622 C 45.34444,54.5297 34.37833,47.25471 21.23732,52.56404 Z m 39.49918,19.06011 -5.90847,-6.56194 4.14725,-3.73422 5.90846,6.56192 z m 5.92405,18.70921 C 70.17986,83.71439 75.92076,78.54523 82.87129,75.737 75.47949,78.72348 70.21826,73.81445 64.88373,67.88991 l -4.14723,3.73422 c 5.33454,5.92455 9.66677,11.67004 5.92405,18.70923 z"
         transform="translate(-37.934451,-42.130054)"
         id="path91" />
    </clipPath>
    <linearGradient
       x1="0"
       y1="0"
       x2="100.00128"
       y2="0"
       gradientUnits="userSpaceOnUse"
       id="linearGradient92">
      <stop
         style="stop-opacity:1;stop-color:#67e8f9"
         offset="0"
         id="stop91" />
      <stop
         style="stop-opacity:1;stop-color:#ecc94b"
         offset="1"
         id="stop92" />
    </linearGradient>
    <clipPath
       clipPathUnits="userSpaceOnUse"
       id="clipPath93">
      <path
         d="M 21.23732,52.56404 C 33.59389,47.57164 43.79988,38.38206 50.05644,26.61496 43.40271,39.12904 49.49165,50.79547 58.97528,61.32799 L 54.82805,65.0622 C 45.34444,54.5297 34.37833,47.25471 21.23732,52.56404 Z m 39.49918,19.06011 -5.90847,-6.56194 4.14725,-3.73422 5.90846,6.56192 z m 5.92405,18.70921 C 70.17986,83.71439 75.92076,78.54523 82.87129,75.737 75.47949,78.72348 70.21826,73.81445 64.88373,67.88991 l -4.14723,3.73422 c 5.33454,5.92455 9.66677,11.67004 5.92405,18.70923 z"
         transform="matrix(1.3333333,0,0,-1.3333333,329.78133,223.04533)"
         id="path93" />
    </clipPath>
  </defs>
  <sodipodi:namedview
     id="namedview1"
     pagecolor="#ffffff"
     bordercolor="#000000"
     borderopacity="0.25"
     inkscape:showpageshadow="2"
     inkscape:pageopacity="0.0"
     inkscape:pagecheckerboard="0"
     inkscape:deskcolor="#d1d1d1">
    <inkscape:page
       x="0"
       y="0"
       inkscape:label="1"
       id="page1"
       width="598.98535"
       height="531.56403"
       margin="0"
       bleed="0" />
  </sodipodi:namedview>
  <g
     id="g1"
     inkscape:groupmode="layer"
     inkscape:label="1">
    <path
       id="path1"
       d="M 56.69363,0 C 56.69363,31.31142 31.31142,56.69363 0,56.69363 -31.31142,56.69363 -56.69363,31.31142 -56.69363,0 c 0,-31.31142 25.38221,-56.69363 56.69363,-56.69363 31.31142,0 56.69363,25.38221 56.69363,56.69363 z"
       style="fill:#67e8f9;fill-opacity:1;fill-rule:nonzero;stroke:#67e8f9;stroke-width:1.19553;stroke-linecap:butt;stroke-linejoin:miter;stroke-miterlimit:10;stroke-dasharray:none;stroke-opacity:1"
       transform="matrix(1.3333333,0,0,-1.3333333,329.78133,223.04533)" />
    <text
       id="text1"
       xml:space="preserve"
       transform="matrix(1.3333333,0,0,1.3333333,285.05467,228.74667)"><tspan
         style="font-variant:normal;font-weight:700;font-size:11.9552px;font-family:Raleway;writing-mode:lr-tb;fill:#ffffff;fill-opacity:1;fill-rule:nonzero;stroke:none"
         x="0 8.6340237 16.608122 24.58222 32.55632 41.190342 49.824368 58.458389"
         y="0"
         sodipodi:role="line"
         id="tspan1">RESEARCH</tspan></text>
    <path
       id="path2"
       d="m 75.68896,-134.79836 c 0,17.61269 -14.27748,31.89017 -31.89015,31.89017 -17.61268,0 -31.89016,-14.27748 -31.89016,-31.89017 0,-17.61267 14.27748,-31.89016 31.89016,-31.89016 17.61267,0 31.89015,14.27749 31.89015,31.89016 z"
       style="fill:#10b981;fill-opacity:1;fill-rule:nonzero;stroke:#10b981;stroke-width:1.19553;stroke-linecap:butt;stroke-linejoin:miter;stroke-miterlimit:10;stroke-dasharray:none;stroke-opacity:1"
       transform="matrix(1.3333333,0,0,-1.3333333,329.78133,223.04533)" />
    <text
       id="text2"
       xml:space="preserve"
       transform="matrix(1.3333333,0,0,1.3333333,378.21733,407.05333)"><tspan
         style="font-variant:normal;font-weight:normal;font-size:8.96638px;font-family:Arial;writing-mode:lr-tb;fill:#ffffff;fill-opacity:1;fill-rule:nonzero;stroke:none"
         x="0 2.4908605 9.4649105"
         y="0"
         sodipodi:role="line"
         id="tspan2">IGT</tspan></text>
    <path
       id="path3"
       d="M 54.2331,16.57285 36.40659,71.43881 -71.4439,36.3981 -53.61739,-18.46786 Z"
       style="fill:#67e8f9;fill-opacity:1;fill-rule:nonzero;stroke:none"
       transform="matrix(1.3333333,0,0,-1.3333333,353.13953,294.93661)"
       clip-path="url(#clipPath4)" />
    <path
       id="path5"
       d="M 70.04164,-32.0823 80.20375,-63.35895 -27.64673,-98.39966 -37.80884,-67.12302 Z"
       style="fill:#10b981;fill-opacity:1;fill-rule:nonzero;stroke:none"
       transform="matrix(1.3333333,0,0,-1.3333333,353.13953,294.93661)"
       clip-path="url(#clipPath6)" />
    <g
       id="g7"
       clip-path="url(#clipPath8)">
      <path
         d="M 0,0 H 100 V 100 H 0 Z"
         transform="matrix(0.219,0.67405333,1.4379867,-0.4672,281.24003,318.29697)"
         style="fill:url(#linearGradient7);stroke:none"
         id="path7" />
    </g>
    <path
       id="path9"
       d="m 150.80788,-134.79836 c 0,13.69875 -11.10471,24.80347 -24.80345,24.80347 -13.69875,0 -24.80347,-11.10472 -24.80347,-24.80347 0,-13.69874 11.10472,-24.80344 24.80347,-24.80344 13.69874,0 24.80345,11.1047 24.80345,24.80344 z"
       style="fill:#10b981;fill-opacity:1;fill-rule:nonzero;stroke:#10b981;stroke-width:1.19553;stroke-linecap:butt;stroke-linejoin:miter;stroke-miterlimit:10;stroke-dasharray:none;stroke-opacity:1"
       transform="matrix(1.3333333,0,0,-1.3333333,329.78133,223.04533)" />
    <a href="https://djps.github.io/publication/bookchapter/" target="_blank">
	<text
       id="text9"
       xml:space="preserve"
       transform="matrix(1.3333333,0,0,1.3333333,472.08933,406.51333)">
	   <tspan
         style="font-variant:normal;font-weight:normal;font-size:7.97011px;font-family:Arial;writing-mode:lr-tb;fill:#ffffff;fill-opacity:1;fill-rule:nonzero;stroke:none"
         x="0 5.7560134 7.5269718 9.7410688 12.395115 16.828091 20.813145 25.24612 29.679096 34.112072"
         y="0"
         sodipodi:role="line"
         id="tspan9">Ultrasound</tspan>  </text></a>
    <path
       id="path10"
       d="M 0.99628,31.89432 H -31.89015 V -31.89432 H 0.99628 Z"
       style="fill:#10b981;fill-opacity:1;fill-rule:nonzero;stroke:none"
       transform="matrix(1.3333333,0,0,-1.3333333,430.69995,402.77648)"
       clip-path="url(#clipPath11)" />
    <path
       id="path12"
       d="M 24.5157,31.89432 H 50.31544 V -31.89432 H 24.5157 Z"
       style="fill:#10b981;fill-opacity:1;fill-rule:nonzero;stroke:none"
       transform="matrix(1.3333333,0,0,-1.3333333,430.69995,402.77648)"
       clip-path="url(#clipPath13)" />
    <g
       id="g14"
       clip-path="url(#clipPath15)">
      <path
         d="M 0,0 H 100 V 100 H 0 Z"
         transform="matrix(0.34018667,0,0,-0.85050667,430.70029,445.30181)"
         style="fill:url(#linearGradient14);stroke:none"
         id="path14" />
    </g>
    <path
       id="path16"
       d="m 142.30376,-66.76616 c 0,9.002 -7.29735,16.29933 -16.29933,16.29933 -9.002,0 -16.29935,-7.29733 -16.29935,-16.29933 0,-9.00198 7.29735,-16.29933 16.29935,-16.29933 9.00198,0 16.29933,7.29735 16.29933,16.29933 z"
       style="fill:#31a881;fill-opacity:1;fill-rule:nonzero;stroke:#31a881;stroke-width:1.19553;stroke-linecap:butt;stroke-linejoin:miter;stroke-miterlimit:10;stroke-dasharray:none;stroke-opacity:1"
       transform="matrix(1.3333333,0,0,-1.3333333,329.78133,223.04533)" />
    <text
       id="text16"
       xml:space="preserve"
       transform="matrix(1.3333333,0,0,1.3333333,480.24933,313.744)"><tspan
         style="font-variant:normal;font-weight:normal;font-size:4.98132px;font-family:Arial;writing-mode:lr-tb;fill:#ffffff;fill-opacity:1;fill-rule:nonzero;stroke:none"
         x="0 3.5975094 6.3681197 9.13873 10.245579 11.352428 14.123038 16.893648 19.664259 21.323038 22.429888 23.813698"
         y="0"
         sodipodi:role="line"
         id="tspan16">Nonlinearity</tspan></text>
    <path
       id="path17"
       d="M -24.80652,0.99628 V -24.80345 H 24.80652 V 0.99628 Z"
       style="fill:#10b981;fill-opacity:1;fill-rule:nonzero;stroke:none"
       transform="matrix(1.3333333,0,0,-1.3333333,497.78724,369.70519)"
       clip-path="url(#clipPath18)" />
    <path
       id="path19"
       d="M -24.80652,25.93312 V 43.22873 H 24.80652 V 25.93312 Z"
       style="fill:#31a881;fill-opacity:1;fill-rule:nonzero;stroke:none"
       transform="matrix(1.3333333,0,0,-1.3333333,497.78724,369.70519)"
       clip-path="url(#clipPath20)" />
    <g
       id="g21"
       clip-path="url(#clipPath22)">
      <path
         d="M 0,0 H 100 V 100 H 0 Z"
         transform="matrix(0,-0.35909333,-0.66149333,0,530.86191,369.70512)"
         style="fill:url(#linearGradient21);stroke:none"
         id="path21" />
    </g>
    <path
       id="path23"
       d="m 176.40631,-75.88057 c 0,9.04971 -7.33607,16.38577 -16.38579,16.38577 -9.04972,0 -16.38578,-7.33606 -16.38578,-16.38577 0,-9.04973 7.33606,-16.38579 16.38578,-16.38579 9.04972,0 16.38579,7.33606 16.38579,16.38579 z"
       style="fill:#31a881;fill-opacity:1;fill-rule:nonzero;stroke:#31a881;stroke-width:1.19553;stroke-linecap:butt;stroke-linejoin:miter;stroke-miterlimit:10;stroke-dasharray:none;stroke-opacity:1"
       transform="matrix(1.3333333,0,0,-1.3333333,329.78133,223.04533)" />
    <text
       id="text23"
       xml:space="preserve"
       transform="matrix(1.3333333,0,0,1.3333333,528.128,321.912)"><tspan
         style="font-variant:normal;font-weight:normal;font-size:4.98132px;font-family:Arial;writing-mode:lr-tb;fill:#ffffff;fill-opacity:1;fill-rule:nonzero;stroke:none"
         x="0 2.8582814 4.5170608 7.2876711 10.058281 11.442092 15.591532 18.362143 21.132751"
         y="0"
         sodipodi:role="line"
         id="tspan23">Treatment</tspan></text>
    <text
       id="text24"
       xml:space="preserve"
       transform="matrix(1.3333333,0,0,1.3333333,530.58133,329.88133)"><tspan
         style="font-variant:normal;font-weight:normal;font-size:4.98132px;font-family:Arial;writing-mode:lr-tb;fill:#ffffff;fill-opacity:1;fill-rule:nonzero;stroke:none"
         x="0 2.7706101 3.8774595 6.6480699 9.4186802 12.18929 13.29614 16.06675"
         y="0"
         sodipodi:role="line"
         id="tspan24">planning</tspan></text>
    <path
       id="path24"
       d="M -20.98422,13.26529 -33.8837,-9.07758 9.081,-33.88258 21.98047,-11.5397 Z"
       style="fill:#10b981;fill-opacity:1;fill-rule:nonzero;stroke:none"
       transform="matrix(1.3333333,0,0,-1.3333333,514.32235,374.13636)"
       clip-path="url(#clipPath25)" />
    <path
       id="path26"
       d="M -8.55919,34.7864 0.13155,49.8395 43.09627,25.03448 34.4055,9.9814 Z"
       style="fill:#31a881;fill-opacity:1;fill-rule:nonzero;stroke:none"
       transform="matrix(1.3333333,0,0,-1.3333333,514.32235,374.13636)"
       clip-path="url(#clipPath27)" />
    <g
       id="g28"
       clip-path="url(#clipPath29)">
      <path
         d="M 0,0 H 100 V 100 H 0 Z"
         transform="matrix(0.17896,-0.30997333,-0.57285333,-0.33073333,542.96487,390.67265)"
         style="fill:url(#linearGradient28);stroke:none"
         id="path28" />
    </g>
    <path
       id="path30"
       d="m 201.30798,-100.78226 c 0,9.04973 -7.33607,16.38579 -16.38578,16.38579 -9.04973,0 -16.3858,-7.33606 -16.3858,-16.38579 0,-9.04971 7.33607,-16.38579 16.3858,-16.38579 9.04971,0 16.38578,7.33608 16.38578,16.38579 z"
       style="fill:#31a881;fill-opacity:1;fill-rule:nonzero;stroke:#31a881;stroke-width:1.19553;stroke-linecap:butt;stroke-linejoin:miter;stroke-miterlimit:10;stroke-dasharray:none;stroke-opacity:1"
       transform="matrix(1.3333333,0,0,-1.3333333,329.78133,223.04533)" />
    <text
       id="text30"
       xml:space="preserve"
       transform="matrix(1.3333333,0,0,1.3333333,566.56,355.11333)"><tspan
         style="font-variant:normal;font-weight:normal;font-size:4.98132px;font-family:Arial;writing-mode:lr-tb;fill:#ffffff;fill-opacity:1;fill-rule:nonzero;stroke:none"
         x="0 3.3225405 6.0931506 8.8637609 13.013201"
         y="0"
         sodipodi:role="line"
         id="tspan30">Beam-</tspan></text>
    <text
       id="text31"
       xml:space="preserve"
       transform="matrix(1.3333333,0,0,1.3333333,565.26667,363.084)"><tspan
         style="font-variant:normal;font-weight:normal;font-size:4.98132px;font-family:Arial;writing-mode:lr-tb;fill:#ffffff;fill-opacity:1;fill-rule:nonzero;stroke:none"
         x="0 1.3838108 4.1544209 5.8132005 9.9626398 11.069489 13.840099"
         y="0"
         sodipodi:role="line"
         id="tspan31">forming</tspan></text>
    <path
       id="path31"
       d="M -11.5397,21.98047 -33.88258,9.081 l 24.805,-42.9647 22.34287,12.89948 z"
       style="fill:#10b981;fill-opacity:1;fill-rule:nonzero;stroke:none"
       transform="matrix(1.3333333,0,0,-1.3333333,526.42735,386.24133)"
       clip-path="url(#clipPath32)" />
    <path
       id="path33"
       d="M 9.9814,34.4055 25.03448,43.09627 49.8395,0.13155 34.7864,-8.55919 Z"
       style="fill:#31a881;fill-opacity:1;fill-rule:nonzero;stroke:none"
       transform="matrix(1.3333333,0,0,-1.3333333,526.42735,386.24133)"
       clip-path="url(#clipPath34)" />
    <g
       id="g35"
       clip-path="url(#clipPath36)">
      <path
         d="M 0,0 H 100 V 100 H 0 Z"
         transform="matrix(0.30997333,-0.17896,-0.33073333,-0.57285333,542.96439,414.88415)"
         style="fill:url(#linearGradient35);stroke:none"
         id="path35" />
    </g>
    <path
       id="path37"
       d="m 109.70506,-205.99069 c 0,13.69874 -11.1047,24.80345 -24.80345,24.80345 -13.69874,0 -24.80345,-11.10471 -24.80345,-24.80345 0,-13.69875 11.10471,-24.80345 24.80345,-24.80345 13.69875,0 24.80345,11.1047 24.80345,24.80345 z"
       style="fill:#10b981;fill-opacity:1;fill-rule:nonzero;stroke:#10b981;stroke-width:1.19553;stroke-linecap:butt;stroke-linejoin:miter;stroke-miterlimit:10;stroke-dasharray:none;stroke-opacity:1"
       transform="matrix(1.3333333,0,0,-1.3333333,329.78133,223.04533)" />
    <text
       id="text37"
       xml:space="preserve"
       transform="matrix(1.3333333,0,0,1.3333333,430.19333,501.5)"><tspan
         style="font-variant:normal;font-weight:normal;font-size:7.97011px;font-family:Arial;writing-mode:lr-tb;fill:#ffffff;fill-opacity:1;fill-rule:nonzero;stroke:none"
         x="0 6.6391015 13.866397"
         y="0"
         sodipodi:role="line"
         id="tspan37">MWA</tspan></text>
    <path
       id="path38"
       d="M 28.1184,15.08359 11.67569,43.56364 -43.56485,11.67087 -27.12215,-16.80917 Z"
       style="fill:#10b981;fill-opacity:1;fill-rule:nonzero;stroke:none"
       transform="matrix(1.3333333,0,0,-1.3333333,409.4392,439.59949)"
       clip-path="url(#clipPath39)" />
    <path
       id="path40"
       d="M 39.87813,-5.28517 52.7776,-27.62807 -2.46294,-59.52084 -15.36241,-37.17795 Z"
       style="fill:#10b981;fill-opacity:1;fill-rule:nonzero;stroke:none"
       transform="matrix(1.3333333,0,0,-1.3333333,409.4392,439.59949)"
       clip-path="url(#clipPath41)" />
    <g
       id="g42"
       clip-path="url(#clipPath43)">
      <path
         d="M 0,0 H 100 V 100 H 0 Z"
         transform="matrix(0.17008,0.29461333,0.73653333,-0.42522667,372.61284,460.86117)"
         style="fill:url(#linearGradient42);stroke:none"
         id="path42" />
    </g>
    <path
       id="path44"
       d="m 27.49947,-205.99069 c 0,13.69874 -11.10473,24.80345 -24.80347,24.80345 -13.69873,0 -24.80344,-11.10471 -24.80344,-24.80345 0,-13.69875 11.10471,-24.80345 24.80344,-24.80345 13.69874,0 24.80347,11.1047 24.80347,24.80345 z"
       style="fill:#10b981;fill-opacity:1;fill-rule:nonzero;stroke:#10b981;stroke-width:1.19553;stroke-linecap:butt;stroke-linejoin:miter;stroke-miterlimit:10;stroke-dasharray:none;stroke-opacity:1"
       transform="matrix(1.3333333,0,0,-1.3333333,329.78133,223.04533)" />
    <text
       id="text44"
       xml:space="preserve"
       transform="matrix(1.3333333,0,0,1.3333333,309.46267,500.38133)"><tspan
         style="font-variant:normal;font-weight:normal;font-size:7.97011px;font-family:Arial;writing-mode:lr-tb;fill:#ffffff;fill-opacity:1;fill-rule:nonzero;stroke:none"
         x="0 5.7560134 10.188989 14.174044 15.945002 22.584105 27.017078 29.231176 31.885221"
         y="0"
         sodipodi:role="line"
         id="tspan44">Dosimetry</tspan></text>
    <path
       id="path45"
       d="M 27.12215,-16.80917 43.56485,11.67087 -11.67569,43.56364 -28.1184,15.08359 Z"
       style="fill:#10b981;fill-opacity:1;fill-rule:nonzero;stroke:none"
       transform="matrix(1.3333333,0,0,-1.3333333,366.92031,439.59949)"
       clip-path="url(#clipPath46)" />
    <path
       id="path47"
       d="M 15.36241,-37.17795 2.46294,-59.52084 -52.7776,-27.62807 -39.87813,-5.28517 Z"
       style="fill:#10b981;fill-opacity:1;fill-rule:nonzero;stroke:none"
       transform="matrix(1.3333333,0,0,-1.3333333,366.92031,439.59949)"
       clip-path="url(#clipPath48)" />
    <g
       id="g49"
       clip-path="url(#clipPath50)">
      <path
         d="M 0,0 H 100 V 100 H 0 Z"
         transform="matrix(-0.17008,0.29461333,0.73653333,0.42522667,330.09333,418.33851)"
         style="fill:url(#linearGradient49);stroke:none"
         id="path49" />
    </g>
    <path
       id="path51"
       d="m -62.94815,-105.32736 c 0,17.61268 -14.27748,31.89016 -31.89015,31.89016 -17.61269,0 -31.89017,-14.27748 -31.89017,-31.89016 0,-17.61267 14.27748,-31.89015 31.89017,-31.89015 17.61267,0 31.89015,14.27748 31.89015,31.89015 z"
       style="fill:#d8b4fe;fill-opacity:1;fill-rule:nonzero;stroke:#d8b4fe;stroke-width:1.19553;stroke-linecap:butt;stroke-linejoin:miter;stroke-miterlimit:10;stroke-dasharray:none;stroke-opacity:1"
       transform="matrix(1.3333333,0,0,-1.3333333,329.78133,223.04533)" />
    <text
       id="text51"
       xml:space="preserve"
       transform="matrix(1.3333333,0,0,1.3333333,190.70533,367.68933)"><tspan
         style="font-variant:normal;font-weight:normal;font-size:8.96638px;font-family:Arial;writing-mode:lr-tb;fill:#ffffff;fill-opacity:1;fill-rule:nonzero;stroke:none"
         x="0 6.4755197 11.46262 13.953481"
         y="0"
         sodipodi:role="line"
         id="tspan51">Data</tspan></text>
    <path
       id="path52"
       d="M 41.46877,-38.6795 80.06984,4.19089 -4.20094,80.06923 -42.80202,37.1988 Z"
       style="fill:#67e8f9;fill-opacity:1;fill-rule:nonzero;stroke:none"
       transform="matrix(1.3333333,0,0,-1.3333333,279.20207,279.21873)"
       clip-path="url(#clipPath53)" />
    <path
       id="path54"
       d="m 7.23865,-76.69556 -22.00475,-24.43852 -84.2708,75.87834 22.00476,24.43853 z"
       style="fill:#d8b4fe;fill-opacity:1;fill-rule:nonzero;stroke:none"
       transform="matrix(1.3333333,0,0,-1.3333333,279.20207,279.21873)"
       clip-path="url(#clipPath55)" />
    <g
       id="g56"
       clip-path="url(#clipPath57)">
      <path
         d="M 0,0 H 100 V 100 H 0 Z"
         transform="matrix(-0.47422667,0.52666667,1.1236,1.0116933,223.02197,228.63465)"
         style="fill:url(#linearGradient56);stroke:none"
         id="path56" />
    </g>
    <path
       id="path58"
       d="m -106.74696,29.46881 c 0,17.61269 -14.27748,31.89017 -31.89017,31.89017 -17.61267,0 -31.89015,-14.27748 -31.89015,-31.89017 0,-17.61267 14.27748,-31.89014 31.89015,-31.89014 17.61269,0 31.89017,14.27747 31.89017,31.89014 z"
       style="fill:#4299e1;fill-opacity:1;fill-rule:nonzero;stroke:#4299e1;stroke-width:1.19553;stroke-linecap:butt;stroke-linejoin:miter;stroke-miterlimit:10;stroke-dasharray:none;stroke-opacity:1"
       transform="matrix(1.3333333,0,0,-1.3333333,329.78133,223.04533)" />
    <text
       id="text58"
       xml:space="preserve"
       transform="matrix(1.3333333,0,0,1.3333333,114.70133,186.77467)"><tspan
         style="font-variant:normal;font-weight:normal;font-size:8.96638px;font-family:Arial;writing-mode:lr-tb;fill:#ffffff;fill-opacity:1;fill-rule:nonzero;stroke:none"
         x="0 6.4755197 11.46262 15.94581 20.932911 23.918715 26.409576 31.396677 33.389008 38.376106 40.866966"
         y="0"
         sodipodi:role="line"
         id="tspan58">Uncertainty</tspan></text>
    <path
       id="path59"
       d="M -12.76204,-55.25316 43.66641,-67.24695 67.24152,43.67363 10.81305,55.66742 Z"
       style="fill:#67e8f9;fill-opacity:1;fill-rule:nonzero;stroke:none"
       transform="matrix(1.3333333,0,0,-1.3333333,255.84272,207.3298)"
       clip-path="url(#clipPath60)" />
    <path
       id="path61"
       d="m -62.8021,-44.61723 -32.16734,6.83713 23.57511,110.92059 32.16736,-6.83715 z"
       style="fill:#4299e1;fill-opacity:1;fill-rule:nonzero;stroke:none"
       transform="matrix(1.3333333,0,0,-1.3333333,255.84272,207.3298)"
       clip-path="url(#clipPath62)" />
    <g
       id="g63"
       clip-path="url(#clipPath64)">
      <path
         d="M 0,0 H 100 V 100 H 0 Z"
         transform="matrix(-0.69325333,-0.14733333,-0.31433333,1.47892,271.55875,133.38347)"
         style="fill:url(#linearGradient63);stroke:none"
         id="path63" />
    </g>
    <path
       id="path65"
       d="m -194.9444,29.46881 c 0,14.30344 -11.5949,25.89833 -25.89833,25.89833 -14.30343,0 -25.89834,-11.59489 -25.89834,-25.89833 0,-14.30344 11.59491,-25.89833 25.89834,-25.89833 14.30343,0 25.89833,11.59489 25.89833,25.89833 z"
       style="fill:#5491c4;fill-opacity:1;fill-rule:nonzero;stroke:#5491c4;stroke-width:1.19553;stroke-linecap:butt;stroke-linejoin:miter;stroke-miterlimit:10;stroke-dasharray:none;stroke-opacity:1"
       transform="matrix(1.3333333,0,0,-1.3333333,329.78133,223.04533)" />
    <text
       id="text65"
       xml:space="preserve"
       transform="matrix(1.3333333,0,0,1.3333333,13.178667,174.876)"><tspan
         style="font-variant:normal;font-weight:normal;font-size:7.97011px;font-family:Arial;writing-mode:lr-tb;fill:#ffffff;fill-opacity:1;fill-rule:nonzero;stroke:none"
         x="0 6.6391015 11.072077 15.505052 19.490107 23.923082 26.577129 31.010103"
         y="0"
         sodipodi:role="line"
         id="tspan65">Measure.</tspan></text>
    <text
       id="text66"
       xml:space="preserve"
       transform="matrix(1.3333333,0,0,1.3333333,19.081333,187.49467)"><tspan
         style="font-variant:normal;font-weight:normal;font-size:7.97011px;font-family:Arial;writing-mode:lr-tb;fill:#ffffff;fill-opacity:1;fill-rule:nonzero;stroke:none"
         x="0 4.4329753 8.8659506 12.851006 17.283981 21.716955"
         y="0"
         sodipodi:role="line"
         id="tspan66">based-</tspan></text>
    <text
       id="text67"
       xml:space="preserve"
       transform="matrix(1.3333333,0,0,1.3333333,11.406667,200.11467)"><tspan
         style="font-variant:normal;font-weight:normal;font-size:7.97011px;font-family:Arial;writing-mode:lr-tb;fill:#ffffff;fill-opacity:1;fill-rule:nonzero;stroke:none"
         x="0 3.985055 5.7560134 12.395115 16.828091 18.599049 23.032024 25.24612 27.017078 31.450054"
         y="0"
         sodipodi:role="line"
         id="tspan67">simulation</tspan></text>
    <path
       id="path67"
       d="M -0.99628,-31.89432 H 31.89015 V 31.89432 H -0.99628 Z"
       style="fill:#4299e1;fill-opacity:1;fill-rule:nonzero;stroke:none"
       transform="matrix(1.3333333,0,0,-1.3333333,102.41163,183.75359)"
       clip-path="url(#clipPath68)" />
    <path
       id="path69"
       d="m -23.42082,-31.89432 h -26.89462 v 63.78864 h 26.89462 z"
       style="fill:#5491c4;fill-opacity:1;fill-rule:nonzero;stroke:none"
       transform="matrix(1.3333333,0,0,-1.3333333,102.41163,183.75359)"
       clip-path="url(#clipPath70)" />
    <g
       id="g71"
       clip-path="url(#clipPath72)">
      <path
         d="M 0,0 H 100 V 100 H 0 Z"
         transform="matrix(-0.32558667,0,0,0.85050667,102.41168,141.22825)"
         style="fill:url(#linearGradient71);stroke:none"
         id="path71" />
    </g>
    <path
       id="path73"
       d="m -154.93648,100.66115 c 0,13.69875 -11.1047,24.80346 -24.80345,24.80346 -13.69874,0 -24.80345,-11.10471 -24.80345,-24.80346 0,-13.69875 11.10471,-24.80345 24.80345,-24.80345 13.69875,0 24.80345,11.1047 24.80345,24.80345 z"
       style="fill:#5491c4;fill-opacity:1;fill-rule:nonzero;stroke:#5491c4;stroke-width:1.19553;stroke-linecap:butt;stroke-linejoin:miter;stroke-miterlimit:10;stroke-dasharray:none;stroke-opacity:1"
       transform="matrix(1.3333333,0,0,-1.3333333,329.78133,223.04533)" />
    <text
       id="text73"
       xml:space="preserve"
       transform="matrix(1.3333333,0,0,1.3333333,65.618667,86.390667)"><tspan
         style="font-variant:normal;font-weight:normal;font-size:7.97011px;font-family:Arial;writing-mode:lr-tb;fill:#ffffff;fill-opacity:1;fill-rule:nonzero;stroke:none"
         x="0 5.3160634 7.53016 11.963135 15.94819 20.381165 24.81414 28.799196 31.013292 32.784252"
         y="0"
         sodipodi:role="line"
         id="tspan73">Stochastic</tspan></text>
    <text
       id="text74"
       xml:space="preserve"
       transform="matrix(1.3333333,0,0,1.3333333,78.914667,99.010667)"><tspan
         style="font-variant:normal;font-weight:normal;font-size:7.97011px;font-family:Arial;writing-mode:lr-tb;fill:#ffffff;fill-opacity:1;fill-rule:nonzero;stroke:none"
         x="0 4.8681431 10.184207"
         y="0"
         sodipodi:role="line"
         id="tspan74">FEM</tspan></text>
    <path
       id="path74"
       d="m -28.1184,-15.08359 16.44271,-28.48005 55.24054,31.89277 -16.4427,28.48004 z"
       style="fill:#4299e1;fill-opacity:1;fill-rule:nonzero;stroke:none"
       transform="matrix(1.3333333,0,0,-1.3333333,123.67239,146.93057)"
       clip-path="url(#clipPath75)" />
    <path
       id="path76"
       d="M -39.87813,5.28517 -52.7776,27.62807 2.46294,59.52084 15.36241,37.17795 Z"
       style="fill:#5491c4;fill-opacity:1;fill-rule:nonzero;stroke:none"
       transform="matrix(1.3333333,0,0,-1.3333333,123.67239,146.93057)"
       clip-path="url(#clipPath77)" />
    <g
       id="g78"
       clip-path="url(#clipPath79)">
      <path
         d="M 0,0 H 100 V 100 H 0 Z"
         transform="matrix(-0.17008,-0.29461333,-0.73653333,0.42522667,160.49875,125.66889)"
         style="fill:url(#linearGradient78);stroke:none"
         id="path78" />
    </g>
    <path
       id="path80"
       d="m -11.90865,134.79836 c 0,17.61267 -14.27748,31.89016 -31.89016,31.89016 -17.61267,0 -31.89015,-14.27749 -31.89015,-31.89016 0,-17.61269 14.27748,-31.89017 31.89015,-31.89017 17.61268,0 31.89016,14.27748 31.89016,31.89017 z"
       style="fill:#f56565;fill-opacity:1;fill-rule:nonzero;stroke:#f56565;stroke-width:1.19553;stroke-linecap:butt;stroke-linejoin:miter;stroke-miterlimit:10;stroke-dasharray:none;stroke-opacity:1"
       transform="matrix(1.3333333,0,0,-1.3333333,329.78133,223.04533)" />
    <text
       id="text80"
       xml:space="preserve"
       transform="matrix(1.3333333,0,0,1.3333333,244.80267,47.596)"><tspan
         style="font-variant:normal;font-weight:normal;font-size:8.96638px;font-family:Arial;writing-mode:lr-tb;fill:#ffffff;fill-opacity:1;fill-rule:nonzero;stroke:none"
         x="0 6.4755197 11.46262 15.94581 17.938139 20.429001 25.416101 27.906961 29.89929 34.886391"
         y="0"
         sodipodi:role="line"
         id="tspan80">Cavitation</tspan></text>
    <path
       id="path81"
       d="M -54.2331,-16.57285 -36.40659,-71.43881 71.4439,-36.3981 53.61739,18.46786 Z"
       style="fill:#67e8f9;fill-opacity:1;fill-rule:nonzero;stroke:none"
       transform="matrix(1.3333333,0,0,-1.3333333,306.42313,151.15405)"
       clip-path="url(#clipPath82)" />
    <path
       id="path83"
       d="M -70.04164,32.0823 -80.20375,63.35895 27.64673,98.39966 37.80884,67.12302 Z"
       style="fill:#f56565;fill-opacity:1;fill-rule:nonzero;stroke:none"
       transform="matrix(1.3333333,0,0,-1.3333333,306.42313,151.15405)"
       clip-path="url(#clipPath84)" />
    <g
       id="g85"
       clip-path="url(#clipPath86)">
      <path
         d="M 0,0 H 100 V 100 H 0 Z"
         transform="matrix(-0.219,-0.67405333,-1.4379867,0.4672,378.32264,127.79369)"
         style="fill:url(#linearGradient85);stroke:none"
         id="path85" />
    </g>
    <path
       id="path87"
       d="m 126.72847,105.32736 c 0,17.61267 -14.27748,31.89015 -31.89017,31.89015 -17.61267,0 -31.89015,-14.27748 -31.89015,-31.89015 0,-17.61268 14.27748,-31.89016 31.89015,-31.89016 17.61269,0 31.89017,14.27748 31.89017,31.89016 z"
       style="fill:#ecc94b;fill-opacity:1;fill-rule:nonzero;stroke:#ecc94b;stroke-width:1.19553;stroke-linecap:butt;stroke-linejoin:miter;stroke-miterlimit:10;stroke-dasharray:none;stroke-opacity:1"
       transform="matrix(1.3333333,0,0,-1.3333333,329.78133,223.04533)" />
    <text
       id="text87"
       xml:space="preserve"
       transform="matrix(1.3333333,0,0,1.3333333,432.31067,86.889333)"><tspan
         style="font-variant:normal;font-weight:normal;font-size:8.96638px;font-family:Raleway;writing-mode:lr-tb;fill:#ffffff;fill-opacity:1;fill-rule:nonzero;stroke:none"
         x="0 6.4755197 11.46262 15.94581 20.429001 25.416101 28.401905 33.389008"
         y="0"
         sodipodi:role="line"
         id="tspan87">Cosserat</tspan></text>
    <path
       id="path88"
       d="M -41.46877,38.6795 -80.06984,-4.19089 4.20094,-80.06923 42.80202,-37.1988 Z"
       style="fill:#67e8f9;fill-opacity:1;fill-rule:nonzero;stroke:none"
       transform="matrix(1.3333333,0,0,-1.3333333,380.3606,166.87193)"
       clip-path="url(#clipPath89)" />
    <path
       id="path90"
       d="M -7.23865,76.69556 14.7661,101.13408 99.0369,25.25574 77.03214,0.81721 Z"
       style="fill:#ecc94b;fill-opacity:1;fill-rule:nonzero;stroke:none"
       transform="matrix(1.3333333,0,0,-1.3333333,380.3606,166.87193)"
       clip-path="url(#clipPath91)" />
    <g
       id="g92"
       clip-path="url(#clipPath93)">
      <path
         d="M 0,0 H 100 V 100 H 0 Z"
         transform="matrix(0.47422667,-0.52666667,-1.1236,-1.0116933,436.54069,217.45601)"
         style="fill:url(#linearGradient92);stroke:none"
         id="path92" />
    </g>
  </g>
</svg>
